G04 EAGLE Gerber RS-274X export*
G75*
%MOMM*%
%FSLAX34Y34*%
%LPD*%
%INSoldermask Bottom*%
%IPPOS*%
%AMOC8*
5,1,8,0,0,1.08239X$1,22.5*%
G01*
%ADD10C,1.981200*%
%ADD11P,1.759533X8X112.500000*%
%ADD12R,2.882900X2.882900*%
%ADD13C,9.101600*%
%ADD14R,1.270000X1.701800*%
%ADD15R,0.152400X1.828800*%
%ADD16R,1.609600X1.609600*%
%ADD17C,1.778000*%
%ADD18P,1.742215X8X22.500000*%
%ADD19C,1.609600*%
%ADD20C,4.101600*%
%ADD21C,3.217600*%


D10*
X855000Y127000D03*
X855000Y101600D03*
D11*
X13300Y103200D03*
X38700Y103200D03*
X13300Y128600D03*
X38700Y128600D03*
X13300Y154000D03*
X38700Y154000D03*
X13300Y179400D03*
X38700Y179400D03*
X13300Y204800D03*
X38700Y204800D03*
X13300Y230200D03*
X38700Y230200D03*
X13300Y255600D03*
X38700Y255600D03*
X13300Y281000D03*
X38700Y281000D03*
X13300Y306400D03*
X38700Y306400D03*
X13300Y331800D03*
X38700Y331800D03*
X13300Y357200D03*
X38700Y357200D03*
X13300Y382600D03*
X38700Y382600D03*
X13300Y408000D03*
X38700Y408000D03*
X13300Y433400D03*
X38700Y433400D03*
X13300Y458800D03*
X38700Y458800D03*
X13300Y484200D03*
X38700Y484200D03*
X13300Y509600D03*
X38700Y509600D03*
X13300Y535000D03*
X38700Y535000D03*
X13300Y560400D03*
X38700Y560400D03*
X13300Y585800D03*
X38700Y585800D03*
D12*
X174960Y60000D03*
X307040Y60000D03*
D13*
X241000Y60000D03*
D10*
X168000Y450800D03*
X168000Y349200D03*
X100000Y450800D03*
X100000Y349200D03*
X233000Y199200D03*
X233000Y300800D03*
X100000Y300800D03*
X100000Y199200D03*
X840000Y659000D03*
X865400Y659000D03*
X214000Y529000D03*
X214000Y554400D03*
X214000Y579800D03*
X554000Y67000D03*
X554000Y41600D03*
X554000Y16200D03*
X362000Y15000D03*
X523000Y28000D03*
X483000Y28000D03*
X362000Y91000D03*
X30000Y669000D03*
X55400Y669000D03*
X80800Y669000D03*
D14*
X860620Y38000D03*
X845380Y38000D03*
D15*
X853000Y38000D03*
D10*
X168000Y300800D03*
X168000Y199200D03*
X233000Y349200D03*
X233000Y450800D03*
D16*
X592800Y14200D03*
X669000Y471400D03*
X745200Y39600D03*
D17*
X745200Y14200D03*
D18*
X745200Y65000D03*
X643600Y471400D03*
D19*
X618200Y471400D03*
X694400Y471400D03*
X719800Y471400D03*
X745200Y344400D03*
X592800Y344400D03*
X592800Y39600D03*
X592800Y65000D03*
X592800Y90400D03*
X592800Y115800D03*
X592800Y141200D03*
X592800Y166600D03*
X592800Y192000D03*
X592800Y217400D03*
X592800Y242800D03*
X592800Y268200D03*
X592800Y293600D03*
X592800Y319000D03*
X719800Y39600D03*
X745200Y319000D03*
X745200Y293600D03*
X745200Y268200D03*
X745200Y242800D03*
X745200Y217400D03*
X745200Y192000D03*
X745200Y166600D03*
X745200Y141200D03*
X745200Y115800D03*
X745200Y90400D03*
D18*
X592800Y369800D03*
D19*
X592800Y420600D03*
X592800Y446000D03*
X592800Y471400D03*
X592800Y496800D03*
X592800Y522200D03*
X592800Y547600D03*
X592800Y573000D03*
X592800Y598400D03*
X745200Y395200D03*
X745200Y420600D03*
X745200Y446000D03*
X745200Y471400D03*
X745200Y496800D03*
X745200Y522200D03*
X745200Y547600D03*
X745200Y573000D03*
X745200Y598400D03*
X592800Y395200D03*
D16*
X745200Y369800D03*
D10*
X855000Y521000D03*
X855000Y495600D03*
X314000Y210000D03*
X314000Y235400D03*
X339400Y210000D03*
X339400Y235400D03*
X364800Y210000D03*
X364800Y235400D03*
X390200Y210000D03*
X390200Y235400D03*
X415600Y210000D03*
X415600Y235400D03*
X441000Y210000D03*
X441000Y235400D03*
X466400Y210000D03*
X466400Y235400D03*
X491800Y210000D03*
X491800Y235400D03*
X517200Y210000D03*
X517200Y235400D03*
X542600Y210000D03*
X542600Y235400D03*
D20*
X125000Y649000D03*
X790000Y649000D03*
X125000Y40000D03*
X790000Y40000D03*
D21*
X300000Y590000D03*
X555000Y590000D03*
X555000Y430000D03*
X300000Y430000D03*
M02*
