M48
;GenerationSoftware,Autodesk,EAGLE,9.6.2*%
;CreationDate,2021-04-11T14:14:12Z*%
FMAT,2
ICI,OFF
METRIC,TZ,000.000
T8C0.305
T7C0.900
T6C1.000
T5C1.016
T4C1.854
T3C2.100
T2C2.700
T1C2.800
%
G90
M71
T1
X79000Y64900
X12500Y4000
X79000Y4000
T2
X12500Y64900
T3
X55500Y43000
X30000Y43000
X30000Y59000
X55500Y59000
T4
X17496Y6000
X30704Y6000
T5
X21400Y55440
X54260Y21000
X51720Y23540
X51720Y21000
X49180Y23540
X49180Y21000
X46640Y23540
X46640Y21000
X44100Y23540
X44100Y21000
X41560Y23540
X41560Y21000
X39020Y23540
X39020Y21000
X36480Y23540
X36480Y21000
X33940Y23540
X33940Y21000
X31400Y23540
X31400Y21000
X21400Y57980
X85500Y49560
X85500Y52100
X54260Y23540
X8080Y66900
X85500Y12700
X85500Y10160
X1330Y10320
X3870Y10320
X1330Y12860
X3870Y12860
X1330Y15400
X3870Y15400
X1330Y17940
X5540Y66900
X1330Y20480
X3870Y20480
X1330Y23020
X3870Y23020
X1330Y25560
X3870Y25560
X1330Y28100
X3870Y28100
X1330Y30640
X3870Y30640
X1330Y33180
X3870Y33180
X1330Y35720
X3870Y35720
X1330Y38260
X3870Y38260
X1330Y40800
X3870Y40800
X1330Y43340
X3870Y43340
X1330Y45880
X3870Y17940
X1330Y48420
X3870Y48420
X1330Y50960
X3870Y50960
X1330Y53500
X3870Y53500
X1330Y56040
X3870Y56040
X1330Y58580
X3870Y58580
X3870Y45880
X21400Y52900
X3000Y66900
X36200Y9100
X48300Y2800
X52300Y2800
X36200Y1500
X55400Y1620
X55400Y4160
X55400Y6700
X84000Y65900
X86540Y65900
T6
X59280Y39520
X74520Y36980
X74520Y14120
X59280Y1420
X66900Y47140
X74520Y3960
X74520Y1420
X74520Y6500
X64360Y47140
X61820Y47140
X69440Y47140
X71980Y47140
X74520Y34440
X59280Y34440
X59280Y3960
X59280Y6500
X59280Y9040
X59280Y11580
X59280Y14120
X59280Y16660
X59280Y19200
X59280Y21740
X59280Y24280
X59280Y26820
X59280Y29360
X59280Y31900
X71980Y3960
X74520Y31900
X74520Y29360
X74520Y26820
X74520Y24280
X74520Y21740
X74520Y19200
X74520Y16660
X74520Y11580
X74520Y9040
X59280Y36980
X59280Y42060
X59280Y44600
X59280Y47140
X59280Y49680
X59280Y52220
X59280Y54760
X59280Y57300
X59280Y59840
X74520Y39520
X74520Y42060
X74520Y44600
X74520Y47140
X74520Y49680
X74520Y52220
X74520Y54760
X74520Y57300
X74520Y59840
T7
X10000Y45080
X16800Y34920
X16800Y30080
X16800Y19920
X23300Y34920
X23300Y45080
X10000Y19920
X10000Y30080
X23300Y30080
X16800Y45080
X23300Y19920
X10000Y34920
T8
X3200Y49606
X24689Y41834
X67437Y45720
X42520Y38633
X84582Y54864
X42977Y19660
X46177Y33376
X57836Y4115
X11887Y55321
X12802Y44577
X12802Y55321
X16916Y40462
X37719Y7772
X12116Y30861
X27889Y37719
X68351Y5258
X65837Y7772
X84353Y1600
X26060Y48006
X43663Y48235
X5029Y29718
X22174Y18517
X44806Y29261
X68123Y49149
X12116Y40462
X26746Y37490
X42977Y45034
M30