G04 EAGLE Gerber RS-274X export*
G75*
%MOMM*%
%FSLAX34Y34*%
%LPD*%
%INSilkscreen Bottom*%
%IPPOS*%
%AMOC8*
5,1,8,0,0,1.08239X$1,22.5*%
G01*
%ADD10C,0.406400*%
%ADD11C,0.152400*%
%ADD12C,0.101600*%
%ADD13C,0.127000*%
%ADD14C,0.203200*%


D10*
X575000Y190000D02*
X575000Y320000D01*
X280000Y320000D01*
X280000Y190000D01*
X575000Y190000D01*
D11*
X475468Y412982D02*
X475468Y429252D01*
X475468Y412982D02*
X464621Y412982D01*
X459096Y429252D02*
X448249Y429252D01*
X459096Y429252D02*
X459096Y412982D01*
X448249Y412982D01*
X453673Y421117D02*
X459096Y421117D01*
X442724Y412982D02*
X442724Y429252D01*
X434589Y429252D01*
X431878Y426540D01*
X431878Y421117D01*
X434589Y418405D01*
X442724Y418405D01*
X420930Y412982D02*
X420930Y429252D01*
X426353Y429252D02*
X415506Y429252D01*
X407270Y429252D02*
X401846Y429252D01*
X407270Y429252D02*
X409981Y426540D01*
X409981Y415694D01*
X407270Y412982D01*
X401846Y412982D01*
X399135Y415694D01*
X399135Y426540D01*
X401846Y429252D01*
X393610Y429252D02*
X393610Y412982D01*
X382763Y412982D02*
X393610Y429252D01*
X382763Y429252D02*
X382763Y412982D01*
X503603Y62032D02*
X500891Y59320D01*
X503603Y62032D02*
X509026Y62032D01*
X511738Y59320D01*
X511738Y48474D01*
X509026Y45762D01*
X503603Y45762D01*
X500891Y48474D01*
X495366Y45762D02*
X495366Y62032D01*
X495366Y53897D02*
X484520Y53897D01*
X484520Y62032D02*
X484520Y45762D01*
X478995Y45762D02*
X478995Y56609D01*
X473572Y62032D01*
X468148Y56609D01*
X468148Y45762D01*
X468148Y53897D02*
X478995Y53897D01*
X462623Y45762D02*
X462623Y62032D01*
X454488Y62032D01*
X451777Y59320D01*
X451777Y53897D01*
X454488Y51185D01*
X462623Y51185D01*
X457200Y51185D02*
X451777Y45762D01*
X438117Y62032D02*
X435405Y59320D01*
X438117Y62032D02*
X443540Y62032D01*
X446252Y59320D01*
X446252Y48474D01*
X443540Y45762D01*
X438117Y45762D01*
X435405Y48474D01*
X435405Y53897D01*
X440828Y53897D01*
X429880Y62032D02*
X419034Y62032D01*
X429880Y62032D02*
X429880Y45762D01*
X419034Y45762D01*
X424457Y53897D02*
X429880Y53897D01*
X413509Y45762D02*
X413509Y62032D01*
X405374Y62032D01*
X402662Y59320D01*
X402662Y53897D01*
X405374Y51185D01*
X413509Y51185D01*
X408085Y51185D02*
X402662Y45762D01*
D10*
X280000Y320000D02*
X280000Y610000D01*
X575000Y610000D01*
X575000Y320000D01*
X229000Y514000D02*
X99000Y514000D01*
X99000Y595000D01*
X229000Y595000D01*
X229000Y514000D01*
D12*
X190992Y549508D02*
X190992Y561202D01*
X185145Y561202D01*
X183196Y559253D01*
X183196Y557304D01*
X185145Y555355D01*
X183196Y553406D01*
X183196Y551457D01*
X185145Y549508D01*
X190992Y549508D01*
X190992Y555355D02*
X185145Y555355D01*
X177349Y561202D02*
X173451Y561202D01*
X177349Y561202D02*
X179298Y559253D01*
X179298Y551457D01*
X177349Y549508D01*
X173451Y549508D01*
X171502Y551457D01*
X171502Y559253D01*
X173451Y561202D01*
X165655Y561202D02*
X161757Y561202D01*
X165655Y561202D02*
X167604Y559253D01*
X167604Y551457D01*
X165655Y549508D01*
X161757Y549508D01*
X159808Y551457D01*
X159808Y559253D01*
X161757Y561202D01*
X150063Y561202D02*
X148114Y559253D01*
X150063Y561202D02*
X153961Y561202D01*
X155910Y559253D01*
X155910Y557304D01*
X153961Y555355D01*
X150063Y555355D01*
X148114Y553406D01*
X148114Y551457D01*
X150063Y549508D01*
X153961Y549508D01*
X155910Y551457D01*
X140318Y549508D02*
X140318Y561202D01*
X144216Y561202D02*
X136420Y561202D01*
X132522Y561202D02*
X124726Y561202D01*
X132522Y561202D02*
X132522Y549508D01*
X124726Y549508D01*
X128624Y555355D02*
X132522Y555355D01*
X120828Y549508D02*
X120828Y561202D01*
X114981Y561202D01*
X113032Y559253D01*
X113032Y555355D01*
X114981Y553406D01*
X120828Y553406D01*
X116930Y553406D02*
X113032Y549508D01*
D10*
X568000Y103000D02*
X568000Y3000D01*
X568000Y103000D02*
X348000Y103000D01*
X348000Y3000D01*
X568000Y3000D01*
D12*
X881992Y9508D02*
X881992Y18500D01*
X877496Y18500D01*
X875998Y17001D01*
X875998Y14004D01*
X877496Y12505D01*
X881992Y12505D01*
X872784Y9508D02*
X872784Y18500D01*
X868288Y18500D01*
X866790Y17001D01*
X866790Y14004D01*
X868288Y12505D01*
X872784Y12505D01*
X869787Y12505D02*
X866790Y9508D01*
X862078Y18500D02*
X859081Y18500D01*
X862078Y18500D02*
X863576Y17001D01*
X863576Y11007D01*
X862078Y9508D01*
X859081Y9508D01*
X857582Y11007D01*
X857582Y17001D01*
X859081Y18500D01*
X849873Y18500D02*
X848374Y17001D01*
X849873Y18500D02*
X852870Y18500D01*
X854368Y17001D01*
X854368Y11007D01*
X852870Y9508D01*
X849873Y9508D01*
X848374Y11007D01*
X848374Y14004D01*
X851371Y14004D01*
X845161Y9508D02*
X845161Y18500D01*
X840665Y18500D01*
X839166Y17001D01*
X839166Y14004D01*
X840665Y12505D01*
X845161Y12505D01*
X842163Y12505D02*
X839166Y9508D01*
X835953Y9508D02*
X835953Y15502D01*
X832956Y18500D01*
X829958Y15502D01*
X829958Y9508D01*
X829958Y14004D02*
X835953Y14004D01*
X826745Y9508D02*
X826745Y18500D01*
X823748Y15502D01*
X820751Y18500D01*
X820751Y9508D01*
X268992Y131508D02*
X268992Y140500D01*
X264496Y140500D01*
X262998Y139001D01*
X262998Y137502D01*
X264496Y136004D01*
X262998Y134505D01*
X262998Y133007D01*
X264496Y131508D01*
X268992Y131508D01*
X268992Y136004D02*
X264496Y136004D01*
X259784Y137502D02*
X259784Y131508D01*
X259784Y137502D02*
X256787Y140500D01*
X253790Y137502D01*
X253790Y131508D01*
X253790Y136004D02*
X259784Y136004D01*
X247579Y131508D02*
X247579Y140500D01*
X250576Y140500D02*
X244582Y140500D01*
X238371Y140500D02*
X238371Y131508D01*
X241368Y140500D02*
X235374Y140500D01*
X232161Y140500D02*
X226166Y140500D01*
X232161Y140500D02*
X232161Y131508D01*
X226166Y131508D01*
X229163Y136004D02*
X232161Y136004D01*
X222953Y131508D02*
X222953Y140500D01*
X218457Y140500D01*
X216958Y139001D01*
X216958Y136004D01*
X218457Y134505D01*
X222953Y134505D01*
X219956Y134505D02*
X216958Y131508D01*
X213745Y139001D02*
X213745Y140500D01*
X213745Y139001D02*
X210748Y136004D01*
X207751Y139001D01*
X207751Y140500D01*
X210748Y136004D02*
X210748Y131508D01*
D11*
X663982Y99645D02*
X680252Y99645D01*
X674829Y105069D01*
X680252Y110492D01*
X663982Y110492D01*
X663982Y116017D02*
X663982Y121440D01*
X663982Y118729D02*
X680252Y118729D01*
X680252Y121440D02*
X680252Y116017D01*
X680252Y135066D02*
X677540Y137778D01*
X680252Y135066D02*
X680252Y129643D01*
X677540Y126931D01*
X666694Y126931D01*
X663982Y129643D01*
X663982Y135066D01*
X666694Y137778D01*
X663982Y143303D02*
X680252Y143303D01*
X680252Y151438D01*
X677540Y154149D01*
X672117Y154149D01*
X669405Y151438D01*
X669405Y143303D01*
X669405Y148726D02*
X663982Y154149D01*
X680252Y162386D02*
X680252Y167809D01*
X680252Y162386D02*
X677540Y159674D01*
X666694Y159674D01*
X663982Y162386D01*
X663982Y167809D01*
X666694Y170521D01*
X677540Y170521D01*
X680252Y167809D01*
X680252Y184181D02*
X677540Y186893D01*
X680252Y184181D02*
X680252Y178758D01*
X677540Y176046D01*
X666694Y176046D01*
X663982Y178758D01*
X663982Y184181D01*
X666694Y186893D01*
X680252Y195129D02*
X680252Y200552D01*
X680252Y195129D02*
X677540Y192418D01*
X666694Y192418D01*
X663982Y195129D01*
X663982Y200552D01*
X666694Y203264D01*
X677540Y203264D01*
X680252Y200552D01*
X680252Y208789D02*
X663982Y208789D01*
X663982Y219636D02*
X680252Y208789D01*
X680252Y219636D02*
X663982Y219636D01*
X663982Y230584D02*
X680252Y230584D01*
X680252Y225161D02*
X680252Y236007D01*
X680252Y241532D02*
X663982Y241532D01*
X680252Y241532D02*
X680252Y249667D01*
X677540Y252379D01*
X672117Y252379D01*
X669405Y249667D01*
X669405Y241532D01*
X669405Y246955D02*
X663982Y252379D01*
X680252Y260615D02*
X680252Y266039D01*
X680252Y260615D02*
X677540Y257904D01*
X666694Y257904D01*
X663982Y260615D01*
X663982Y266039D01*
X666694Y268750D01*
X677540Y268750D01*
X680252Y266039D01*
X680252Y274275D02*
X663982Y274275D01*
X663982Y285122D01*
X663982Y290647D02*
X680252Y290647D01*
X663982Y290647D02*
X663982Y301493D01*
X680252Y307018D02*
X680252Y317865D01*
X680252Y307018D02*
X663982Y307018D01*
X663982Y317865D01*
X672117Y312442D02*
X672117Y307018D01*
X663982Y323390D02*
X680252Y323390D01*
X680252Y331525D01*
X677540Y334237D01*
X672117Y334237D01*
X669405Y331525D01*
X669405Y323390D01*
X669405Y328813D02*
X663982Y334237D01*
X556726Y650982D02*
X556726Y667252D01*
X556726Y650982D02*
X548591Y650982D01*
X545880Y653694D01*
X545880Y664540D01*
X548591Y667252D01*
X556726Y667252D01*
X540355Y650982D02*
X534931Y650982D01*
X537643Y650982D02*
X537643Y667252D01*
X540355Y667252D02*
X534931Y667252D01*
X529440Y667252D02*
X529440Y664540D01*
X524017Y659117D01*
X518594Y664540D01*
X518594Y667252D01*
X524017Y659117D02*
X524017Y650982D01*
X513069Y659117D02*
X502222Y659117D01*
X491274Y650982D02*
X491274Y667252D01*
X496697Y667252D02*
X485851Y667252D01*
X480326Y667252D02*
X480326Y650982D01*
X480326Y659117D02*
X469479Y659117D01*
X469479Y667252D02*
X469479Y650982D01*
X463954Y667252D02*
X453108Y667252D01*
X463954Y667252D02*
X463954Y650982D01*
X453108Y650982D01*
X458531Y659117D02*
X463954Y659117D01*
X447583Y650982D02*
X447583Y667252D01*
X439448Y667252D01*
X436736Y664540D01*
X436736Y659117D01*
X439448Y656405D01*
X447583Y656405D01*
X442159Y656405D02*
X436736Y650982D01*
X431211Y650982D02*
X431211Y667252D01*
X425788Y661829D01*
X420364Y667252D01*
X420364Y650982D01*
X412128Y667252D02*
X406704Y667252D01*
X412128Y667252D02*
X414839Y664540D01*
X414839Y653694D01*
X412128Y650982D01*
X406704Y650982D01*
X403993Y653694D01*
X403993Y664540D01*
X406704Y667252D01*
X390333Y667252D02*
X387621Y664540D01*
X390333Y667252D02*
X395756Y667252D01*
X398468Y664540D01*
X398468Y653694D01*
X395756Y650982D01*
X390333Y650982D01*
X387621Y653694D01*
X382096Y650982D02*
X382096Y661829D01*
X376673Y667252D01*
X371250Y661829D01*
X371250Y650982D01*
X371250Y659117D02*
X382096Y659117D01*
X365725Y650982D02*
X365725Y667252D01*
X360301Y661829D01*
X354878Y667252D01*
X354878Y650982D01*
X332982Y656405D02*
X332982Y667252D01*
X332982Y656405D02*
X327558Y650982D01*
X322135Y656405D01*
X322135Y667252D01*
X316610Y664540D02*
X313898Y667252D01*
X308475Y667252D01*
X305763Y664540D01*
X305763Y661829D01*
X308475Y659117D01*
X311187Y659117D01*
X308475Y659117D02*
X305763Y656405D01*
X305763Y653694D01*
X308475Y650982D01*
X313898Y650982D01*
X316610Y653694D01*
D13*
X565829Y632463D02*
X565829Y625092D01*
X563372Y622635D01*
X560915Y625092D01*
X558458Y622635D01*
X556000Y625092D01*
X556000Y632463D01*
X551096Y632463D02*
X551096Y625092D01*
X548639Y622635D01*
X546182Y625092D01*
X543725Y622635D01*
X541268Y625092D01*
X541268Y632463D01*
X536364Y632463D02*
X536364Y625092D01*
X533907Y622635D01*
X531450Y625092D01*
X528992Y622635D01*
X526535Y625092D01*
X526535Y632463D01*
X521631Y625092D02*
X521631Y622635D01*
X521631Y625092D02*
X519174Y625092D01*
X519174Y622635D01*
X521631Y622635D01*
X504436Y622635D02*
X504436Y637378D01*
X504436Y622635D02*
X511808Y622635D01*
X514265Y625092D01*
X514265Y630006D01*
X511808Y632463D01*
X504436Y632463D01*
X499532Y632463D02*
X497075Y632463D01*
X497075Y622635D01*
X499532Y622635D02*
X494618Y622635D01*
X497075Y637378D02*
X497075Y639835D01*
X489711Y632463D02*
X489711Y625092D01*
X487253Y622635D01*
X479882Y622635D01*
X479882Y620178D02*
X479882Y632463D01*
X479882Y620178D02*
X482339Y617721D01*
X484796Y617721D01*
X474978Y630006D02*
X465150Y630006D01*
X457788Y634921D02*
X457788Y625092D01*
X455331Y622635D01*
X455331Y632463D02*
X460245Y632463D01*
X450424Y637378D02*
X450424Y622635D01*
X450424Y630006D02*
X447967Y632463D01*
X443052Y632463D01*
X440595Y630006D01*
X440595Y622635D01*
X433234Y622635D02*
X428320Y622635D01*
X433234Y622635D02*
X435691Y625092D01*
X435691Y630006D01*
X433234Y632463D01*
X428320Y632463D01*
X425863Y630006D01*
X425863Y627549D01*
X435691Y627549D01*
X420959Y622635D02*
X420959Y632463D01*
X420959Y627549D02*
X416044Y632463D01*
X413587Y632463D01*
X408681Y632463D02*
X408681Y622635D01*
X408681Y632463D02*
X406224Y632463D01*
X403767Y630006D01*
X403767Y622635D01*
X403767Y630006D02*
X401310Y632463D01*
X398853Y630006D01*
X398853Y622635D01*
X391492Y622635D02*
X386578Y622635D01*
X384121Y625092D01*
X384121Y630006D01*
X386578Y632463D01*
X391492Y632463D01*
X393949Y630006D01*
X393949Y625092D01*
X391492Y622635D01*
X376759Y632463D02*
X369388Y632463D01*
X376759Y632463D02*
X379216Y630006D01*
X379216Y625092D01*
X376759Y622635D01*
X369388Y622635D01*
X362027Y632463D02*
X357112Y632463D01*
X354655Y630006D01*
X354655Y622635D01*
X362027Y622635D01*
X364484Y625092D01*
X362027Y627549D01*
X354655Y627549D01*
X349751Y622635D02*
X349751Y632463D01*
X347294Y632463D01*
X344837Y630006D01*
X344837Y622635D01*
X344837Y630006D02*
X342380Y632463D01*
X339923Y630006D01*
X339923Y622635D01*
X335019Y622635D02*
X335019Y625092D01*
X332562Y625092D01*
X332562Y622635D01*
X335019Y622635D01*
X327652Y622635D02*
X327652Y632463D01*
X320281Y632463D01*
X317824Y630006D01*
X317824Y622635D01*
X310463Y622635D02*
X305549Y622635D01*
X310463Y622635D02*
X312920Y625092D01*
X312920Y630006D01*
X310463Y632463D01*
X305549Y632463D01*
X303091Y630006D01*
X303091Y627549D01*
X312920Y627549D01*
X295730Y625092D02*
X295730Y634921D01*
X295730Y625092D02*
X293273Y622635D01*
X293273Y632463D02*
X298187Y632463D01*
X98142Y25377D02*
X98142Y11635D01*
X98142Y25377D02*
X91271Y25377D01*
X88981Y23086D01*
X88981Y18506D01*
X91271Y16216D01*
X98142Y16216D01*
X93561Y16216D02*
X88981Y11635D01*
X84330Y25377D02*
X75169Y25377D01*
X84330Y25377D02*
X84330Y11635D01*
X75169Y11635D01*
X79749Y18506D02*
X84330Y18506D01*
X70518Y16216D02*
X70518Y25377D01*
X70518Y16216D02*
X65938Y11635D01*
X61357Y16216D01*
X61357Y25377D01*
X42895Y23086D02*
X40604Y25377D01*
X36024Y25377D01*
X33733Y23086D01*
X33733Y20796D01*
X36024Y18506D01*
X38314Y18506D01*
X36024Y18506D02*
X33733Y16216D01*
X33733Y13925D01*
X36024Y11635D01*
X40604Y11635D01*
X42895Y13925D01*
X29083Y13925D02*
X29083Y11635D01*
X29083Y13925D02*
X26793Y13925D01*
X26793Y11635D01*
X29083Y11635D01*
X22177Y13925D02*
X22177Y23086D01*
X19887Y25377D01*
X15306Y25377D01*
X13016Y23086D01*
X13016Y13925D01*
X15306Y11635D01*
X19887Y11635D01*
X22177Y13925D01*
X13016Y23086D01*
D11*
X6950Y90500D02*
X600Y96850D01*
X600Y109550D01*
X6950Y115900D01*
X600Y122250D01*
X600Y134950D01*
X6950Y141300D01*
X600Y147650D01*
X600Y160350D01*
X6950Y166700D01*
X600Y173050D01*
X600Y185750D01*
X6950Y192100D01*
X600Y198450D01*
X600Y211150D01*
X6950Y217500D01*
X600Y223850D01*
X600Y236550D01*
X6950Y242900D01*
X6950Y90500D02*
X45050Y90500D01*
X51400Y96850D01*
X51400Y109550D01*
X45050Y115900D01*
X51400Y122250D01*
X51400Y134950D01*
X45050Y141300D01*
X51400Y147650D01*
X51400Y160350D01*
X45050Y166700D01*
X51400Y173050D01*
X51400Y185750D01*
X45050Y192100D01*
X51400Y198450D01*
X51400Y211150D01*
X45050Y217500D01*
X51400Y223850D01*
X51400Y236550D01*
X45050Y242900D01*
X51400Y249250D01*
X51400Y261950D01*
X45050Y268300D01*
X51400Y274650D01*
X51400Y287350D01*
X45050Y293700D01*
X51400Y300050D01*
X51400Y312750D01*
X45050Y319100D01*
X51400Y325450D01*
X51400Y338150D01*
X45050Y344500D01*
X51400Y350850D01*
X51400Y363550D01*
X45050Y369900D01*
X51400Y376250D01*
X51400Y388950D01*
X45050Y395300D01*
X51400Y401650D01*
X51400Y414350D01*
X45050Y420700D01*
X51400Y427050D01*
X51400Y439750D01*
X45050Y446100D01*
X51400Y452450D01*
X51400Y465150D01*
X45050Y471500D01*
X51400Y477850D01*
X51400Y490550D01*
X45050Y496900D01*
X51400Y503250D01*
X51400Y515950D01*
X45050Y522300D01*
X51400Y528650D01*
X51400Y541350D01*
X45050Y547700D01*
X51400Y554050D01*
X51400Y566750D01*
X45050Y573100D01*
X6950Y573100D02*
X600Y566750D01*
X600Y554050D01*
X6950Y547700D01*
X600Y541350D01*
X600Y528650D01*
X6950Y522300D01*
X600Y515950D01*
X600Y503250D01*
X6950Y496900D01*
X600Y490550D01*
X600Y477850D01*
X6950Y471500D01*
X600Y465150D01*
X600Y452450D01*
X6950Y446100D01*
X600Y439750D01*
X600Y427050D01*
X6950Y420700D01*
X600Y414350D01*
X600Y401650D01*
X6950Y395300D01*
X600Y388950D01*
X600Y376250D01*
X6950Y369900D01*
X600Y363550D01*
X600Y350850D01*
X6950Y344500D01*
X600Y338150D01*
X600Y325450D01*
X6950Y319100D01*
X600Y312750D01*
X600Y300050D01*
X6950Y293700D01*
X600Y287350D01*
X600Y274650D01*
X6950Y268300D01*
X600Y261950D01*
X600Y249250D01*
X6950Y242900D01*
X6950Y115900D02*
X45050Y115900D01*
X45050Y141300D02*
X6950Y141300D01*
X6950Y166700D02*
X45050Y166700D01*
X45050Y192100D02*
X6950Y192100D01*
X6950Y217500D02*
X45050Y217500D01*
X45050Y242900D02*
X6950Y242900D01*
X6950Y268300D02*
X45050Y268300D01*
X45050Y293700D02*
X6950Y293700D01*
X6950Y319100D02*
X45050Y319100D01*
X45050Y344500D02*
X6950Y344500D01*
X6950Y369900D02*
X45050Y369900D01*
X45050Y395300D02*
X6950Y395300D01*
X6950Y420700D02*
X45050Y420700D01*
X45050Y446100D02*
X6950Y446100D01*
X6950Y471500D02*
X45050Y471500D01*
X45050Y496900D02*
X6950Y496900D01*
X6950Y522300D02*
X45050Y522300D01*
X45050Y547700D02*
X6950Y547700D01*
X6950Y573100D02*
X45050Y573100D01*
X51400Y579450D01*
X51400Y592150D01*
X45050Y598500D01*
X6950Y598500D02*
X600Y592150D01*
X600Y579450D01*
X6950Y573100D01*
X6950Y598500D02*
X45050Y598500D01*
D14*
X202900Y123500D02*
X177500Y98100D01*
X202900Y123500D02*
X279100Y123500D01*
X304500Y98100D01*
X304500Y85400D01*
X177500Y85400D02*
X177500Y98100D01*
X177500Y34600D02*
X177500Y19360D01*
X304500Y19360D02*
X304500Y34600D01*
X272750Y4120D02*
X272116Y4891D01*
X271464Y5646D01*
X270793Y6385D01*
X270105Y7107D01*
X269399Y7812D01*
X268676Y8500D01*
X267936Y9169D01*
X267180Y9820D01*
X266408Y10453D01*
X265621Y11066D01*
X264819Y11660D01*
X264003Y12234D01*
X263173Y12788D01*
X262330Y13322D01*
X261474Y13834D01*
X260605Y14326D01*
X259725Y14796D01*
X258834Y15244D01*
X257931Y15670D01*
X257019Y16074D01*
X256097Y16456D01*
X255166Y16815D01*
X254226Y17151D01*
X253279Y17463D01*
X252324Y17753D01*
X251362Y18019D01*
X250394Y18261D01*
X249421Y18479D01*
X248442Y18674D01*
X247459Y18844D01*
X246472Y18990D01*
X245481Y19113D01*
X244488Y19210D01*
X243493Y19284D01*
X242496Y19332D01*
X241499Y19357D01*
X240501Y19357D01*
X239504Y19332D01*
X238507Y19284D01*
X237512Y19210D01*
X236519Y19113D01*
X235528Y18990D01*
X234541Y18844D01*
X233558Y18674D01*
X232579Y18479D01*
X231606Y18261D01*
X230638Y18019D01*
X229676Y17753D01*
X228721Y17463D01*
X227774Y17151D01*
X226834Y16815D01*
X225903Y16456D01*
X224981Y16074D01*
X224069Y15670D01*
X223166Y15244D01*
X222275Y14796D01*
X221395Y14326D01*
X220526Y13834D01*
X219670Y13322D01*
X218827Y12788D01*
X217997Y12234D01*
X217181Y11660D01*
X216379Y11066D01*
X215592Y10453D01*
X214820Y9820D01*
X214064Y9169D01*
X213324Y8500D01*
X212601Y7812D01*
X211895Y7107D01*
X211207Y6385D01*
X210536Y5646D01*
X209884Y4891D01*
X209250Y4120D01*
X208851Y3836D01*
X208445Y3563D01*
X208032Y3300D01*
X207614Y3046D01*
X207189Y2804D01*
X206758Y2571D01*
X206321Y2349D01*
X205880Y2138D01*
X205433Y1938D01*
X204982Y1749D01*
X204526Y1571D01*
X204066Y1404D01*
X203602Y1249D01*
X203134Y1104D01*
X202663Y972D01*
X202188Y851D01*
X201711Y741D01*
X201232Y643D01*
X200750Y557D01*
X200266Y483D01*
X199781Y421D01*
X199294Y371D01*
X198806Y332D01*
X198317Y306D01*
X197828Y291D01*
X197338Y288D01*
X196849Y298D01*
X196360Y319D01*
X195872Y353D01*
X195384Y398D01*
X194898Y455D01*
X194413Y524D01*
X193931Y605D01*
X193450Y698D01*
X192972Y802D01*
X192496Y918D01*
X192024Y1046D01*
X191555Y1185D01*
X191089Y1336D01*
X190627Y1498D01*
X190169Y1671D01*
X189716Y1856D01*
X189267Y2051D01*
X188823Y2258D01*
X188385Y2475D01*
X187952Y2703D01*
X187524Y2941D01*
X187103Y3190D01*
X186687Y3449D01*
X186278Y3718D01*
X185876Y3997D01*
X185481Y4286D01*
X185093Y4584D01*
X184712Y4892D01*
X184339Y5209D01*
X183974Y5535D01*
X183617Y5870D01*
X183269Y6213D01*
X182929Y6565D01*
X182597Y6925D01*
X182275Y7294D01*
X181961Y7670D01*
X181657Y8053D01*
X181362Y8444D01*
X181077Y8842D01*
X180802Y9247D01*
X180537Y9658D01*
X180282Y10076D01*
X180037Y10500D01*
X179803Y10929D01*
X179579Y11365D01*
X179366Y11805D01*
X179164Y12251D01*
X178973Y12702D01*
X178793Y13157D01*
X178624Y13616D01*
X178466Y14080D01*
X178320Y14547D01*
X178185Y15017D01*
X178062Y15491D01*
X177950Y15968D01*
X177850Y16447D01*
X177762Y16928D01*
X177686Y17412D01*
X177621Y17897D01*
X177569Y18384D01*
X177528Y18871D01*
X177500Y19360D01*
X272750Y4120D02*
X273125Y3826D01*
X273508Y3541D01*
X273898Y3266D01*
X274294Y3000D01*
X274697Y2744D01*
X275105Y2498D01*
X275520Y2262D01*
X275940Y2036D01*
X276366Y1821D01*
X276796Y1616D01*
X277232Y1421D01*
X277672Y1238D01*
X278117Y1065D01*
X278566Y903D01*
X279018Y752D01*
X279474Y612D01*
X279934Y483D01*
X280396Y366D01*
X280861Y260D01*
X281329Y165D01*
X281798Y82D01*
X282270Y10D01*
X282743Y-50D01*
X283218Y-99D01*
X283694Y-136D01*
X284170Y-162D01*
X284647Y-175D01*
X285124Y-177D01*
X285601Y-168D01*
X286077Y-147D01*
X286553Y-114D01*
X287028Y-69D01*
X287502Y-13D01*
X287974Y54D01*
X288445Y133D01*
X288913Y224D01*
X289379Y326D01*
X289843Y439D01*
X290303Y564D01*
X290760Y700D01*
X291214Y847D01*
X291664Y1005D01*
X292111Y1174D01*
X292552Y1353D01*
X292990Y1544D01*
X293422Y1745D01*
X293850Y1957D01*
X294272Y2179D01*
X294689Y2411D01*
X295100Y2654D01*
X295505Y2906D01*
X295903Y3168D01*
X296295Y3440D01*
X296680Y3721D01*
X297059Y4012D01*
X297430Y4312D01*
X297793Y4621D01*
X298149Y4938D01*
X298497Y5264D01*
X298837Y5599D01*
X299169Y5942D01*
X299493Y6293D01*
X299807Y6651D01*
X300113Y7017D01*
X300410Y7391D01*
X300697Y7772D01*
X300975Y8159D01*
X301244Y8553D01*
X301503Y8954D01*
X301752Y9361D01*
X301991Y9774D01*
X302220Y10193D01*
X302438Y10617D01*
X302646Y11046D01*
X302844Y11480D01*
X303031Y11919D01*
X303207Y12362D01*
X303372Y12810D01*
X303527Y13261D01*
X303670Y13716D01*
X303802Y14175D01*
X303923Y14636D01*
X304032Y15101D01*
X304130Y15567D01*
X304217Y16037D01*
X304292Y16508D01*
X304356Y16980D01*
X304408Y17455D01*
X304448Y17930D01*
X304477Y18406D01*
X304494Y18883D01*
X304500Y19360D01*
X180000Y431500D02*
X156000Y431500D01*
X156000Y368500D01*
X180000Y368500D01*
X180000Y431500D01*
D12*
X172310Y391775D02*
X163318Y391775D01*
X167814Y387279D02*
X172310Y391775D01*
X167814Y393274D02*
X167814Y387279D01*
X163318Y396487D02*
X172310Y396487D01*
X166315Y396487D02*
X163318Y400983D01*
X166315Y396487D02*
X169312Y400983D01*
X172310Y404160D02*
X172310Y410155D01*
X170811Y410155D01*
X164817Y404160D01*
X163318Y404160D01*
D14*
X112000Y431500D02*
X88000Y431500D01*
X88000Y368500D01*
X112000Y368500D01*
X112000Y431500D01*
D12*
X104810Y388742D02*
X101812Y385744D01*
X104810Y388742D02*
X95818Y388742D01*
X95818Y391739D02*
X95818Y385744D01*
X97317Y394952D02*
X103311Y394952D01*
X104810Y396451D01*
X104810Y399448D01*
X103311Y400947D01*
X97317Y400947D01*
X95818Y399448D01*
X95818Y396451D01*
X97317Y394952D01*
X103311Y400947D01*
X104810Y404160D02*
X95818Y404160D01*
X98815Y404160D02*
X104810Y410155D01*
X100314Y405659D02*
X95818Y410155D01*
D14*
X221000Y218500D02*
X245000Y218500D01*
X245000Y281500D01*
X221000Y281500D01*
X221000Y218500D01*
D12*
X228698Y243144D02*
X237690Y243144D01*
X233194Y238648D01*
X233194Y244642D01*
X228698Y247856D02*
X237690Y247856D01*
X231695Y247856D02*
X228698Y252352D01*
X231695Y247856D02*
X234692Y252352D01*
X237690Y255529D02*
X237690Y261524D01*
X236191Y261524D01*
X230197Y255529D01*
X228698Y255529D01*
D14*
X112000Y281500D02*
X88000Y281500D01*
X88000Y218500D01*
X112000Y218500D01*
X112000Y281500D01*
D12*
X104500Y238882D02*
X101502Y235884D01*
X104500Y238882D02*
X95508Y238882D01*
X95508Y241879D02*
X95508Y235884D01*
X97007Y245092D02*
X103001Y245092D01*
X104500Y246591D01*
X104500Y249588D01*
X103001Y251087D01*
X97007Y251087D01*
X95508Y249588D01*
X95508Y246591D01*
X97007Y245092D01*
X103001Y251087D01*
X104500Y254300D02*
X95508Y254300D01*
X98505Y254300D02*
X104500Y260295D01*
X100004Y255799D02*
X95508Y260295D01*
D14*
X220350Y567100D02*
X226700Y573450D01*
X226700Y586150D01*
X220350Y592500D01*
X207650Y592500D02*
X201300Y586150D01*
X201300Y573450D01*
X207650Y567100D01*
X226700Y535350D02*
X226700Y522650D01*
X226700Y535350D02*
X220350Y541700D01*
X207650Y541700D02*
X201300Y535350D01*
X220350Y541700D02*
X226700Y548050D01*
X226700Y560750D01*
X220350Y567100D01*
X207650Y567100D02*
X201300Y560750D01*
X201300Y548050D01*
X207650Y541700D01*
X207650Y516300D02*
X220350Y516300D01*
X226700Y522650D01*
X207650Y516300D02*
X201300Y522650D01*
X201300Y535350D01*
X207650Y592500D02*
X220350Y592500D01*
X547650Y28900D02*
X541300Y22550D01*
X541300Y9850D01*
X547650Y3500D01*
X560350Y3500D02*
X566700Y9850D01*
X566700Y22550D01*
X560350Y28900D01*
X541300Y60650D02*
X541300Y73350D01*
X541300Y60650D02*
X547650Y54300D01*
X560350Y54300D02*
X566700Y60650D01*
X547650Y54300D02*
X541300Y47950D01*
X541300Y35250D01*
X547650Y28900D01*
X560350Y28900D02*
X566700Y35250D01*
X566700Y47950D01*
X560350Y54300D01*
X560350Y79700D02*
X547650Y79700D01*
X541300Y73350D01*
X560350Y79700D02*
X566700Y73350D01*
X566700Y60650D01*
X560350Y3500D02*
X547650Y3500D01*
X355650Y27700D02*
X349300Y21350D01*
X355650Y27700D02*
X368350Y27700D01*
X374700Y21350D01*
X374700Y8650D01*
X368350Y2300D01*
X355650Y2300D01*
X349300Y8650D01*
X349300Y21350D01*
X510300Y34350D02*
X516650Y40700D01*
X529350Y40700D01*
X535700Y34350D01*
X535700Y21650D01*
X529350Y15300D01*
X516650Y15300D01*
X510300Y21650D01*
X510300Y34350D01*
X476650Y40700D02*
X470300Y34350D01*
X476650Y40700D02*
X489350Y40700D01*
X495700Y34350D01*
X495700Y21650D01*
X489350Y15300D01*
X476650Y15300D01*
X470300Y21650D01*
X470300Y34350D01*
X355650Y103700D02*
X349300Y97350D01*
X355650Y103700D02*
X368350Y103700D01*
X374700Y97350D01*
X374700Y84650D01*
X368350Y78300D01*
X355650Y78300D01*
X349300Y84650D01*
X349300Y97350D01*
D11*
X839030Y27840D02*
X866970Y27840D01*
X839030Y48160D02*
X838930Y48158D01*
X838831Y48152D01*
X838731Y48142D01*
X838633Y48129D01*
X838534Y48111D01*
X838437Y48090D01*
X838341Y48065D01*
X838245Y48036D01*
X838151Y48003D01*
X838058Y47967D01*
X837967Y47927D01*
X837877Y47883D01*
X837789Y47836D01*
X837703Y47786D01*
X837619Y47732D01*
X837537Y47675D01*
X837458Y47615D01*
X837380Y47551D01*
X837306Y47485D01*
X837234Y47416D01*
X837165Y47344D01*
X837099Y47270D01*
X837035Y47192D01*
X836975Y47113D01*
X836918Y47031D01*
X836864Y46947D01*
X836814Y46861D01*
X836767Y46773D01*
X836723Y46683D01*
X836683Y46592D01*
X836647Y46499D01*
X836614Y46405D01*
X836585Y46309D01*
X836560Y46213D01*
X836539Y46116D01*
X836521Y46017D01*
X836508Y45919D01*
X836498Y45819D01*
X836492Y45720D01*
X836490Y45620D01*
X866970Y48160D02*
X867070Y48158D01*
X867169Y48152D01*
X867269Y48142D01*
X867367Y48129D01*
X867466Y48111D01*
X867563Y48090D01*
X867659Y48065D01*
X867755Y48036D01*
X867849Y48003D01*
X867942Y47967D01*
X868033Y47927D01*
X868123Y47883D01*
X868211Y47836D01*
X868297Y47786D01*
X868381Y47732D01*
X868463Y47675D01*
X868542Y47615D01*
X868620Y47551D01*
X868694Y47485D01*
X868766Y47416D01*
X868835Y47344D01*
X868901Y47270D01*
X868965Y47192D01*
X869025Y47113D01*
X869082Y47031D01*
X869136Y46947D01*
X869186Y46861D01*
X869233Y46773D01*
X869277Y46683D01*
X869317Y46592D01*
X869353Y46499D01*
X869386Y46405D01*
X869415Y46309D01*
X869440Y46213D01*
X869461Y46116D01*
X869479Y46017D01*
X869492Y45919D01*
X869502Y45819D01*
X869508Y45720D01*
X869510Y45620D01*
X869510Y30380D02*
X869508Y30280D01*
X869502Y30181D01*
X869492Y30081D01*
X869479Y29983D01*
X869461Y29884D01*
X869440Y29787D01*
X869415Y29691D01*
X869386Y29595D01*
X869353Y29501D01*
X869317Y29408D01*
X869277Y29317D01*
X869233Y29227D01*
X869186Y29139D01*
X869136Y29053D01*
X869082Y28969D01*
X869025Y28887D01*
X868965Y28808D01*
X868901Y28730D01*
X868835Y28656D01*
X868766Y28584D01*
X868694Y28515D01*
X868620Y28449D01*
X868542Y28385D01*
X868463Y28325D01*
X868381Y28268D01*
X868297Y28214D01*
X868211Y28164D01*
X868123Y28117D01*
X868033Y28073D01*
X867942Y28033D01*
X867849Y27997D01*
X867755Y27964D01*
X867659Y27935D01*
X867563Y27910D01*
X867466Y27889D01*
X867367Y27871D01*
X867269Y27858D01*
X867169Y27848D01*
X867070Y27842D01*
X866970Y27840D01*
X839030Y27840D02*
X838930Y27842D01*
X838831Y27848D01*
X838731Y27858D01*
X838633Y27871D01*
X838534Y27889D01*
X838437Y27910D01*
X838341Y27935D01*
X838245Y27964D01*
X838151Y27997D01*
X838058Y28033D01*
X837967Y28073D01*
X837877Y28117D01*
X837789Y28164D01*
X837703Y28214D01*
X837619Y28268D01*
X837537Y28325D01*
X837458Y28385D01*
X837380Y28449D01*
X837306Y28515D01*
X837234Y28584D01*
X837165Y28656D01*
X837099Y28730D01*
X837035Y28808D01*
X836975Y28887D01*
X836918Y28969D01*
X836864Y29053D01*
X836814Y29139D01*
X836767Y29227D01*
X836723Y29317D01*
X836683Y29408D01*
X836647Y29501D01*
X836614Y29595D01*
X836585Y29691D01*
X836560Y29787D01*
X836539Y29884D01*
X836521Y29983D01*
X836508Y30081D01*
X836498Y30181D01*
X836492Y30280D01*
X836490Y30380D01*
X836490Y45620D01*
X869510Y45620D02*
X869510Y30380D01*
X866970Y48160D02*
X839030Y48160D01*
D14*
X180000Y281500D02*
X156000Y281500D01*
X156000Y218500D01*
X180000Y218500D01*
X180000Y281500D01*
D12*
X172310Y242775D02*
X163318Y242775D01*
X167814Y238279D02*
X172310Y242775D01*
X167814Y244274D02*
X167814Y238279D01*
X163318Y247487D02*
X172310Y247487D01*
X166315Y247487D02*
X163318Y251983D01*
X166315Y247487D02*
X169312Y251983D01*
X172310Y255160D02*
X172310Y261155D01*
X170811Y261155D01*
X164817Y255160D01*
X163318Y255160D01*
D14*
X221000Y368500D02*
X245000Y368500D01*
X245000Y431500D01*
X221000Y431500D01*
X221000Y368500D01*
D12*
X228698Y393144D02*
X237690Y393144D01*
X233194Y388648D01*
X233194Y394642D01*
X228698Y397856D02*
X237690Y397856D01*
X231695Y397856D02*
X228698Y402352D01*
X231695Y397856D02*
X234692Y402352D01*
X237690Y405529D02*
X237690Y411524D01*
X236191Y411524D01*
X230197Y405529D01*
X228698Y405529D01*
D13*
X580100Y1500D02*
X757900Y1500D01*
X580100Y1500D02*
X580100Y611100D01*
X757900Y611100D01*
X757900Y1500D01*
X707100Y-11200D02*
X630900Y-11200D01*
X630900Y45950D01*
X707100Y45950D01*
X707100Y-11200D01*
X732500Y484100D02*
X732500Y611100D01*
X732500Y484100D02*
X605500Y484100D01*
X605500Y611100D01*
X618200Y611100D01*
X719800Y611100D01*
X719800Y598400D01*
X618200Y598400D01*
X618200Y611100D01*
M02*
