G04 EAGLE Gerber RS-274X export*
G75*
%MOMM*%
%FSLAX34Y34*%
%LPD*%
%INSilkscreen Top*%
%IPPOS*%
%AMOC8*
5,1,8,0,0,1.08239X$1,22.5*%
G01*
%ADD10C,0.101600*%
%ADD11C,0.203200*%


D10*
X4508Y664508D02*
X4508Y673500D01*
X9004Y673500D01*
X10502Y672001D01*
X10502Y669004D01*
X9004Y667505D01*
X4508Y667505D01*
X7505Y667505D02*
X10502Y664508D01*
X103004Y673500D02*
X104502Y672001D01*
X103004Y673500D02*
X100007Y673500D01*
X98508Y672001D01*
X98508Y666007D01*
X100007Y664508D01*
X103004Y664508D01*
X104502Y666007D01*
X104502Y669004D01*
X101505Y669004D01*
X800500Y491746D02*
X809492Y491746D01*
X809492Y497740D01*
X809492Y500954D02*
X809492Y503951D01*
X809492Y502452D02*
X800500Y502452D01*
X800500Y500954D02*
X800500Y503951D01*
X800500Y507092D02*
X809492Y507092D01*
X800500Y507092D02*
X800500Y511588D01*
X801999Y513087D01*
X804996Y513087D01*
X806495Y511588D01*
X806495Y507092D01*
X800500Y517799D02*
X800500Y520796D01*
X800500Y517799D02*
X801999Y516300D01*
X807993Y516300D01*
X809492Y517799D01*
X809492Y520796D01*
X807993Y522295D01*
X801999Y522295D01*
X800500Y520796D01*
X827996Y519300D02*
X827996Y525295D01*
X824999Y522297D02*
X830993Y522297D01*
X827996Y499295D02*
X827996Y493300D01*
D11*
X867700Y133350D02*
X867700Y120650D01*
X861350Y114300D01*
X848650Y114300D02*
X842300Y120650D01*
X861350Y114300D02*
X867700Y107950D01*
X867700Y95250D01*
X861350Y88900D01*
X848650Y88900D02*
X842300Y95250D01*
X842300Y107950D01*
X848650Y114300D01*
X848650Y139700D02*
X861350Y139700D01*
X867700Y133350D01*
X848650Y139700D02*
X842300Y133350D01*
X842300Y120650D01*
X848650Y88900D02*
X861350Y88900D01*
D10*
X801999Y93787D02*
X800500Y92288D01*
X800500Y89291D01*
X801999Y87792D01*
X803498Y87792D01*
X804996Y89291D01*
X804996Y92288D01*
X806495Y93787D01*
X807993Y93787D01*
X809492Y92288D01*
X809492Y89291D01*
X807993Y87792D01*
X809492Y97000D02*
X800500Y97000D01*
X806495Y99997D02*
X809492Y97000D01*
X806495Y99997D02*
X809492Y102994D01*
X800500Y102994D01*
X809492Y106208D02*
X809492Y109205D01*
X809492Y107706D02*
X800500Y107706D01*
X800500Y106208D02*
X800500Y109205D01*
X800500Y115344D02*
X809492Y115344D01*
X800500Y112346D02*
X800500Y118341D01*
X800500Y126050D02*
X801999Y127549D01*
X800500Y126050D02*
X800500Y123053D01*
X801999Y121554D01*
X807993Y121554D01*
X809492Y123053D01*
X809492Y126050D01*
X807993Y127549D01*
X809492Y130762D02*
X800500Y130762D01*
X804996Y130762D02*
X804996Y136756D01*
X800500Y136756D02*
X809492Y136756D01*
D11*
X833650Y671700D02*
X846350Y671700D01*
X852700Y665350D01*
X852700Y652650D02*
X846350Y646300D01*
X852700Y665350D02*
X859050Y671700D01*
X871750Y671700D01*
X878100Y665350D01*
X878100Y652650D02*
X871750Y646300D01*
X859050Y646300D01*
X852700Y652650D01*
X827300Y652650D02*
X827300Y665350D01*
X833650Y671700D01*
X827300Y652650D02*
X833650Y646300D01*
X846350Y646300D01*
X878100Y652650D02*
X878100Y665350D01*
D10*
X826799Y634788D02*
X826799Y625796D01*
X826799Y634788D02*
X831295Y634788D01*
X832793Y633289D01*
X832793Y631790D01*
X831295Y630292D01*
X832793Y628793D01*
X832793Y627295D01*
X831295Y625796D01*
X826799Y625796D01*
X826799Y630292D02*
X831295Y630292D01*
X836007Y627295D02*
X836007Y634788D01*
X836007Y627295D02*
X837505Y625796D01*
X840502Y625796D01*
X842001Y627295D01*
X842001Y634788D01*
X848212Y634788D02*
X848212Y625796D01*
X845214Y634788D02*
X851209Y634788D01*
X857420Y634788D02*
X857420Y625796D01*
X854422Y634788D02*
X860417Y634788D01*
X865129Y634788D02*
X868126Y634788D01*
X865129Y634788D02*
X863630Y633289D01*
X863630Y627295D01*
X865129Y625796D01*
X868126Y625796D01*
X869625Y627295D01*
X869625Y633289D01*
X868126Y634788D01*
X872838Y634788D02*
X872838Y625796D01*
X878832Y625796D02*
X872838Y634788D01*
X878832Y634788D02*
X878832Y625796D01*
D11*
X74450Y681700D02*
X68100Y675350D01*
X74450Y681700D02*
X87150Y681700D01*
X93500Y675350D01*
X93500Y662650D02*
X87150Y656300D01*
X74450Y656300D01*
X68100Y662650D01*
X36350Y681700D02*
X23650Y681700D01*
X36350Y681700D02*
X42700Y675350D01*
X42700Y662650D02*
X36350Y656300D01*
X42700Y675350D02*
X49050Y681700D01*
X61750Y681700D01*
X68100Y675350D01*
X68100Y662650D02*
X61750Y656300D01*
X49050Y656300D01*
X42700Y662650D01*
X17300Y662650D02*
X17300Y675350D01*
X23650Y681700D01*
X17300Y662650D02*
X23650Y656300D01*
X36350Y656300D01*
X93500Y662650D02*
X93500Y675350D01*
D10*
X31040Y644289D02*
X29542Y645788D01*
X26545Y645788D01*
X25046Y644289D01*
X25046Y638295D01*
X26545Y636796D01*
X29542Y636796D01*
X31040Y638295D01*
X34254Y636796D02*
X34254Y645788D01*
X34254Y641292D02*
X40248Y641292D01*
X40248Y645788D02*
X40248Y636796D01*
X47958Y645788D02*
X49456Y644289D01*
X47958Y645788D02*
X44960Y645788D01*
X43462Y644289D01*
X43462Y638295D01*
X44960Y636796D01*
X47958Y636796D01*
X49456Y638295D01*
X49456Y641292D01*
X46459Y641292D01*
X52670Y641292D02*
X58664Y641292D01*
X61877Y645788D02*
X61877Y636796D01*
X67872Y636796D01*
X71085Y645788D02*
X77080Y645788D01*
X71085Y645788D02*
X71085Y636796D01*
X77080Y636796D01*
X74082Y641292D02*
X71085Y641292D01*
X80293Y645788D02*
X80293Y636796D01*
X84789Y636796D01*
X86288Y638295D01*
X86288Y644289D01*
X84789Y645788D01*
X80293Y645788D01*
D11*
X867700Y527350D02*
X867700Y514650D01*
X861350Y508300D01*
X848650Y508300D02*
X842300Y514650D01*
X861350Y508300D02*
X867700Y501950D01*
X867700Y489250D01*
X861350Y482900D01*
X848650Y482900D02*
X842300Y489250D01*
X842300Y501950D01*
X848650Y508300D01*
X848650Y533700D02*
X861350Y533700D01*
X867700Y527350D01*
X848650Y533700D02*
X842300Y527350D01*
X842300Y514650D01*
X848650Y482900D02*
X861350Y482900D01*
M02*
