solid Case 2.3_left
facet normal -0.0 1.0 -0.0
  outer loop
    vertex 2.999999999999996 77.9 19.349999999999998
    vertex 5.9999999999999964 77.9 7.35
    vertex 2.9999999999999973 77.9 7.35
  endloop
endfacet
facet normal -0.0 1.0 -0.0
  outer loop
    vertex 5.9999999999999964 77.9 7.35
    vertex 2.999999999999996 77.9 19.349999999999998
    vertex 5.9999999999999964 77.9 19.349999999999998
  endloop
endfacet
facet normal -0.0 -0.0 1.0
  outer loop
    vertex 2.9999999999999996 51.675000000000026 31.199999552277085
    vertex 6.0 63.675000000000026 31.199999552277085
    vertex 2.9999999999999982 63.675000000000026 31.199999552277085
  endloop
endfacet
facet normal -0.0 -0.0 1.0
  outer loop
    vertex 6.0 63.675000000000026 31.199999552277085
    vertex 2.9999999999999996 51.675000000000026 31.199999552277085
    vertex 5.999999999999998 51.675000000000026 31.199999552277085
  endloop
endfacet
facet normal -0.0 -0.0 1.0
  outer loop
    vertex 3.000000000000002 17.22500000000002 31.199999552277085
    vertex 5.9999999999999964 29.225000000000026 31.199999552277085
    vertex 3.0000000000000013 29.22500000000002 31.199999552277085
  endloop
endfacet
facet normal -0.0 -0.0 1.0
  outer loop
    vertex 5.9999999999999964 29.225000000000026 31.199999552277085
    vertex 3.000000000000002 17.22500000000002 31.199999552277085
    vertex 5.999999999999996 17.22500000000002 31.199999552277085
  endloop
endfacet
facet normal 0.0 -1.0 0.0
  outer loop
    vertex 6.0 3.000000000000003 17.649999999999995
    vertex 3.0 3.000000000000003 7.35
    vertex 6.0 3.000000000000003 7.35
  endloop
endfacet
facet normal 0.0 -1.0 0.0
  outer loop
    vertex 3.0 3.000000000000003 7.35
    vertex 6.0 3.000000000000003 17.649999999999995
    vertex 3.0 3.000000000000003 19.349999999999998
  endloop
endfacet
facet normal 0.0 -1.0 0.0
  outer loop
    vertex 3.0 3.000000000000003 19.349999999999998
    vertex 6.0 3.000000000000003 17.649999999999995
    vertex 6.0 3.000000000000003 19.349999999999998
  endloop
endfacet
facet normal -0.0 1.0 -0.0
  outer loop
    vertex 3.000000000000001 17.22500000000002 28.199999999999992
    vertex 5.999999999999996 17.22500000000002 31.199999552277085
    vertex 5.999999999999996 17.22500000000002 28.199999552277085
  endloop
endfacet
facet normal -0.0 1.0 -0.0
  outer loop
    vertex 5.999999999999996 17.22500000000002 31.199999552277085
    vertex 3.000000000000001 17.22500000000002 28.199999999999992
    vertex 3.000000000000002 17.22500000000002 31.199999552277085
  endloop
endfacet
facet normal 1.879977655031934e-15 -1.0 -3.184564751439857e-31
  outer loop
    vertex 5.9999999999999964 29.225000000000026 31.199999552277085
    vertex 3.0 29.22500000000002 28.199999999999992
    vertex 5.9999999999999964 29.225000000000026 28.199999552277085
  endloop
endfacet
facet normal 1.879977655031934e-15 -1.0 -3.184564751439857e-31
  outer loop
    vertex 3.0 29.22500000000002 28.199999999999992
    vertex 5.9999999999999964 29.225000000000026 31.199999552277085
    vertex 3.0000000000000013 29.22500000000002 31.199999552277085
  endloop
endfacet
facet normal 3.759955590633553e-15 1.0 3.759955310063821e-15
  outer loop
    vertex 2.9999999999999987 51.67500000000005 28.199999999999992
    vertex 5.999999999999998 51.675000000000026 31.199999552277085
    vertex 5.999999999999998 51.675000000000026 28.199999552277085
  endloop
endfacet
facet normal 3.759955590633553e-15 1.0 3.759955310063821e-15
  outer loop
    vertex 5.999999999999998 51.675000000000026 31.199999552277085
    vertex 2.9999999999999987 51.67500000000005 28.199999999999992
    vertex 2.9999999999999996 51.675000000000026 31.199999552277085
  endloop
endfacet
facet normal -1.4924096959726617e-07 7.839525786488477e-25 -0.9999999999999889
  outer loop
    vertex 5.999999999999998 51.675000000000026 28.199999552277085
    vertex 3.0 29.22500000000002 28.199999999999992
    vertex 2.9999999999999987 51.67500000000005 28.199999999999992
  endloop
endfacet
facet normal -1.4924096959726617e-07 7.839525786488477e-25 -0.9999999999999889
  outer loop
    vertex 3.0 29.22500000000002 28.199999999999992
    vertex 5.999999999999998 51.675000000000026 28.199999552277085
    vertex 5.9999999999999964 29.225000000000026 28.199999552277085
  endloop
endfacet
facet normal 0.0 -1.0 0.0
  outer loop
    vertex 6.0 6.000000000000003 28.199999999999992
    vertex 3.0 6.000000000000003 19.349999999999998
    vertex 6.0 6.000000000000003 19.349999999999998
  endloop
endfacet
facet normal 0.0 -1.0 0.0
  outer loop
    vertex 3.0 6.000000000000003 19.349999999999998
    vertex 6.0 6.000000000000003 28.199999999999992
    vertex 3.0 6.000000000000003 28.199999999999992
  endloop
endfacet
facet normal -0.0 -0.0 1.0
  outer loop
    vertex 6.0 3.000000000000003 19.349999999999998
    vertex 3.0 6.000000000000003 19.349999999999998
    vertex 3.0 3.000000000000003 19.349999999999998
  endloop
endfacet
facet normal -0.0 -0.0 1.0
  outer loop
    vertex 3.0 6.000000000000003 19.349999999999998
    vertex 6.0 3.000000000000003 19.349999999999998
    vertex 6.0 6.000000000000003 19.349999999999998
  endloop
endfacet
facet normal -2.349972068789914e-16 -1.0 -7.540017333015767e-17
  outer loop
    vertex 6.0 6.000000000000002 7.35
    vertex 2.9999999999999996 6.000000000000003 -2.000000000000001
    vertex 6.0 6.000000000000002 -2.000000000000001
  endloop
endfacet
facet normal -2.349972068789914e-16 -1.0 -7.540017333015767e-17
  outer loop
    vertex 2.9999999999999996 6.000000000000003 -2.000000000000001
    vertex 6.0 6.000000000000002 7.35
    vertex 3.0 6.000000000000002 7.35
  endloop
endfacet
facet normal 0.0 0.0 -1.0
  outer loop
    vertex 6.0 6.000000000000002 7.35
    vertex 3.0 3.000000000000003 7.35
    vertex 3.0 6.000000000000002 7.35
  endloop
endfacet
facet normal 0.0 0.0 -1.0
  outer loop
    vertex 3.0 3.000000000000003 7.35
    vertex 6.0 6.000000000000002 7.35
    vertex 6.0 3.000000000000003 7.35
  endloop
endfacet
facet normal -4.699944137579827e-16 -1.0 -1.1679671029659265e-46
  outer loop
    vertex 6.0 6.000000000000002 -2.000000000000001
    vertex 2.9999999999999996 6.000000000000003 -3.000000000000001
    vertex 6.0 6.000000000000002 -3.000000000000001
  endloop
endfacet
facet normal -4.699944137579827e-16 -1.0 -1.1679671029659265e-46
  outer loop
    vertex 2.9999999999999996 6.000000000000003 -3.000000000000001
    vertex 6.0 6.000000000000002 -2.000000000000001
    vertex 2.9999999999999996 6.000000000000003 -2.000000000000001
  endloop
endfacet
facet normal 7.462048479863367e-08 1.9943113977363103e-08 0.9999999999999971
  outer loop
    vertex 6.0 6.000000000000003 28.199999999999992
    vertex 3.000000000000001 17.22500000000002 28.199999999999992
    vertex 3.0 6.000000000000003 28.199999999999992
  endloop
endfacet
facet normal 7.462048479863367e-08 1.9943113977363103e-08 0.9999999999999971
  outer loop
    vertex 3.000000000000001 17.22500000000002 28.199999999999992
    vertex 6.0 6.000000000000003 28.199999999999992
    vertex 5.999999999999996 17.22500000000002 28.199999552277085
  endloop
endfacet
facet normal -0.0 -0.0 1.0
  outer loop
    vertex 2.9999999999999964 74.9 19.349999999999998
    vertex 5.9999999999999964 77.9 19.349999999999998
    vertex 2.999999999999996 77.9 19.349999999999998
  endloop
endfacet
facet normal -0.0 -0.0 1.0
  outer loop
    vertex 5.9999999999999964 77.9 19.349999999999998
    vertex 2.9999999999999964 74.9 19.349999999999998
    vertex 5.9999999999999964 74.89999999999999 19.349999999999998
  endloop
endfacet
facet normal -0.0009315721745994536 0.9999995162253341 -0.00031578850749100046
  outer loop
    vertex 2.999999999999996 74.9 28.199999999999992
    vertex 5.9999999999999964 74.89999999999999 19.349999999999998
    vertex 2.9999999999999964 74.9 19.349999999999998
  endloop
endfacet
facet normal -0.0009315721745994536 0.9999995162253341 -0.00031578850749100046
  outer loop
    vertex 5.9999999999999964 74.89999999999999 19.349999999999998
    vertex 2.999999999999996 74.9 28.199999999999992
    vertex 5.999974660113189 74.90558943568068 28.199999774654792
  endloop
endfacet
facet normal 0.0 0.0 -1.0
  outer loop
    vertex 5.9999999999999964 77.9 7.35
    vertex 2.9999999999999973 74.9 7.35
    vertex 2.9999999999999973 77.9 7.35
  endloop
endfacet
facet normal 0.0 0.0 -1.0
  outer loop
    vertex 2.9999999999999973 74.9 7.35
    vertex 5.9999999999999964 77.9 7.35
    vertex 5.999999999999997 74.9 7.35
  endloop
endfacet
facet normal 4.296378724876482e-22 0.9999999874756033 -0.00015826810626964164
  outer loop
    vertex 2.9999999999999973 74.9 7.35
    vertex 6.000000000000004 74.89836415991135 -2.9858794562342776
    vertex 2.9999999999999982 74.89836415991135 -2.9858794562342776
  endloop
endfacet
facet normal 4.296378724876482e-22 0.9999999874756033 -0.00015826810626964164
  outer loop
    vertex 6.000000000000004 74.89836415991135 -2.9858794562342776
    vertex 2.9999999999999973 74.9 7.35
    vertex 5.999999999999997 74.9 7.35
  endloop
endfacet
facet normal 0.0 -1.0 0.0
  outer loop
    vertex 6.0 63.675000000000026 31.199999552277085
    vertex 2.999999999999998 63.675000000000026 28.199999999999992
    vertex 6.0 63.675000000000026 28.199999552277085
  endloop
endfacet
facet normal 0.0 -1.0 0.0
  outer loop
    vertex 2.999999999999998 63.675000000000026 28.199999999999992
    vertex 6.0 63.675000000000026 31.199999552277085
    vertex 2.9999999999999982 63.675000000000026 31.199999552277085
  endloop
endfacet
facet normal 1.1218787631415409e-07 -9.905337920790143e-09 0.9999999999999938
  outer loop
    vertex 2.999999999999998 63.675000000000026 28.199999999999992
    vertex 5.999974660113189 74.90558943568068 28.199999774654792
    vertex 2.999999999999996 74.9 28.199999999999992
  endloop
endfacet
facet normal 1.1218787631415409e-07 -9.905337920790143e-09 0.9999999999999938
  outer loop
    vertex 5.999974660113189 74.90558943568068 28.199999774654792
    vertex 2.999999999999998 63.675000000000026 28.199999999999992
    vertex 6.0 63.675000000000026 28.199999552277085
  endloop
endfacet
facet normal -0.9999999999999973 -4.004539510015353e-08 -6.20805897394229e-08
  outer loop
    vertex 6.0 63.675000000000026 31.199999552277085
    vertex 5.999999999999998 51.675000000000026 28.199999552277085
    vertex 5.999999999999998 51.675000000000026 31.199999552277085
  endloop
endfacet
facet normal -0.9999999999999973 -4.004539510015353e-08 -6.20805897394229e-08
  outer loop
    vertex 5.999999999999998 51.675000000000026 28.199999552277085
    vertex 6.0 63.675000000000026 31.199999552277085
    vertex 5.999999999999997 63.675000000000004 -3.0
  endloop
endfacet
facet normal -0.9999999999999973 -4.004539510015353e-08 -6.20805897394229e-08
  outer loop
    vertex 5.999999999999997 63.675000000000004 -3.0
    vertex 6.0 63.675000000000026 31.199999552277085
    vertex 6.0 63.675000000000026 28.199999552277085
  endloop
endfacet
facet normal -0.9999999999999973 -4.004539510015353e-08 -6.20805897394229e-08
  outer loop
    vertex 5.999999999999997 63.675000000000004 -3.0
    vertex 6.0 63.675000000000026 28.199999552277085
    vertex 6.000000000000004 74.89836415991135 -2.9858794562342776
  endloop
endfacet
facet normal -0.9999999999999973 -4.004539510015353e-08 -6.20805897394229e-08
  outer loop
    vertex 6.000000000000004 74.89836415991135 -2.9858794562342776
    vertex 6.0 63.675000000000026 28.199999552277085
    vertex 5.9999999999999964 74.89999999999999 19.349999999999998
  endloop
endfacet
facet normal -0.9999999999999973 -4.004539510015353e-08 -6.20805897394229e-08
  outer loop
    vertex 5.9999999999999964 74.89999999999999 19.349999999999998
    vertex 6.0 63.675000000000026 28.199999552277085
    vertex 5.999974660113189 74.90558943568068 28.199999774654792
  endloop
endfacet
facet normal -0.9999999999999973 -4.004539510015353e-08 -6.20805897394229e-08
  outer loop
    vertex 5.9999999999999964 74.89999999999999 19.349999999999998
    vertex 5.999999999999997 74.9 7.35
    vertex 6.000000000000004 74.89836415991135 -2.9858794562342776
  endloop
endfacet
facet normal -0.9999999999999973 -4.004539510015353e-08 -6.20805897394229e-08
  outer loop
    vertex 5.999999999999997 74.9 7.35
    vertex 5.9999999999999964 74.89999999999999 19.349999999999998
    vertex 5.9999999999999964 77.9 19.349999999999998
  endloop
endfacet
facet normal -0.9999999999999973 -4.004539510015353e-08 -6.20805897394229e-08
  outer loop
    vertex 5.999999999999997 74.9 7.35
    vertex 5.9999999999999964 77.9 19.349999999999998
    vertex 5.9999999999999964 77.9 7.35
  endloop
endfacet
facet normal -0.9999999999999973 -4.004539510015353e-08 -6.20805897394229e-08
  outer loop
    vertex 5.9999999999999964 29.225000000000026 31.199999552277085
    vertex 5.999999999999996 17.22500000000002 28.199999552277085
    vertex 5.999999999999996 17.22500000000002 31.199999552277085
  endloop
endfacet
facet normal -0.9999999999999973 -4.004539510015353e-08 -6.20805897394229e-08
  outer loop
    vertex 5.999999999999996 17.22500000000002 28.199999552277085
    vertex 5.9999999999999964 29.225000000000026 31.199999552277085
    vertex 5.999999999999999 29.22499999999999 -3.0
  endloop
endfacet
facet normal -0.9999999999999973 -4.004539510015353e-08 -6.20805897394229e-08
  outer loop
    vertex 5.999999999999999 29.22499999999999 -3.0
    vertex 5.9999999999999964 29.225000000000026 31.199999552277085
    vertex 5.9999999999999964 29.225000000000026 28.199999552277085
  endloop
endfacet
facet normal -0.9999999999999973 -4.004539510015353e-08 -6.20805897394229e-08
  outer loop
    vertex 5.999999999999999 29.22499999999999 -3.0
    vertex 5.9999999999999964 29.225000000000026 28.199999552277085
    vertex 5.999999999999997 51.675000000000004 -3.0
  endloop
endfacet
facet normal -0.9999999999999973 -4.004539510015353e-08 -6.20805897394229e-08
  outer loop
    vertex 5.999999999999997 51.675000000000004 -3.0
    vertex 5.9999999999999964 29.225000000000026 28.199999552277085
    vertex 5.999999999999998 51.675000000000026 28.199999552277085
  endloop
endfacet
facet normal -0.9999999999999973 -4.004539510015353e-08 -6.20805897394229e-08
  outer loop
    vertex 5.999999999999997 51.675000000000004 -3.0
    vertex 5.999999999999998 51.675000000000026 28.199999552277085
    vertex 5.999999999999997 51.675000000000004 -6.0
  endloop
endfacet
facet normal -0.9999999999999973 -4.004539510015353e-08 -6.20805897394229e-08
  outer loop
    vertex 5.999999999999997 51.675000000000004 -6.0
    vertex 5.999999999999998 51.675000000000026 28.199999552277085
    vertex 5.999999999999997 63.675000000000004 -6.0
  endloop
endfacet
facet normal -0.9999999999999973 -4.004539510015353e-08 -6.20805897394229e-08
  outer loop
    vertex 5.999999999999997 63.675000000000004 -6.0
    vertex 5.999999999999998 51.675000000000026 28.199999552277085
    vertex 5.999999999999997 63.675000000000004 -3.0
  endloop
endfacet
facet normal -0.9999999999999973 -4.004539510015353e-08 -6.20805897394229e-08
  outer loop
    vertex 5.999999999999996 17.22500000000002 28.199999552277085
    vertex 6.0 6.000000000000003 19.349999999999998
    vertex 6.0 6.000000000000003 28.199999999999992
  endloop
endfacet
facet normal -0.9999999999999973 -4.004539510015353e-08 -6.20805897394229e-08
  outer loop
    vertex 6.0 6.000000000000003 19.349999999999998
    vertex 5.999999999999996 17.22500000000002 28.199999552277085
    vertex 5.999999999999999 17.22499999999999 -3.0
  endloop
endfacet
facet normal -0.9999999999999973 -4.004539510015353e-08 -6.20805897394229e-08
  outer loop
    vertex 5.999999999999999 17.22499999999999 -3.0
    vertex 5.999999999999996 17.22500000000002 28.199999552277085
    vertex 5.999999999999999 17.22499999999999 -6.0
  endloop
endfacet
facet normal -0.9999999999999973 -4.004539510015353e-08 -6.20805897394229e-08
  outer loop
    vertex 5.999999999999999 17.22499999999999 -6.0
    vertex 5.999999999999996 17.22500000000002 28.199999552277085
    vertex 5.999999999999999 29.22499999999999 -6.0
  endloop
endfacet
facet normal -0.9999999999999973 -4.004539510015353e-08 -6.20805897394229e-08
  outer loop
    vertex 5.999999999999999 29.22499999999999 -6.0
    vertex 5.999999999999996 17.22500000000002 28.199999552277085
    vertex 5.999999999999999 29.22499999999999 -3.0
  endloop
endfacet
facet normal -0.9999999999999973 -4.004539510015353e-08 -6.20805897394229e-08
  outer loop
    vertex 6.0 6.000000000000003 19.349999999999998
    vertex 6.0 3.000000000000003 17.649999999999995
    vertex 6.0 3.000000000000003 19.349999999999998
  endloop
endfacet
facet normal -0.9999999999999973 -4.004539510015353e-08 -6.20805897394229e-08
  outer loop
    vertex 6.0 3.000000000000003 17.649999999999995
    vertex 6.0 6.000000000000003 19.349999999999998
    vertex 6.0 3.000000000000003 7.35
  endloop
endfacet
facet normal -0.9999999999999973 -4.004539510015353e-08 -6.20805897394229e-08
  outer loop
    vertex 6.0 3.000000000000003 7.35
    vertex 6.0 6.000000000000003 19.349999999999998
    vertex 6.0 6.000000000000002 7.35
  endloop
endfacet
facet normal -0.9999999999999973 -4.004539510015353e-08 -6.20805897394229e-08
  outer loop
    vertex 6.0 6.000000000000002 7.35
    vertex 6.0 6.000000000000003 19.349999999999998
    vertex 6.0 6.000000000000002 -2.000000000000001
  endloop
endfacet
facet normal -0.9999999999999973 -4.004539510015353e-08 -6.20805897394229e-08
  outer loop
    vertex 6.0 6.000000000000002 -2.000000000000001
    vertex 6.0 6.000000000000003 19.349999999999998
    vertex 6.0 6.000000000000002 -3.000000000000001
  endloop
endfacet
facet normal -0.9999999999999973 -4.004539510015353e-08 -6.20805897394229e-08
  outer loop
    vertex 6.0 6.000000000000002 -3.000000000000001
    vertex 6.0 6.000000000000003 19.349999999999998
    vertex 5.999999999999999 17.22499999999999 -3.0
  endloop
endfacet
facet normal -1.0 -3.983952480167831e-17 2.5688036385963733e-17
  outer loop
    vertex 2.9999999999999982 63.675000000000026 31.199999552277085
    vertex 2.9999999999999987 51.67500000000005 28.199999999999992
    vertex 2.9999999999999996 51.675000000000026 31.199999552277085
  endloop
endfacet
facet normal -1.0 -3.983952480167831e-17 2.5688036385963733e-17
  outer loop
    vertex 2.9999999999999987 51.67500000000005 28.199999999999992
    vertex 2.9999999999999982 63.675000000000026 31.199999552277085
    vertex 2.999999999999999 63.675000000000004 -3.0
  endloop
endfacet
facet normal -1.0 -3.983952480167831e-17 2.5688036385963733e-17
  outer loop
    vertex 2.999999999999999 63.675000000000004 -3.0
    vertex 2.9999999999999982 63.675000000000026 31.199999552277085
    vertex 2.999999999999998 63.675000000000026 28.199999999999992
  endloop
endfacet
facet normal -1.0 -3.983952480167831e-17 2.5688036385963733e-17
  outer loop
    vertex 2.999999999999999 63.675000000000004 -3.0
    vertex 2.999999999999998 63.675000000000026 28.199999999999992
    vertex 2.9999999999999982 74.89836415991135 -2.9858794562342776
  endloop
endfacet
facet normal -1.0 -3.983952480167831e-17 2.5688036385963733e-17
  outer loop
    vertex 2.9999999999999982 74.89836415991135 -2.9858794562342776
    vertex 2.999999999999998 63.675000000000026 28.199999999999992
    vertex 2.999999999999996 74.9 28.199999999999992
  endloop
endfacet
facet normal -1.0 -3.983952480167831e-17 2.5688036385963733e-17
  outer loop
    vertex 2.9999999999999982 74.89836415991135 -2.9858794562342776
    vertex 2.999999999999996 74.9 28.199999999999992
    vertex 2.9999999999999973 74.9 7.35
  endloop
endfacet
facet normal -1.0 -3.983952480167831e-17 2.5688036385963733e-17
  outer loop
    vertex 2.9999999999999973 74.9 7.35
    vertex 2.999999999999996 74.9 28.199999999999992
    vertex 2.9999999999999964 74.9 19.349999999999998
  endloop
endfacet
facet normal -1.0 -3.983952480167831e-17 2.5688036385963733e-17
  outer loop
    vertex 2.9999999999999973 74.9 7.35
    vertex 2.9999999999999964 74.9 19.349999999999998
    vertex 2.999999999999996 77.9 19.349999999999998
  endloop
endfacet
facet normal -1.0 -3.983952480167831e-17 2.5688036385963733e-17
  outer loop
    vertex 2.9999999999999973 74.9 7.35
    vertex 2.999999999999996 77.9 19.349999999999998
    vertex 2.9999999999999973 77.9 7.35
  endloop
endfacet
facet normal -1.0 -3.983952480167831e-17 2.5688036385963733e-17
  outer loop
    vertex 3.0000000000000013 29.22500000000002 31.199999552277085
    vertex 3.000000000000001 17.22500000000002 28.199999999999992
    vertex 3.000000000000002 17.22500000000002 31.199999552277085
  endloop
endfacet
facet normal -1.0 -3.983952480167831e-17 2.5688036385963733e-17
  outer loop
    vertex 3.000000000000001 17.22500000000002 28.199999999999992
    vertex 3.0000000000000013 29.22500000000002 31.199999552277085
    vertex 2.9999999999999982 29.22499999999999 -3.0
  endloop
endfacet
facet normal -1.0 -3.983952480167831e-17 2.5688036385963733e-17
  outer loop
    vertex 2.9999999999999982 29.22499999999999 -3.0
    vertex 3.0000000000000013 29.22500000000002 31.199999552277085
    vertex 3.0 29.22500000000002 28.199999999999992
  endloop
endfacet
facet normal -1.0 -3.983952480167831e-17 2.5688036385963733e-17
  outer loop
    vertex 2.9999999999999982 29.22499999999999 -3.0
    vertex 3.0 29.22500000000002 28.199999999999992
    vertex 2.9999999999999982 51.675000000000004 -3.0
  endloop
endfacet
facet normal -1.0 -3.983952480167831e-17 2.5688036385963733e-17
  outer loop
    vertex 2.9999999999999982 51.675000000000004 -3.0
    vertex 3.0 29.22500000000002 28.199999999999992
    vertex 2.9999999999999987 51.67500000000005 28.199999999999992
  endloop
endfacet
facet normal -1.0 -3.983952480167831e-17 2.5688036385963733e-17
  outer loop
    vertex 2.9999999999999982 51.675000000000004 -3.0
    vertex 2.9999999999999987 51.67500000000005 28.199999999999992
    vertex 2.9999999999999982 51.675000000000004 -6.0
  endloop
endfacet
facet normal -1.0 -3.983952480167831e-17 2.5688036385963733e-17
  outer loop
    vertex 2.9999999999999982 51.675000000000004 -6.0
    vertex 2.9999999999999987 51.67500000000005 28.199999999999992
    vertex 2.999999999999999 63.675000000000004 -6.0
  endloop
endfacet
facet normal -1.0 -3.983952480167831e-17 2.5688036385963733e-17
  outer loop
    vertex 2.999999999999999 63.675000000000004 -6.0
    vertex 2.9999999999999987 51.67500000000005 28.199999999999992
    vertex 2.999999999999999 63.675000000000004 -3.0
  endloop
endfacet
facet normal -1.0 -3.983952480167831e-17 2.5688036385963733e-17
  outer loop
    vertex 3.000000000000001 17.22500000000002 28.199999999999992
    vertex 3.0 6.000000000000003 19.349999999999998
    vertex 3.0 6.000000000000003 28.199999999999992
  endloop
endfacet
facet normal -1.0 -3.983952480167831e-17 2.5688036385963733e-17
  outer loop
    vertex 3.0 6.000000000000003 19.349999999999998
    vertex 3.000000000000001 17.22500000000002 28.199999999999992
    vertex 2.9999999999999996 6.000000000000003 -2.000000000000001
  endloop
endfacet
facet normal -1.0 -3.983952480167831e-17 2.5688036385963733e-17
  outer loop
    vertex 2.9999999999999996 6.000000000000003 -2.000000000000001
    vertex 3.000000000000001 17.22500000000002 28.199999999999992
    vertex 2.9999999999999996 6.000000000000003 -3.000000000000001
  endloop
endfacet
facet normal -1.0 -3.983952480167831e-17 2.5688036385963733e-17
  outer loop
    vertex 2.9999999999999996 6.000000000000003 -3.000000000000001
    vertex 3.000000000000001 17.22500000000002 28.199999999999992
    vertex 2.9999999999999982 17.22499999999999 -3.0
  endloop
endfacet
facet normal -1.0 -3.983952480167831e-17 2.5688036385963733e-17
  outer loop
    vertex 2.9999999999999982 17.22499999999999 -3.0
    vertex 3.000000000000001 17.22500000000002 28.199999999999992
    vertex 2.9999999999999982 17.22499999999999 -6.0
  endloop
endfacet
facet normal -1.0 -3.983952480167831e-17 2.5688036385963733e-17
  outer loop
    vertex 2.9999999999999982 17.22499999999999 -6.0
    vertex 3.000000000000001 17.22500000000002 28.199999999999992
    vertex 2.9999999999999982 29.22499999999999 -6.0
  endloop
endfacet
facet normal -1.0 -3.983952480167831e-17 2.5688036385963733e-17
  outer loop
    vertex 2.9999999999999982 29.22499999999999 -6.0
    vertex 3.000000000000001 17.22500000000002 28.199999999999992
    vertex 2.9999999999999982 29.22499999999999 -3.0
  endloop
endfacet
facet normal -1.0 -3.983952480167831e-17 2.5688036385963733e-17
  outer loop
    vertex 3.0 6.000000000000003 19.349999999999998
    vertex 3.0 3.000000000000003 7.35
    vertex 3.0 3.000000000000003 19.349999999999998
  endloop
endfacet
facet normal -1.0 -3.983952480167831e-17 2.5688036385963733e-17
  outer loop
    vertex 3.0 3.000000000000003 7.35
    vertex 3.0 6.000000000000003 19.349999999999998
    vertex 3.0 6.000000000000002 7.35
  endloop
endfacet
facet normal -1.0 -3.983952480167831e-17 2.5688036385963733e-17
  outer loop
    vertex 3.0 6.000000000000002 7.35
    vertex 3.0 6.000000000000003 19.349999999999998
    vertex 2.9999999999999996 6.000000000000003 -2.000000000000001
  endloop
endfacet
facet normal 9.391119252445318e-20 0.0012581372562412375 -0.9999992085450091
  outer loop
    vertex 6.000000000000004 74.89836415991135 -2.9858794562342776
    vertex 2.999999999999999 63.675000000000004 -3.0
    vertex 2.9999999999999982 74.89836415991135 -2.9858794562342776
  endloop
endfacet
facet normal 9.391119252445318e-20 0.0012581372562412375 -0.9999992085450091
  outer loop
    vertex 2.999999999999999 63.675000000000004 -3.0
    vertex 6.000000000000004 74.89836415991135 -2.9858794562342776
    vertex 5.999999999999997 63.675000000000004 -3.0
  endloop
endfacet
facet normal 5.874930171974787e-17 7.850686198630013e-17 -1.0
  outer loop
    vertex 5.999999999999999 17.22499999999999 -3.0
    vertex 2.9999999999999996 6.000000000000003 -3.000000000000001
    vertex 2.9999999999999982 17.22499999999999 -3.0
  endloop
endfacet
facet normal 5.874930171974787e-17 7.850686198630013e-17 -1.0
  outer loop
    vertex 2.9999999999999996 6.000000000000003 -3.000000000000001
    vertex 5.999999999999999 17.22499999999999 -3.0
    vertex 6.0 6.000000000000002 -3.000000000000001
  endloop
endfacet
facet normal 0.0 0.0 -1.0
  outer loop
    vertex 5.999999999999997 51.675000000000004 -3.0
    vertex 2.9999999999999982 29.22499999999999 -3.0
    vertex 2.9999999999999982 51.675000000000004 -3.0
  endloop
endfacet
facet normal 0.0 0.0 -1.0
  outer loop
    vertex 2.9999999999999982 29.22499999999999 -3.0
    vertex 5.999999999999997 51.675000000000004 -3.0
    vertex 5.999999999999999 29.22499999999999 -3.0
  endloop
endfacet
facet normal 9.391119252445318e-20 0.0012581372562412375 -0.9999992085450091
  outer loop
    vertex 6.000000000000004 74.89836415991135 -2.9858794562342776
    vertex 2.999999999999999 63.675000000000004 -3.0
    vertex 2.9999999999999982 74.89836415991135 -2.9858794562342776
  endloop
endfacet
facet normal 9.391119252445318e-20 0.0012581372562412375 -0.9999992085450091
  outer loop
    vertex 2.999999999999999 63.675000000000004 -3.0
    vertex 6.000000000000004 74.89836415991135 -2.9858794562342776
    vertex 5.999999999999997 63.675000000000004 -3.0
  endloop
endfacet
facet normal 0.0 -1.0 0.0
  outer loop
    vertex 5.999999999999997 63.675000000000004 -3.0
    vertex 2.999999999999999 63.675000000000004 -6.0
    vertex 5.999999999999997 63.675000000000004 -6.0
  endloop
endfacet
facet normal 0.0 -1.0 0.0
  outer loop
    vertex 2.999999999999999 63.675000000000004 -6.0
    vertex 5.999999999999997 63.675000000000004 -3.0
    vertex 2.999999999999999 63.675000000000004 -3.0
  endloop
endfacet
facet normal -0.0 1.0 -0.0
  outer loop
    vertex 2.9999999999999982 51.675000000000004 -3.0
    vertex 5.999999999999997 51.675000000000004 -6.0
    vertex 2.9999999999999982 51.675000000000004 -6.0
  endloop
endfacet
facet normal -0.0 1.0 -0.0
  outer loop
    vertex 5.999999999999997 51.675000000000004 -6.0
    vertex 2.9999999999999982 51.675000000000004 -3.0
    vertex 5.999999999999997 51.675000000000004 -3.0
  endloop
endfacet
facet normal -0.0 -0.0 1.0
  outer loop
    vertex 5.999999999999997 51.675000000000004 -6.0
    vertex 2.999999999999999 63.675000000000004 -6.0
    vertex 2.9999999999999982 51.675000000000004 -6.0
  endloop
endfacet
facet normal -0.0 -0.0 1.0
  outer loop
    vertex 2.999999999999999 63.675000000000004 -6.0
    vertex 5.999999999999997 51.675000000000004 -6.0
    vertex 5.999999999999997 63.675000000000004 -6.0
  endloop
endfacet
facet normal 0.0 -1.0 0.0
  outer loop
    vertex 5.999999999999999 29.22499999999999 -3.0
    vertex 2.9999999999999982 29.22499999999999 -6.0
    vertex 5.999999999999999 29.22499999999999 -6.0
  endloop
endfacet
facet normal 0.0 -1.0 0.0
  outer loop
    vertex 2.9999999999999982 29.22499999999999 -6.0
    vertex 5.999999999999999 29.22499999999999 -3.0
    vertex 2.9999999999999982 29.22499999999999 -3.0
  endloop
endfacet
facet normal -0.0 1.0 -0.0
  outer loop
    vertex 2.9999999999999982 17.22499999999999 -3.0
    vertex 5.999999999999999 17.22499999999999 -6.0
    vertex 2.9999999999999982 17.22499999999999 -6.0
  endloop
endfacet
facet normal -0.0 1.0 -0.0
  outer loop
    vertex 5.999999999999999 17.22499999999999 -6.0
    vertex 2.9999999999999982 17.22499999999999 -3.0
    vertex 5.999999999999999 17.22499999999999 -3.0
  endloop
endfacet
facet normal -0.0 -0.0 1.0
  outer loop
    vertex 5.999999999999999 17.22499999999999 -6.0
    vertex 2.9999999999999982 29.22499999999999 -6.0
    vertex 2.9999999999999982 17.22499999999999 -6.0
  endloop
endfacet
facet normal -0.0 -0.0 1.0
  outer loop
    vertex 2.9999999999999982 29.22499999999999 -6.0
    vertex 5.999999999999999 17.22499999999999 -6.0
    vertex 5.999999999999999 29.22499999999999 -6.0
  endloop
endfacet
endsolid Case 2.3_left
