solid Case 2.3_right
facet normal 0.0 0.7933533402912477 0.6087614290087043
  outer loop
    vertex 95.4 64.03397459621556 15.599999999999996
    vertex 98.4 64.19289321881344 15.39289321881345
    vertex 95.4 64.19289321881344 15.39289321881345
  endloop
endfacet
facet normal 0.0 0.7933533402912477 0.6087614290087043
  outer loop
    vertex 98.4 64.19289321881344 15.39289321881345
    vertex 95.4 64.03397459621556 15.599999999999996
    vertex 98.4 64.03397459621556 15.599999999999996
  endloop
endfacet
facet normal -0.0 -0.9982075090111575 0.0598478817815625
  outer loop
    vertex 98.4 50.89747942151524 16.170956350340255
    vertex 95.4 50.88185598927247 15.910371899946876
    vertex 98.4 50.88185598927247 15.910371899946876
  endloop
endfacet
facet normal -0.0 -0.9982075090111575 0.0598478817815625
  outer loop
    vertex 95.4 50.88185598927247 15.910371899946876
    vertex 98.4 50.89747942151524 16.170956350340255
    vertex 95.4 50.89747942151524 16.170956350340255
  endloop
endfacet
facet normal -0.0 -0.8345491201612685 0.5509335404910949
  outer loop
    vertex 98.4 50.799320693954535 15.662710291196863
    vertex 95.4 50.655498179541304 15.444849253446375
    vertex 98.4 50.655498179541304 15.444849253446375
  endloop
endfacet
facet normal -0.0 -0.8345491201612685 0.5509335404910949
  outer loop
    vertex 95.4 50.655498179541304 15.444849253446375
    vertex 98.4 50.799320693954535 15.662710291196863
    vertex 95.4 50.799320693954535 15.662710291196863
  endloop
endfacet
facet normal -0.0 -0.6087614290087244 -0.7933533402912323
  outer loop
    vertex 98.4 65.60710678118654 16.807106781186544
    vertex 95.4 65.55120725010602 16.849999999999994
    vertex 95.4 65.60710678118654 16.807106781186544
  endloop
endfacet
facet normal -0.0 -0.6087614290087244 -0.7933533402912323
  outer loop
    vertex 95.4 65.55120725010602 16.849999999999994
    vertex 98.4 65.60710678118654 16.807106781186544
    vertex 98.4 65.55120725010602 16.849999999999994
  endloop
endfacet
facet normal 0.0 0.3826834323650951 0.9238795325112845
  outer loop
    vertex 98.4 64.39999999999999 15.23397459621556
    vertex 95.4 64.64118095489746 15.13407417371093
    vertex 95.4 64.39999999999999 15.23397459621556
  endloop
endfacet
facet normal 0.0 0.3826834323650951 0.9238795325112845
  outer loop
    vertex 95.4 64.64118095489746 15.13407417371093
    vertex 98.4 64.39999999999999 15.23397459621556
    vertex 98.4 64.64118095489746 15.13407417371093
  endloop
endfacet
facet normal 0.0 0.7481581417005132 0.6635204556057295
  outer loop
    vertex 95.4 49.07163565638571 15.539810287287882
    vertex 98.4 49.244849253446375 15.344501820458685
    vertex 95.4 49.244849253446375 15.344501820458685
  endloop
endfacet
facet normal 0.0 0.7481581417005132 0.6635204556057295
  outer loop
    vertex 98.4 49.244849253446375 15.344501820458685
    vertex 95.4 49.07163565638571 15.539810287287882
    vertex 98.4 49.07163565638571 15.539810287287882
  endloop
endfacet
facet normal -0.0 0.8345491201612685 -0.5509335404910949
  outer loop
    vertex 95.4 49.14450182045868 16.755150746553618
    vertex 98.4 49.000679306045456 16.53728970880313
    vertex 95.4 49.000679306045456 16.53728970880313
  endloop
endfacet
facet normal -0.0 0.8345491201612685 -0.5509335404910949
  outer loop
    vertex 98.4 49.000679306045456 16.53728970880313
    vertex 95.4 49.14450182045868 16.755150746553618
    vertex 98.4 49.14450182045868 16.755150746553618
  endloop
endfacet
facet normal -0.0 -0.20054649963493537 0.9796841845636658
  outer loop
    vertex 98.4 49.97095635034025 15.102520578484748
    vertex 95.4 50.22670524271886 15.154873720405565
    vertex 95.4 49.97095635034025 15.102520578484748
  endloop
endfacet
facet normal -0.0 -0.20054649963493537 0.9796841845636658
  outer loop
    vertex 95.4 50.22670524271886 15.154873720405565
    vertex 98.4 49.97095635034025 15.102520578484748
    vertex 98.4 50.22670524271886 15.154873720405565
  endloop
endfacet
facet normal -0.0 -0.13052619222005077 -0.9914448613738106
  outer loop
    vertex 98.4 65.15881904510252 17.065925826289064
    vertex 95.4 64.89999999999999 17.099999999999994
    vertex 95.4 65.15881904510252 17.065925826289064
  endloop
endfacet
facet normal -0.0 -0.13052619222005077 -0.9914448613738106
  outer loop
    vertex 95.4 64.89999999999999 17.099999999999994
    vertex 98.4 65.15881904510252 17.065925826289064
    vertex 98.4 64.89999999999999 17.099999999999994
  endloop
endfacet
facet normal -0.0 0.7933533402912477 -0.6087614290087043
  outer loop
    vertex 95.4 64.19289321881344 16.807106781186544
    vertex 98.4 64.03397459621556 16.599999999999994
    vertex 95.4 64.03397459621556 16.599999999999994
  endloop
endfacet
facet normal -0.0 0.7933533402912477 -0.6087614290087043
  outer loop
    vertex 98.4 64.03397459621556 16.599999999999994
    vertex 95.4 64.19289321881344 16.807106781186544
    vertex 98.4 64.19289321881344 16.807106781186544
  endloop
endfacet
facet normal 0.0 0.92387953251129 0.38268343236508207
  outer loop
    vertex 95.4 63.93407417371093 15.841180954897476
    vertex 98.4 64.03397459621556 15.599999999999996
    vertex 95.4 64.03397459621556 15.599999999999996
  endloop
endfacet
facet normal 0.0 0.92387953251129 0.38268343236508207
  outer loop
    vertex 98.4 64.03397459621556 15.599999999999996
    vertex 95.4 63.93407417371093 15.841180954897476
    vertex 98.4 63.93407417371093 15.841180954897476
  endloop
endfacet
facet normal -0.0 -0.13052619222005077 0.9914448613738106
  outer loop
    vertex 98.4 64.89999999999999 15.099999999999998
    vertex 95.4 65.15881904510252 15.13407417371093
    vertex 95.4 64.89999999999999 15.099999999999998
  endloop
endfacet
facet normal -0.0 -0.13052619222005077 0.9914448613738106
  outer loop
    vertex 95.4 65.15881904510252 15.13407417371093
    vertex 98.4 64.89999999999999 15.099999999999998
    vertex 98.4 65.15881904510252 15.13407417371093
  endloop
endfacet
facet normal -0.0 -0.9914448613738132 0.13052619222003092
  outer loop
    vertex 98.4 65.89999999999999 16.099999999999994
    vertex 95.4 65.86592582628907 15.841180954897476
    vertex 98.4 65.86592582628907 15.841180954897476
  endloop
endfacet
facet normal -0.0 -0.9914448613738132 0.13052619222003092
  outer loop
    vertex 95.4 65.86592582628907 15.841180954897476
    vertex 98.4 65.89999999999999 16.099999999999994
    vertex 95.4 65.89999999999999 16.099999999999994
  endloop
endfacet
facet normal 0.0 0.5509335404910899 0.8345491201612716
  outer loop
    vertex 98.4 49.244849253446375 15.344501820458685
    vertex 95.4 49.46271029119686 15.200679306045457
    vertex 95.4 49.244849253446375 15.344501820458685
  endloop
endfacet
facet normal 0.0 0.5509335404910899 0.8345491201612716
  outer loop
    vertex 95.4 49.46271029119686 15.200679306045457
    vertex 98.4 49.244849253446375 15.344501820458685
    vertex 98.4 49.46271029119686 15.200679306045457
  endloop
endfacet
facet normal -0.0 0.9238795325112747 -0.382683432365119
  outer loop
    vertex 95.4 64.03397459621556 16.599999999999994
    vertex 98.4 63.93407417371092 16.358819045102514
    vertex 95.4 63.93407417371092 16.358819045102514
  endloop
endfacet
facet normal -0.0 0.9238795325112747 -0.382683432365119
  outer loop
    vertex 98.4 63.93407417371092 16.358819045102514
    vertex 95.4 64.03397459621556 16.599999999999994
    vertex 98.4 64.03397459621556 16.599999999999994
  endloop
endfacet
facet normal -0.0 -0.9914448613738077 -0.13052619222007342
  outer loop
    vertex 98.4 65.86592582628906 16.358819045102514
    vertex 95.4 65.89999999999999 16.099999999999994
    vertex 98.4 65.89999999999999 16.099999999999994
  endloop
endfacet
facet normal -0.0 -0.9914448613738077 -0.13052619222007342
  outer loop
    vertex 95.4 65.89999999999999 16.099999999999994
    vertex 98.4 65.86592582628906 16.358819045102514
    vertex 95.4 65.86592582628906 16.358819045102514
  endloop
endfacet
facet normal 0.0 0.8943970019428198 0.4472739685200737
  outer loop
    vertex 95.4 48.95487372040556 15.773294757281134
    vertex 98.4 49.07163565638571 15.539810287287882
    vertex 95.4 49.07163565638571 15.539810287287882
  endloop
endfacet
facet normal 0.0 0.8943970019428198 0.4472739685200737
  outer loop
    vertex 98.4 49.07163565638571 15.539810287287882
    vertex 95.4 48.95487372040556 15.773294757281134
    vertex 98.4 48.95487372040556 15.773294757281134
  endloop
endfacet
facet normal -0.0 0.6087614290087244 -0.7933533402912323
  outer loop
    vertex 98.4 64.24879274989397 16.849999999999994
    vertex 95.4 64.19289321881344 16.807106781186544
    vertex 95.4 64.24879274989397 16.849999999999994
  endloop
endfacet
facet normal -0.0 0.6087614290087244 -0.7933533402912323
  outer loop
    vertex 95.4 64.19289321881344 16.807106781186544
    vertex 98.4 64.24879274989397 16.849999999999994
    vertex 98.4 64.19289321881344 16.807106781186544
  endloop
endfacet
facet normal -0.0 -0.7481581417005132 -0.6635204556057295
  outer loop
    vertex 98.4 50.555150746553615 16.855498179541307
    vertex 95.4 50.728364343614274 16.66018971271211
    vertex 98.4 50.728364343614274 16.66018971271211
  endloop
endfacet
facet normal -0.0 -0.7481581417005132 -0.6635204556057295
  outer loop
    vertex 95.4 50.728364343614274 16.66018971271211
    vertex 98.4 50.555150746553615 16.855498179541307
    vertex 95.4 50.555150746553615 16.855498179541307
  endloop
endfacet
facet normal -0.0 -0.7933533402912477 0.6087614290087043
  outer loop
    vertex 98.4 65.76602540378443 15.599999999999996
    vertex 95.4 65.60710678118654 15.39289321881345
    vertex 98.4 65.60710678118654 15.39289321881345
  endloop
endfacet
facet normal -0.0 -0.7933533402912477 0.6087614290087043
  outer loop
    vertex 95.4 65.60710678118654 15.39289321881345
    vertex 98.4 65.76602540378443 15.599999999999996
    vertex 95.4 65.76602540378443 15.599999999999996
  endloop
endfacet
facet normal -0.0 -0.6087614290087083 -0.7933533402912446
  outer loop
    vertex 98.4 65.55120725010602 16.849999999999994
    vertex 95.4 65.39999999999999 16.966025403784432
    vertex 95.4 65.55120725010602 16.849999999999994
  endloop
endfacet
facet normal -0.0 -0.6087614290087083 -0.7933533402912446
  outer loop
    vertex 95.4 65.39999999999999 16.966025403784432
    vertex 98.4 65.55120725010602 16.849999999999994
    vertex 98.4 65.39999999999999 16.966025403784432
  endloop
endfacet
facet normal -0.0 -0.7933533402912477 -0.6087614290087043
  outer loop
    vertex 98.4 65.60710678118654 16.807106781186544
    vertex 95.4 65.76602540378443 16.599999999999994
    vertex 98.4 65.76602540378443 16.599999999999994
  endloop
endfacet
facet normal -0.0 -0.7933533402912477 -0.6087614290087043
  outer loop
    vertex 95.4 65.76602540378443 16.599999999999994
    vertex 98.4 65.60710678118654 16.807106781186544
    vertex 95.4 65.60710678118654 16.807106781186544
  endloop
endfacet
facet normal -0.0 -0.31616372895794304 -0.9487046413354414
  outer loop
    vertex 98.4 50.33728970880312 16.999320693954534
    vertex 95.4 50.08962810005312 17.08185598927248
    vertex 95.4 50.33728970880312 16.999320693954534
  endloop
endfacet
facet normal -0.0 -0.31616372895794304 -0.9487046413354414
  outer loop
    vertex 95.4 50.08962810005312 17.08185598927248
    vertex 98.4 50.33728970880312 16.999320693954534
    vertex 98.4 50.08962810005312 17.08185598927248
  endloop
endfacet
facet normal -0.0 -0.6635204556057295 0.7481581417005132
  outer loop
    vertex 98.4 50.46018971271211 15.271635656385715
    vertex 95.4 50.655498179541304 15.444849253446375
    vertex 95.4 50.46018971271211 15.271635656385715
  endloop
endfacet
facet normal -0.0 -0.6635204556057295 0.7481581417005132
  outer loop
    vertex 95.4 50.655498179541304 15.444849253446375
    vertex 98.4 50.46018971271211 15.271635656385715
    vertex 98.4 50.655498179541304 15.444849253446375
  endloop
endfacet
facet normal 0.0 0.05984788178155109 0.9982075090111582
  outer loop
    vertex 98.4 49.71037189994687 15.118144010727512
    vertex 95.4 49.97095635034025 15.102520578484748
    vertex 95.4 49.71037189994687 15.118144010727512
  endloop
endfacet
facet normal 0.0 0.05984788178155109 0.9982075090111582
  outer loop
    vertex 95.4 49.97095635034025 15.102520578484748
    vertex 98.4 49.71037189994687 15.118144010727512
    vertex 98.4 49.97095635034025 15.102520578484748
  endloop
endfacet
facet normal -0.0 -0.3826834323650951 -0.9238795325112845
  outer loop
    vertex 98.4 65.39999999999999 16.966025403784432
    vertex 95.4 65.15881904510252 17.065925826289064
    vertex 95.4 65.39999999999999 16.966025403784432
  endloop
endfacet
facet normal -0.0 -0.3826834323650951 -0.9238795325112845
  outer loop
    vertex 95.4 65.15881904510252 17.065925826289064
    vertex 98.4 65.39999999999999 16.966025403784432
    vertex 98.4 65.15881904510252 17.065925826289064
  endloop
endfacet
facet normal 0.0 0.9914448613738077 0.13052619222007342
  outer loop
    vertex 95.4 63.9 16.099999999999994
    vertex 98.4 63.93407417371093 15.841180954897476
    vertex 95.4 63.93407417371093 15.841180954897476
  endloop
endfacet
facet normal 0.0 0.9914448613738077 0.13052619222007342
  outer loop
    vertex 98.4 63.93407417371093 15.841180954897476
    vertex 95.4 63.9 16.099999999999994
    vertex 98.4 63.9 16.099999999999994
  endloop
endfacet
facet normal 0.0 0.6087614290087128 0.7933533402912413
  outer loop
    vertex 98.4 64.19289321881344 15.39289321881345
    vertex 95.4 64.39999999999999 15.23397459621556
    vertex 95.4 64.19289321881344 15.39289321881345
  endloop
endfacet
facet normal 0.0 0.6087614290087128 0.7933533402912413
  outer loop
    vertex 95.4 64.39999999999999 15.23397459621556
    vertex 98.4 64.19289321881344 15.39289321881345
    vertex 98.4 64.39999999999999 15.23397459621556
  endloop
endfacet
facet normal -0.0 -0.9796841845636655 -0.2005464996349375
  outer loop
    vertex 98.4 50.845126279594425 16.426705242718857
    vertex 95.4 50.89747942151524 16.170956350340255
    vertex 98.4 50.89747942151524 16.170956350340255
  endloop
endfacet
facet normal -0.0 -0.9796841845636655 -0.2005464996349375
  outer loop
    vertex 95.4 50.89747942151524 16.170956350340255
    vertex 98.4 50.845126279594425 16.426705242718857
    vertex 95.4 50.845126279594425 16.426705242718857
  endloop
endfacet
facet normal -0.0 -0.3826834323650951 0.9238795325112845
  outer loop
    vertex 98.4 65.15881904510252 15.13407417371093
    vertex 95.4 65.39999999999999 15.23397459621556
    vertex 95.4 65.15881904510252 15.13407417371093
  endloop
endfacet
facet normal -0.0 -0.3826834323650951 0.9238795325112845
  outer loop
    vertex 95.4 65.39999999999999 15.23397459621556
    vertex 98.4 65.15881904510252 15.13407417371093
    vertex 98.4 65.39999999999999 15.23397459621556
  endloop
endfacet
facet normal -0.0 -0.8943970019428218 -0.44727396852006923
  outer loop
    vertex 98.4 50.728364343614274 16.66018971271211
    vertex 95.4 50.845126279594425 16.426705242718857
    vertex 98.4 50.845126279594425 16.426705242718857
  endloop
endfacet
facet normal -0.0 -0.8943970019428218 -0.44727396852006923
  outer loop
    vertex 95.4 50.845126279594425 16.426705242718857
    vertex 98.4 50.728364343614274 16.66018971271211
    vertex 95.4 50.728364343614274 16.66018971271211
  endloop
endfacet
facet normal -0.0 -0.9487046413354435 0.31616372895793654
  outer loop
    vertex 98.4 50.88185598927247 15.910371899946876
    vertex 95.4 50.799320693954535 15.662710291196863
    vertex 98.4 50.799320693954535 15.662710291196863
  endloop
endfacet
facet normal -0.0 -0.9487046413354435 0.31616372895793654
  outer loop
    vertex 95.4 50.799320693954535 15.662710291196863
    vertex 98.4 50.88185598927247 15.910371899946876
    vertex 95.4 50.88185598927247 15.910371899946876
  endloop
endfacet
facet normal 0.0 0.13052619222005077 0.9914448613738106
  outer loop
    vertex 98.4 64.64118095489746 15.13407417371093
    vertex 95.4 64.89999999999999 15.099999999999998
    vertex 95.4 64.64118095489746 15.13407417371093
  endloop
endfacet
facet normal 0.0 0.13052619222005077 0.9914448613738106
  outer loop
    vertex 95.4 64.89999999999999 15.099999999999998
    vertex 98.4 64.64118095489746 15.13407417371093
    vertex 98.4 64.89999999999999 15.099999999999998
  endloop
endfacet
facet normal -0.0 -0.6087614290087128 0.7933533402912413
  outer loop
    vertex 98.4 65.39999999999999 15.23397459621556
    vertex 95.4 65.60710678118654 15.39289321881345
    vertex 95.4 65.39999999999999 15.23397459621556
  endloop
endfacet
facet normal -0.0 -0.6087614290087128 0.7933533402912413
  outer loop
    vertex 95.4 65.60710678118654 15.39289321881345
    vertex 98.4 65.39999999999999 15.23397459621556
    vertex 98.4 65.60710678118654 15.39289321881345
  endloop
endfacet
facet normal -0.0 0.9982075090111575 -0.0598478817815625
  outer loop
    vertex 95.4 48.91814401072751 16.289628100053115
    vertex 98.4 48.90252057848474 16.029043649659737
    vertex 95.4 48.90252057848474 16.029043649659737
  endloop
endfacet
facet normal -0.0 0.9982075090111575 -0.0598478817815625
  outer loop
    vertex 98.4 48.90252057848474 16.029043649659737
    vertex 95.4 48.91814401072751 16.289628100053115
    vertex 98.4 48.91814401072751 16.289628100053115
  endloop
endfacet
facet normal -0.0 0.9487046413354435 -0.31616372895793654
  outer loop
    vertex 95.4 49.000679306045456 16.53728970880313
    vertex 98.4 48.91814401072751 16.289628100053115
    vertex 95.4 48.91814401072751 16.289628100053115
  endloop
endfacet
facet normal -0.0 0.9487046413354435 -0.31616372895793654
  outer loop
    vertex 98.4 48.91814401072751 16.289628100053115
    vertex 95.4 49.000679306045456 16.53728970880313
    vertex 98.4 49.000679306045456 16.53728970880313
  endloop
endfacet
facet normal 0.0 0.9796841845636658 0.20054649963493537
  outer loop
    vertex 95.4 48.90252057848474 16.029043649659737
    vertex 98.4 48.95487372040556 15.773294757281134
    vertex 95.4 48.95487372040556 15.773294757281134
  endloop
endfacet
facet normal 0.0 0.9796841845636658 0.20054649963493537
  outer loop
    vertex 98.4 48.95487372040556 15.773294757281134
    vertex 95.4 48.90252057848474 16.029043649659737
    vertex 98.4 48.90252057848474 16.029043649659737
  endloop
endfacet
facet normal -0.0 -0.5509335404910899 -0.8345491201612716
  outer loop
    vertex 98.4 50.555150746553615 16.855498179541307
    vertex 95.4 50.33728970880312 16.999320693954534
    vertex 95.4 50.555150746553615 16.855498179541307
  endloop
endfacet
facet normal -0.0 -0.5509335404910899 -0.8345491201612716
  outer loop
    vertex 95.4 50.33728970880312 16.999320693954534
    vertex 98.4 50.555150746553615 16.855498179541307
    vertex 98.4 50.33728970880312 16.999320693954534
  endloop
endfacet
facet normal -0.0 0.13052619222005077 -0.9914448613738106
  outer loop
    vertex 98.4 64.89999999999999 17.099999999999994
    vertex 95.4 64.64118095489746 17.065925826289064
    vertex 95.4 64.89999999999999 17.099999999999994
  endloop
endfacet
facet normal -0.0 0.13052619222005077 -0.9914448613738106
  outer loop
    vertex 95.4 64.64118095489746 17.065925826289064
    vertex 98.4 64.89999999999999 17.099999999999994
    vertex 98.4 64.64118095489746 17.065925826289064
  endloop
endfacet
facet normal -0.0 0.3826834323650951 -0.9238795325112845
  outer loop
    vertex 98.4 64.64118095489746 17.065925826289064
    vertex 95.4 64.39999999999999 16.966025403784432
    vertex 95.4 64.64118095489746 17.065925826289064
  endloop
endfacet
facet normal -0.0 0.3826834323650951 -0.9238795325112845
  outer loop
    vertex 95.4 64.39999999999999 16.966025403784432
    vertex 98.4 64.64118095489746 17.065925826289064
    vertex 98.4 64.39999999999999 16.966025403784432
  endloop
endfacet
facet normal -0.0 0.6087614290087083 -0.7933533402912446
  outer loop
    vertex 98.4 64.39999999999999 16.966025403784432
    vertex 95.4 64.24879274989397 16.849999999999994
    vertex 95.4 64.39999999999999 16.966025403784432
  endloop
endfacet
facet normal -0.0 0.6087614290087083 -0.7933533402912446
  outer loop
    vertex 95.4 64.24879274989397 16.849999999999994
    vertex 98.4 64.39999999999999 16.966025403784432
    vertex 98.4 64.24879274989397 16.849999999999994
  endloop
endfacet
facet normal -0.0 -0.9238795325112747 0.382683432365119
  outer loop
    vertex 98.4 65.86592582628907 15.841180954897476
    vertex 95.4 65.76602540378443 15.599999999999996
    vertex 98.4 65.76602540378443 15.599999999999996
  endloop
endfacet
facet normal -0.0 -0.9238795325112747 0.382683432365119
  outer loop
    vertex 95.4 65.76602540378443 15.599999999999996
    vertex 98.4 65.86592582628907 15.841180954897476
    vertex 95.4 65.86592582628907 15.841180954897476
  endloop
endfacet
facet normal 0.0 0.31616372895794304 0.9487046413354414
  outer loop
    vertex 98.4 49.46271029119686 15.200679306045457
    vertex 95.4 49.71037189994687 15.118144010727512
    vertex 95.4 49.46271029119686 15.200679306045457
  endloop
endfacet
facet normal 0.0 0.31616372895794304 0.9487046413354414
  outer loop
    vertex 95.4 49.71037189994687 15.118144010727512
    vertex 98.4 49.46271029119686 15.200679306045457
    vertex 98.4 49.71037189994687 15.118144010727512
  endloop
endfacet
facet normal -0.0 0.9914448613738132 -0.13052619222003092
  outer loop
    vertex 95.4 63.93407417371092 16.358819045102514
    vertex 98.4 63.9 16.099999999999994
    vertex 95.4 63.9 16.099999999999994
  endloop
endfacet
facet normal -0.0 0.9914448613738132 -0.13052619222003092
  outer loop
    vertex 98.4 63.9 16.099999999999994
    vertex 95.4 63.93407417371092 16.358819045102514
    vertex 98.4 63.93407417371092 16.358819045102514
  endloop
endfacet
facet normal -0.0 -0.92387953251129 -0.38268343236508207
  outer loop
    vertex 98.4 65.76602540378443 16.599999999999994
    vertex 95.4 65.86592582628906 16.358819045102514
    vertex 98.4 65.86592582628906 16.358819045102514
  endloop
endfacet
facet normal -0.0 -0.92387953251129 -0.38268343236508207
  outer loop
    vertex 95.4 65.86592582628906 16.358819045102514
    vertex 98.4 65.76602540378443 16.599999999999994
    vertex 95.4 65.76602540378443 16.599999999999994
  endloop
endfacet
facet normal -0.0 -0.447273968520065 0.894397001942824
  outer loop
    vertex 98.4 50.22670524271886 15.154873720405565
    vertex 95.4 50.46018971271211 15.271635656385715
    vertex 95.4 50.22670524271886 15.154873720405565
  endloop
endfacet
facet normal -0.0 -0.447273968520065 0.894397001942824
  outer loop
    vertex 95.4 50.46018971271211 15.271635656385715
    vertex 98.4 50.22670524271886 15.154873720405565
    vertex 98.4 50.46018971271211 15.271635656385715
  endloop
endfacet
facet normal -1.0574874309554634e-15 -1.0 -4.1124511203823496e-16
  outer loop
    vertex 98.4 3.000000000000003 19.35
    vertex 95.4 3.000000000000011 7.35
    vertex 98.4 3.0000000000000058 7.35
  endloop
endfacet
facet normal -1.0574874309554634e-15 -1.0 -4.1124511203823496e-16
  outer loop
    vertex 95.4 3.000000000000011 7.35
    vertex 98.4 3.000000000000003 19.35
    vertex 95.4 3.000000000000004 19.35
  endloop
endfacet
facet normal 0.0 -1.0 0.0
  outer loop
    vertex 98.4 29.22500000000003 28.199999999999992
    vertex 95.39999999999998 29.22500000000003 31.199999552277085
    vertex 95.39999999999998 29.22500000000003 28.199999552277085
  endloop
endfacet
facet normal 0.0 -1.0 0.0
  outer loop
    vertex 95.39999999999998 29.22500000000003 31.199999552277085
    vertex 98.4 29.22500000000003 28.199999999999992
    vertex 98.4 29.22500000000003 31.199999552277085
  endloop
endfacet
facet normal -0.0 1.0 -0.0
  outer loop
    vertex 95.39999999999998 17.22500000000003 31.199999552277085
    vertex 98.4 17.22500000000003 28.199999999999992
    vertex 95.39999999999998 17.22500000000003 28.199999552277085
  endloop
endfacet
facet normal -0.0 1.0 -0.0
  outer loop
    vertex 98.4 17.22500000000003 28.199999999999992
    vertex 95.39999999999998 17.22500000000003 31.199999552277085
    vertex 98.4 17.22500000000003 31.199999552277085
  endloop
endfacet
facet normal -0.0 0.447273968520065 -0.894397001942824
  outer loop
    vertex 98.4 49.57329475728113 17.045126279594427
    vertex 95.4 49.339810287287875 16.928364343614277
    vertex 95.4 49.57329475728113 17.045126279594427
  endloop
endfacet
facet normal -0.0 0.447273968520065 -0.894397001942824
  outer loop
    vertex 95.4 49.339810287287875 16.928364343614277
    vertex 98.4 49.57329475728113 17.045126279594427
    vertex 98.4 49.339810287287875 16.928364343614277
  endloop
endfacet
facet normal 0.0 1.0 0.0
  outer loop
    vertex 95.4 53.39999999999999 18.099999999999994
    vertex 98.4 53.39999999999999 14.099999999999994
    vertex 95.4 53.39999999999999 14.099999999999994
  endloop
endfacet
facet normal 0.0 1.0 0.0
  outer loop
    vertex 98.4 53.39999999999999 14.099999999999994
    vertex 95.4 53.39999999999999 18.099999999999994
    vertex 98.4 53.39999999999999 18.099999999999994
  endloop
endfacet
facet normal -0.0 -0.0 -1.0
  outer loop
    vertex 98.4 37.4 19.349999999999994
    vertex 95.4 18.599999999999998 19.349999999999994
    vertex 95.4 37.4 19.349999999999994
  endloop
endfacet
facet normal -0.0 -0.0 -1.0
  outer loop
    vertex 95.4 18.599999999999998 19.349999999999994
    vertex 98.4 37.4 19.349999999999994
    vertex 98.4 18.599999999999998 19.349999999999994
  endloop
endfacet
facet normal 0.0 1.0 0.0
  outer loop
    vertex 95.4 18.599999999999998 19.349999999999994
    vertex 98.4 18.599999999999998 12.849999999999996
    vertex 95.4 18.599999999999998 12.849999999999996
  endloop
endfacet
facet normal 0.0 1.0 0.0
  outer loop
    vertex 98.4 18.599999999999998 12.849999999999996
    vertex 95.4 18.599999999999998 19.349999999999994
    vertex 98.4 18.599999999999998 19.349999999999994
  endloop
endfacet
facet normal -0.0 0.663520455605723 -0.748158141700519
  outer loop
    vertex 98.4 49.339810287287875 16.928364343614277
    vertex 95.4 49.250217340054206 16.84890687352323
    vertex 95.4 49.339810287287875 16.928364343614277
  endloop
endfacet
facet normal -0.0 0.663520455605723 -0.748158141700519
  outer loop
    vertex 95.4 49.250217340054206 16.84890687352323
    vertex 98.4 49.339810287287875 16.928364343614277
    vertex 98.4 49.250217340054206 16.84890687352323
  endloop
endfacet
facet normal -0.0 0.6635204556057349 -0.7481581417005083
  outer loop
    vertex 98.4 49.250217340054206 16.84890687352323
    vertex 95.4 49.14450182045868 16.755150746553618
    vertex 95.4 49.250217340054206 16.84890687352323
  endloop
endfacet
facet normal -0.0 0.6635204556057349 -0.7481581417005083
  outer loop
    vertex 95.4 49.14450182045868 16.755150746553618
    vertex 98.4 49.250217340054206 16.84890687352323
    vertex 98.4 49.14450182045868 16.755150746553618
  endloop
endfacet
facet normal -0.0 -0.05984788178155569 -0.9982075090111581
  outer loop
    vertex 98.4 49.89999999999999 17.093225208610132
    vertex 95.4 49.82904364965974 17.097479421515242
    vertex 95.4 49.89999999999999 17.093225208610132
  endloop
endfacet
facet normal -0.0 -0.05984788178155569 -0.9982075090111581
  outer loop
    vertex 95.4 49.82904364965974 17.097479421515242
    vertex 98.4 49.89999999999999 17.093225208610132
    vertex 98.4 49.82904364965974 17.097479421515242
  endloop
endfacet
facet normal 0.0 -1.0 0.0
  outer loop
    vertex 98.4 37.4 19.349999999999994
    vertex 95.4 37.4 12.849999999999996
    vertex 98.4 37.4 12.849999999999996
  endloop
endfacet
facet normal 0.0 -1.0 0.0
  outer loop
    vertex 95.4 37.4 12.849999999999996
    vertex 98.4 37.4 19.349999999999994
    vertex 95.4 37.4 19.349999999999994
  endloop
endfacet
facet normal 0.0 0.0 1.0
  outer loop
    vertex 98.4 53.39999999999999 14.099999999999994
    vertex 95.4 61.39999999999999 14.099999999999994
    vertex 95.4 53.39999999999999 14.099999999999994
  endloop
endfacet
facet normal 0.0 0.0 1.0
  outer loop
    vertex 95.4 61.39999999999999 14.099999999999994
    vertex 98.4 53.39999999999999 14.099999999999994
    vertex 98.4 61.39999999999999 14.099999999999994
  endloop
endfacet
facet normal 0.0 0.0 1.0
  outer loop
    vertex 98.4 18.599999999999998 12.849999999999996
    vertex 95.4 37.4 12.849999999999996
    vertex 95.4 18.599999999999998 12.849999999999996
  endloop
endfacet
facet normal 0.0 0.0 1.0
  outer loop
    vertex 95.4 37.4 12.849999999999996
    vertex 98.4 18.599999999999998 12.849999999999996
    vertex 98.4 37.4 12.849999999999996
  endloop
endfacet
facet normal -0.0 -0.05984788178154938 -0.9982075090111583
  outer loop
    vertex 98.4 50.08962810005312 17.08185598927248
    vertex 95.4 49.89999999999999 17.093225208610132
    vertex 95.4 50.08962810005312 17.08185598927248
  endloop
endfacet
facet normal -0.0 -0.05984788178154938 -0.9982075090111583
  outer loop
    vertex 95.4 49.89999999999999 17.093225208610132
    vertex 98.4 50.08962810005312 17.08185598927248
    vertex 98.4 49.89999999999999 17.093225208610132
  endloop
endfacet
facet normal -0.0 -1.0 0.0
  outer loop
    vertex 98.4 61.39999999999999 18.099999999999994
    vertex 95.4 61.39999999999999 14.099999999999994
    vertex 98.4 61.39999999999999 14.099999999999994
  endloop
endfacet
facet normal -0.0 -1.0 0.0
  outer loop
    vertex 95.4 61.39999999999999 14.099999999999994
    vertex 98.4 61.39999999999999 18.099999999999994
    vertex 95.4 61.39999999999999 18.099999999999994
  endloop
endfacet
facet normal -0.0 -0.0 -1.0
  outer loop
    vertex 98.4 61.39999999999999 18.099999999999994
    vertex 95.4 53.39999999999999 18.099999999999994
    vertex 95.4 61.39999999999999 18.099999999999994
  endloop
endfacet
facet normal -0.0 -0.0 -1.0
  outer loop
    vertex 95.4 53.39999999999999 18.099999999999994
    vertex 98.4 61.39999999999999 18.099999999999994
    vertex 98.4 53.39999999999999 18.099999999999994
  endloop
endfacet
facet normal -0.0 0.20054649963493537 -0.9796841845636658
  outer loop
    vertex 98.4 49.82904364965974 17.097479421515242
    vertex 95.4 49.57329475728113 17.045126279594427
    vertex 95.4 49.82904364965974 17.097479421515242
  endloop
endfacet
facet normal -0.0 0.20054649963493537 -0.9796841845636658
  outer loop
    vertex 95.4 49.57329475728113 17.045126279594427
    vertex 98.4 49.82904364965974 17.097479421515242
    vertex 98.4 49.57329475728113 17.045126279594427
  endloop
endfacet
facet normal -0.0 -0.0 1.0
  outer loop
    vertex 98.4 51.675000000000026 31.199999552277085
    vertex 95.39999999999998 63.675000000000026 31.199999552277085
    vertex 95.39999999999998 51.675000000000026 31.199999552277085
  endloop
endfacet
facet normal -0.0 -0.0 1.0
  outer loop
    vertex 95.39999999999998 63.675000000000026 31.199999552277085
    vertex 98.4 51.675000000000026 31.199999552277085
    vertex 98.4 63.675000000000026 31.199999552277085
  endloop
endfacet
facet normal 1.4924096959726524e-07 -3.186347869244799e-25 -0.9999999999999889
  outer loop
    vertex 98.4 51.67587620036368 28.199999999999992
    vertex 95.39999999999998 29.22500000000003 28.199999552277085
    vertex 95.39999999999998 51.675000000000026 28.199999552277085
  endloop
endfacet
facet normal 1.4924096959726524e-07 -3.186347869244799e-25 -0.9999999999999889
  outer loop
    vertex 95.39999999999998 29.22500000000003 28.199999552277085
    vertex 98.4 51.67587620036368 28.199999999999992
    vertex 98.4 29.22500000000003 28.199999999999992
  endloop
endfacet
facet normal 0.00014603340172559997 -0.9999999786742471 -0.00014603339082851677
  outer loop
    vertex 98.4 63.67587620036368 28.199999999999992
    vertex 95.39999999999998 63.675000000000026 31.199999552277085
    vertex 95.39999999999998 63.675000000000026 28.199999552277085
  endloop
endfacet
facet normal 0.00014603340172559997 -0.9999999786742471 -0.00014603339082851677
  outer loop
    vertex 95.39999999999998 63.675000000000026 31.199999552277085
    vertex 98.4 63.67587620036368 28.199999999999992
    vertex 98.4 63.675000000000026 31.199999552277085
  endloop
endfacet
facet normal -0.00014603340172559995 0.9999999786742471 0.00014603339082851674
  outer loop
    vertex 95.39999999999998 51.675000000000026 31.199999552277085
    vertex 98.4 51.67587620036368 28.199999999999992
    vertex 95.39999999999998 51.675000000000026 28.199999552277085
  endloop
endfacet
facet normal -0.00014603340172559995 0.9999999786742471 0.00014603339082851674
  outer loop
    vertex 98.4 51.67587620036368 28.199999999999992
    vertex 95.39999999999998 51.675000000000026 31.199999552277085
    vertex 98.4 51.675000000000026 31.199999552277085
  endloop
endfacet
facet normal -0.0 1.0 -0.0
  outer loop
    vertex 95.4 77.9 8.999999999999998
    vertex 98.4 77.9 7.35
    vertex 95.4 77.9 7.35
  endloop
endfacet
facet normal -0.0 1.0 -0.0
  outer loop
    vertex 98.4 77.9 7.35
    vertex 95.4 77.9 8.999999999999998
    vertex 98.4 77.9 19.349999999999998
  endloop
endfacet
facet normal -0.0 1.0 -0.0
  outer loop
    vertex 98.4 77.9 19.349999999999998
    vertex 95.4 77.9 8.999999999999998
    vertex 95.4 77.9 19.349999999999998
  endloop
endfacet
facet normal -3.679325691596132e-16 1.0 -3.3276845406018656e-17
  outer loop
    vertex 95.4 6.0 7.35
    vertex 98.4 6.0 -2.0
    vertex 95.4 5.999999999999999 -2.0
  endloop
endfacet
facet normal -3.679325691596132e-16 1.0 -3.3276845406018656e-17
  outer loop
    vertex 98.4 6.0 -2.0
    vertex 95.4 6.0 7.35
    vertex 98.4 6.0 -1.4999999999999996
  endloop
endfacet
facet normal -3.679325691596132e-16 1.0 -3.3276845406018656e-17
  outer loop
    vertex 98.4 6.0 -1.4999999999999996
    vertex 95.4 6.0 7.35
    vertex 98.4 6.0 7.35
  endloop
endfacet
facet normal -0.0 -0.0 1.0
  outer loop
    vertex 98.4 3.0000000000000058 7.35
    vertex 95.4 6.0 7.35
    vertex 95.4 3.000000000000011 7.35
  endloop
endfacet
facet normal -0.0 -0.0 1.0
  outer loop
    vertex 95.4 6.0 7.35
    vertex 98.4 3.0000000000000058 7.35
    vertex 98.4 6.0 7.35
  endloop
endfacet
facet normal -0.0 -0.0 1.0
  outer loop
    vertex 98.4 3.000000000000003 19.35
    vertex 95.4 6.0 19.35
    vertex 95.4 3.000000000000004 19.35
  endloop
endfacet
facet normal -0.0 -0.0 1.0
  outer loop
    vertex 95.4 6.0 19.35
    vertex 98.4 3.000000000000003 19.35
    vertex 98.4 6.000000000000001 19.35
  endloop
endfacet
facet normal 3.524958103184878e-16 -1.0 3.9830035064235876e-17
  outer loop
    vertex 98.4 6.000000000000002 28.199999999999992
    vertex 95.4 6.0 19.35
    vertex 98.4 6.000000000000001 19.35
  endloop
endfacet
facet normal 3.524958103184878e-16 -1.0 3.9830035064235876e-17
  outer loop
    vertex 95.4 6.0 19.35
    vertex 98.4 6.000000000000002 28.199999999999992
    vertex 95.4 6.0 28.199999999999992
  endloop
endfacet
facet normal -4.699944137579837e-16 1.0 -0.0
  outer loop
    vertex 95.4 5.999999999999999 -2.0
    vertex 98.4 6.0 -3.0
    vertex 95.4 5.999999999999999 -3.0
  endloop
endfacet
facet normal -4.699944137579837e-16 1.0 -0.0
  outer loop
    vertex 98.4 6.0 -3.0
    vertex 95.4 5.999999999999999 -2.0
    vertex 98.4 6.0 -2.0
  endloop
endfacet
facet normal 0.0 -1.0 0.0
  outer loop
    vertex 98.4 74.9 7.350000000000002
    vertex 95.4 74.9 -3.0
    vertex 98.4 74.9 -3.0000000000000004
  endloop
endfacet
facet normal 0.0 -1.0 0.0
  outer loop
    vertex 95.4 74.9 -3.0
    vertex 98.4 74.9 7.350000000000002
    vertex 95.4 74.9 -2.0
  endloop
endfacet
facet normal 0.0 -1.0 0.0
  outer loop
    vertex 95.4 74.9 -2.0
    vertex 98.4 74.9 7.350000000000002
    vertex 95.4 74.9 7.35
  endloop
endfacet
facet normal -4.699944137579837e-16 4.699944137579837e-16 1.0
  outer loop
    vertex 98.4 74.9 7.350000000000002
    vertex 95.4 77.9 7.35
    vertex 95.4 74.9 7.35
  endloop
endfacet
facet normal -4.699944137579837e-16 4.699944137579837e-16 1.0
  outer loop
    vertex 95.4 77.9 7.35
    vertex 98.4 74.9 7.350000000000002
    vertex 98.4 77.9 7.35
  endloop
endfacet
facet normal -0.0 1.0 -0.0
  outer loop
    vertex 95.4 74.9 28.200000000000006
    vertex 98.4 74.9 19.349999999999998
    vertex 95.4 74.9 19.349999999999998
  endloop
endfacet
facet normal -0.0 1.0 -0.0
  outer loop
    vertex 98.4 74.9 19.349999999999998
    vertex 95.4 74.9 28.200000000000006
    vertex 98.4 74.9 28.200000000000006
  endloop
endfacet
facet normal -0.0 -0.0 1.0
  outer loop
    vertex 98.4 74.9 19.349999999999998
    vertex 95.4 77.9 19.349999999999998
    vertex 95.4 74.9 19.349999999999998
  endloop
endfacet
facet normal -0.0 -0.0 1.0
  outer loop
    vertex 95.4 77.9 19.349999999999998
    vertex 98.4 74.9 19.349999999999998
    vertex 98.4 77.9 19.349999999999998
  endloop
endfacet
facet normal 7.5478465007835e-08 -1.992728227822346e-08 -0.9999999999999971
  outer loop
    vertex 98.4 17.22500000000003 28.199999999999992
    vertex 95.4 6.0 28.199999999999992
    vertex 95.39999999999998 17.22500000000003 28.199999552277085
  endloop
endfacet
facet normal 7.5478465007835e-08 -1.992728227822346e-08 -0.9999999999999971
  outer loop
    vertex 95.4 6.0 28.199999999999992
    vertex 98.4 17.22500000000003 28.199999999999992
    vertex 98.4 6.000000000000002 28.199999999999992
  endloop
endfacet
facet normal 7.5478465007835e-08 -1.992728227822346e-08 -0.9999999999999971
  outer loop
    vertex 98.4 6.000000000000002 28.199999999999992
    vertex 98.4 17.22500000000003 28.199999999999992
    vertex 98.4 12.0 28.199999999999992
  endloop
endfacet
facet normal -7.461757221052543e-08 -1.9944671761418684e-08 0.9999999999999971
  outer loop
    vertex 98.4 63.67587620036368 28.199999999999992
    vertex 95.4 74.9 28.200000000000006
    vertex 95.39999999999998 63.675000000000026 28.199999552277085
  endloop
endfacet
facet normal -7.461757221052543e-08 -1.9944671761418684e-08 0.9999999999999971
  outer loop
    vertex 95.4 74.9 28.200000000000006
    vertex 98.4 63.67587620036368 28.199999999999992
    vertex 98.4 74.9 28.200000000000006
  endloop
endfacet
facet normal -0.0 -0.0 1.0
  outer loop
    vertex 98.4 17.22500000000003 31.199999552277085
    vertex 95.39999999999998 29.22500000000003 31.199999552277085
    vertex 95.39999999999998 17.22500000000003 31.199999552277085
  endloop
endfacet
facet normal -0.0 -0.0 1.0
  outer loop
    vertex 95.39999999999998 29.22500000000003 31.199999552277085
    vertex 98.4 17.22500000000003 31.199999552277085
    vertex 98.4 29.22500000000003 31.199999552277085
  endloop
endfacet
facet normal 1.0 -6.876058529642308e-18 5.067516137164251e-16
  outer loop
    vertex 95.4 63.675000000000004 -3.0
    vertex 95.4 63.9 16.099999999999994
    vertex 95.39999999999998 63.675000000000026 28.199999552277085
  endloop
endfacet
facet normal 1.0 -6.876058529642308e-18 5.067516137164251e-16
  outer loop
    vertex 95.4 63.9 16.099999999999994
    vertex 95.4 63.675000000000004 -3.0
    vertex 95.4 63.93407417371093 15.841180954897476
  endloop
endfacet
facet normal 1.0 -6.876058529642308e-18 5.067516137164251e-16
  outer loop
    vertex 95.4 63.93407417371093 15.841180954897476
    vertex 95.4 63.675000000000004 -3.0
    vertex 95.4 64.03397459621556 15.599999999999996
  endloop
endfacet
facet normal 1.0 -6.876058529642308e-18 5.067516137164251e-16
  outer loop
    vertex 95.4 64.03397459621556 15.599999999999996
    vertex 95.4 63.675000000000004 -3.0
    vertex 95.4 74.9 -3.0
  endloop
endfacet
facet normal 1.0 -6.876058529642308e-18 5.067516137164251e-16
  outer loop
    vertex 95.4 64.03397459621556 15.599999999999996
    vertex 95.4 74.9 -3.0
    vertex 95.4 64.19289321881344 15.39289321881345
  endloop
endfacet
facet normal 1.0 -6.876058529642308e-18 5.067516137164251e-16
  outer loop
    vertex 95.4 64.19289321881344 15.39289321881345
    vertex 95.4 74.9 -3.0
    vertex 95.4 64.39999999999999 15.23397459621556
  endloop
endfacet
facet normal 1.0 -6.876058529642308e-18 5.067516137164251e-16
  outer loop
    vertex 95.4 64.39999999999999 15.23397459621556
    vertex 95.4 74.9 -3.0
    vertex 95.4 64.64118095489746 15.13407417371093
  endloop
endfacet
facet normal 1.0 -6.876058529642308e-18 5.067516137164251e-16
  outer loop
    vertex 95.4 64.64118095489746 15.13407417371093
    vertex 95.4 74.9 -3.0
    vertex 95.4 64.89999999999999 15.099999999999998
  endloop
endfacet
facet normal 1.0 -6.876058529642308e-18 5.067516137164251e-16
  outer loop
    vertex 95.4 64.89999999999999 15.099999999999998
    vertex 95.4 74.9 -3.0
    vertex 95.4 65.15881904510252 15.13407417371093
  endloop
endfacet
facet normal 1.0 -6.876058529642308e-18 5.067516137164251e-16
  outer loop
    vertex 95.4 65.15881904510252 15.13407417371093
    vertex 95.4 74.9 -3.0
    vertex 95.4 65.39999999999999 15.23397459621556
  endloop
endfacet
facet normal 1.0 -6.876058529642308e-18 5.067516137164251e-16
  outer loop
    vertex 95.4 65.39999999999999 15.23397459621556
    vertex 95.4 74.9 -3.0
    vertex 95.4 65.60710678118654 15.39289321881345
  endloop
endfacet
facet normal 1.0 -6.876058529642308e-18 5.067516137164251e-16
  outer loop
    vertex 95.4 65.60710678118654 15.39289321881345
    vertex 95.4 74.9 -3.0
    vertex 95.4 65.76602540378443 15.599999999999996
  endloop
endfacet
facet normal 1.0 -6.876058529642308e-18 5.067516137164251e-16
  outer loop
    vertex 95.4 65.76602540378443 15.599999999999996
    vertex 95.4 74.9 -3.0
    vertex 95.4 65.86592582628907 15.841180954897476
  endloop
endfacet
facet normal 1.0 -6.876058529642308e-18 5.067516137164251e-16
  outer loop
    vertex 95.4 65.86592582628907 15.841180954897476
    vertex 95.4 74.9 -3.0
    vertex 95.4 65.89999999999999 16.099999999999994
  endloop
endfacet
facet normal 1.0 -6.876058529642308e-18 5.067516137164251e-16
  outer loop
    vertex 95.4 77.9 7.35
    vertex 95.4 74.9 19.349999999999998
    vertex 95.4 74.9 7.35
  endloop
endfacet
facet normal 1.0 -6.876058529642308e-18 5.067516137164251e-16
  outer loop
    vertex 95.4 74.9 19.349999999999998
    vertex 95.4 77.9 7.35
    vertex 95.4 77.9 19.349999999999998
  endloop
endfacet
facet normal 1.0 -6.876058529642308e-18 5.067516137164251e-16
  outer loop
    vertex 95.4 77.9 19.349999999999998
    vertex 95.4 77.9 7.35
    vertex 95.4 77.9 8.999999999999998
  endloop
endfacet
facet normal 1.0 -6.876058529642308e-18 5.067516137164251e-16
  outer loop
    vertex 95.39999999999998 63.675000000000026 28.199999552277085
    vertex 95.4 64.19289321881344 16.807106781186544
    vertex 95.4 74.9 28.200000000000006
  endloop
endfacet
facet normal 1.0 -6.876058529642308e-18 5.067516137164251e-16
  outer loop
    vertex 95.4 64.19289321881344 16.807106781186544
    vertex 95.39999999999998 63.675000000000026 28.199999552277085
    vertex 95.4 64.03397459621556 16.599999999999994
  endloop
endfacet
facet normal 1.0 -6.876058529642308e-18 5.067516137164251e-16
  outer loop
    vertex 95.4 64.03397459621556 16.599999999999994
    vertex 95.39999999999998 63.675000000000026 28.199999552277085
    vertex 95.4 63.93407417371092 16.358819045102514
  endloop
endfacet
facet normal 1.0 -6.876058529642308e-18 5.067516137164251e-16
  outer loop
    vertex 95.4 63.93407417371092 16.358819045102514
    vertex 95.39999999999998 63.675000000000026 28.199999552277085
    vertex 95.4 63.9 16.099999999999994
  endloop
endfacet
facet normal 1.0 -6.876058529642308e-18 5.067516137164251e-16
  outer loop
    vertex 95.4 74.9 28.200000000000006
    vertex 95.4 64.19289321881344 16.807106781186544
    vertex 95.4 64.24879274989397 16.849999999999994
  endloop
endfacet
facet normal 1.0 -6.876058529642308e-18 5.067516137164251e-16
  outer loop
    vertex 95.4 74.9 28.200000000000006
    vertex 95.4 64.24879274989397 16.849999999999994
    vertex 95.4 64.39999999999999 16.966025403784432
  endloop
endfacet
facet normal 1.0 -6.876058529642308e-18 5.067516137164251e-16
  outer loop
    vertex 95.4 74.9 28.200000000000006
    vertex 95.4 64.39999999999999 16.966025403784432
    vertex 95.4 64.64118095489746 17.065925826289064
  endloop
endfacet
facet normal 1.0 -6.876058529642308e-18 5.067516137164251e-16
  outer loop
    vertex 95.4 74.9 28.200000000000006
    vertex 95.4 64.64118095489746 17.065925826289064
    vertex 95.4 64.89999999999999 17.099999999999994
  endloop
endfacet
facet normal 1.0 -6.876058529642308e-18 5.067516137164251e-16
  outer loop
    vertex 95.4 74.9 28.200000000000006
    vertex 95.4 64.89999999999999 17.099999999999994
    vertex 95.4 65.15881904510252 17.065925826289064
  endloop
endfacet
facet normal 1.0 -6.876058529642308e-18 5.067516137164251e-16
  outer loop
    vertex 95.4 74.9 28.200000000000006
    vertex 95.4 65.15881904510252 17.065925826289064
    vertex 95.4 65.39999999999999 16.966025403784432
  endloop
endfacet
facet normal 1.0 -6.876058529642308e-18 5.067516137164251e-16
  outer loop
    vertex 95.4 74.9 28.200000000000006
    vertex 95.4 65.39999999999999 16.966025403784432
    vertex 95.4 65.55120725010602 16.849999999999994
  endloop
endfacet
facet normal 1.0 -6.876058529642308e-18 5.067516137164251e-16
  outer loop
    vertex 95.4 74.9 28.200000000000006
    vertex 95.4 65.55120725010602 16.849999999999994
    vertex 95.4 65.60710678118654 16.807106781186544
  endloop
endfacet
facet normal 1.0 -6.876058529642308e-18 5.067516137164251e-16
  outer loop
    vertex 95.4 74.9 28.200000000000006
    vertex 95.4 65.60710678118654 16.807106781186544
    vertex 95.4 65.76602540378443 16.599999999999994
  endloop
endfacet
facet normal 1.0 -6.876058529642308e-18 5.067516137164251e-16
  outer loop
    vertex 95.4 74.9 28.200000000000006
    vertex 95.4 65.76602540378443 16.599999999999994
    vertex 95.4 65.86592582628906 16.358819045102514
  endloop
endfacet
facet normal 1.0 -6.876058529642308e-18 5.067516137164251e-16
  outer loop
    vertex 95.4 74.9 28.200000000000006
    vertex 95.4 65.86592582628906 16.358819045102514
    vertex 95.4 65.89999999999999 16.099999999999994
  endloop
endfacet
facet normal 1.0 -6.876058529642308e-18 5.067516137164251e-16
  outer loop
    vertex 95.4 74.9 28.200000000000006
    vertex 95.4 65.89999999999999 16.099999999999994
    vertex 95.4 74.9 -3.0
  endloop
endfacet
facet normal 1.0 -6.876058529642308e-18 5.067516137164251e-16
  outer loop
    vertex 95.4 74.9 28.200000000000006
    vertex 95.4 74.9 -3.0
    vertex 95.4 74.9 -2.0
  endloop
endfacet
facet normal 1.0 -6.876058529642308e-18 5.067516137164251e-16
  outer loop
    vertex 95.4 74.9 28.200000000000006
    vertex 95.4 74.9 -2.0
    vertex 95.4 74.9 7.35
  endloop
endfacet
facet normal 1.0 -6.876058529642308e-18 5.067516137164251e-16
  outer loop
    vertex 95.4 74.9 28.200000000000006
    vertex 95.4 74.9 7.35
    vertex 95.4 74.9 19.349999999999998
  endloop
endfacet
facet normal 1.0 -6.876058529642308e-18 5.067516137164251e-16
  outer loop
    vertex 95.4 63.675000000000004 -6.0
    vertex 95.4 51.675000000000004 -3.0
    vertex 95.4 51.675000000000004 -6.0
  endloop
endfacet
facet normal 1.0 -6.876058529642308e-18 5.067516137164251e-16
  outer loop
    vertex 95.4 51.675000000000004 -3.0
    vertex 95.4 63.675000000000004 -6.0
    vertex 95.4 53.39999999999999 14.099999999999994
  endloop
endfacet
facet normal 1.0 -6.876058529642308e-18 5.067516137164251e-16
  outer loop
    vertex 95.4 51.675000000000004 -3.0
    vertex 95.4 53.39999999999999 14.099999999999994
    vertex 95.39999999999998 51.675000000000026 28.199999552277085
  endloop
endfacet
facet normal 1.0 -6.876058529642308e-18 5.067516137164251e-16
  outer loop
    vertex 95.39999999999998 51.675000000000026 28.199999552277085
    vertex 95.4 53.39999999999999 14.099999999999994
    vertex 95.39999999999998 51.675000000000026 31.199999552277085
  endloop
endfacet
facet normal 1.0 -6.876058529642308e-18 5.067516137164251e-16
  outer loop
    vertex 95.4 53.39999999999999 14.099999999999994
    vertex 95.4 63.675000000000004 -6.0
    vertex 95.4 61.39999999999999 14.099999999999994
  endloop
endfacet
facet normal 1.0 -6.876058529642308e-18 5.067516137164251e-16
  outer loop
    vertex 95.4 61.39999999999999 14.099999999999994
    vertex 95.4 63.675000000000004 -6.0
    vertex 95.4 61.39999999999999 18.099999999999994
  endloop
endfacet
facet normal 1.0 -6.876058529642308e-18 5.067516137164251e-16
  outer loop
    vertex 95.39999999999998 51.675000000000026 31.199999552277085
    vertex 95.4 53.39999999999999 18.099999999999994
    vertex 95.39999999999998 63.675000000000026 31.199999552277085
  endloop
endfacet
facet normal 1.0 -6.876058529642308e-18 5.067516137164251e-16
  outer loop
    vertex 95.4 53.39999999999999 18.099999999999994
    vertex 95.39999999999998 51.675000000000026 31.199999552277085
    vertex 95.4 53.39999999999999 14.099999999999994
  endloop
endfacet
facet normal 1.0 -6.876058529642308e-18 5.067516137164251e-16
  outer loop
    vertex 95.39999999999998 63.675000000000026 31.199999552277085
    vertex 95.4 53.39999999999999 18.099999999999994
    vertex 95.4 61.39999999999999 18.099999999999994
  endloop
endfacet
facet normal 1.0 -6.876058529642308e-18 5.067516137164251e-16
  outer loop
    vertex 95.39999999999998 63.675000000000026 31.199999552277085
    vertex 95.4 61.39999999999999 18.099999999999994
    vertex 95.4 63.675000000000004 -3.0
  endloop
endfacet
facet normal 1.0 -6.876058529642308e-18 5.067516137164251e-16
  outer loop
    vertex 95.4 63.675000000000004 -3.0
    vertex 95.4 61.39999999999999 18.099999999999994
    vertex 95.4 63.675000000000004 -6.0
  endloop
endfacet
facet normal 1.0 -6.876058529642308e-18 5.067516137164251e-16
  outer loop
    vertex 95.39999999999998 63.675000000000026 31.199999552277085
    vertex 95.4 63.675000000000004 -3.0
    vertex 95.39999999999998 63.675000000000026 28.199999552277085
  endloop
endfacet
facet normal 1.0 -6.876058529642308e-18 5.067516137164251e-16
  outer loop
    vertex 95.4 29.224999999999998 -6.0
    vertex 95.4 17.224999999999994 -3.0
    vertex 95.4 17.224999999999994 -6.0
  endloop
endfacet
facet normal 1.0 -6.876058529642308e-18 5.067516137164251e-16
  outer loop
    vertex 95.4 17.224999999999994 -3.0
    vertex 95.4 29.224999999999998 -6.0
    vertex 95.4 18.599999999999998 12.849999999999996
  endloop
endfacet
facet normal 1.0 -6.876058529642308e-18 5.067516137164251e-16
  outer loop
    vertex 95.4 17.224999999999994 -3.0
    vertex 95.4 18.599999999999998 12.849999999999996
    vertex 95.39999999999998 17.22500000000003 28.199999552277085
  endloop
endfacet
facet normal 1.0 -6.876058529642308e-18 5.067516137164251e-16
  outer loop
    vertex 95.39999999999998 17.22500000000003 28.199999552277085
    vertex 95.4 18.599999999999998 12.849999999999996
    vertex 95.39999999999998 17.22500000000003 31.199999552277085
  endloop
endfacet
facet normal 1.0 -6.876058529642308e-18 5.067516137164251e-16
  outer loop
    vertex 95.4 18.599999999999998 12.849999999999996
    vertex 95.4 29.224999999999998 -6.0
    vertex 95.4 29.224999999999998 -3.0
  endloop
endfacet
facet normal 1.0 -6.876058529642308e-18 5.067516137164251e-16
  outer loop
    vertex 95.4 18.599999999999998 12.849999999999996
    vertex 95.4 29.224999999999998 -3.0
    vertex 95.4 37.4 12.849999999999996
  endloop
endfacet
facet normal 1.0 -6.876058529642308e-18 5.067516137164251e-16
  outer loop
    vertex 95.4 37.4 12.849999999999996
    vertex 95.4 29.224999999999998 -3.0
    vertex 95.4 51.675000000000004 -3.0
  endloop
endfacet
facet normal 1.0 -6.876058529642308e-18 5.067516137164251e-16
  outer loop
    vertex 95.4 37.4 12.849999999999996
    vertex 95.4 51.675000000000004 -3.0
    vertex 95.4 37.4 19.349999999999994
  endloop
endfacet
facet normal 1.0 -6.876058529642308e-18 5.067516137164251e-16
  outer loop
    vertex 95.4 37.4 19.349999999999994
    vertex 95.4 51.675000000000004 -3.0
    vertex 95.4 48.90252057848474 16.029043649659737
  endloop
endfacet
facet normal 1.0 -6.876058529642308e-18 5.067516137164251e-16
  outer loop
    vertex 95.4 48.90252057848474 16.029043649659737
    vertex 95.4 51.675000000000004 -3.0
    vertex 95.4 48.95487372040556 15.773294757281134
  endloop
endfacet
facet normal 1.0 -6.876058529642308e-18 5.067516137164251e-16
  outer loop
    vertex 95.4 48.95487372040556 15.773294757281134
    vertex 95.4 51.675000000000004 -3.0
    vertex 95.4 49.07163565638571 15.539810287287882
  endloop
endfacet
facet normal 1.0 -6.876058529642308e-18 5.067516137164251e-16
  outer loop
    vertex 95.4 49.07163565638571 15.539810287287882
    vertex 95.4 51.675000000000004 -3.0
    vertex 95.4 49.244849253446375 15.344501820458685
  endloop
endfacet
facet normal 1.0 -6.876058529642308e-18 5.067516137164251e-16
  outer loop
    vertex 95.4 49.244849253446375 15.344501820458685
    vertex 95.4 51.675000000000004 -3.0
    vertex 95.4 49.46271029119686 15.200679306045457
  endloop
endfacet
facet normal 1.0 -6.876058529642308e-18 5.067516137164251e-16
  outer loop
    vertex 95.4 49.46271029119686 15.200679306045457
    vertex 95.4 51.675000000000004 -3.0
    vertex 95.4 49.71037189994687 15.118144010727512
  endloop
endfacet
facet normal 1.0 -6.876058529642308e-18 5.067516137164251e-16
  outer loop
    vertex 95.4 49.71037189994687 15.118144010727512
    vertex 95.4 51.675000000000004 -3.0
    vertex 95.4 49.97095635034025 15.102520578484748
  endloop
endfacet
facet normal 1.0 -6.876058529642308e-18 5.067516137164251e-16
  outer loop
    vertex 95.4 49.97095635034025 15.102520578484748
    vertex 95.4 51.675000000000004 -3.0
    vertex 95.4 50.22670524271886 15.154873720405565
  endloop
endfacet
facet normal 1.0 -6.876058529642308e-18 5.067516137164251e-16
  outer loop
    vertex 95.4 50.22670524271886 15.154873720405565
    vertex 95.4 51.675000000000004 -3.0
    vertex 95.4 50.46018971271211 15.271635656385715
  endloop
endfacet
facet normal 1.0 -6.876058529642308e-18 5.067516137164251e-16
  outer loop
    vertex 95.4 50.46018971271211 15.271635656385715
    vertex 95.4 51.675000000000004 -3.0
    vertex 95.4 50.655498179541304 15.444849253446375
  endloop
endfacet
facet normal 1.0 -6.876058529642308e-18 5.067516137164251e-16
  outer loop
    vertex 95.4 50.655498179541304 15.444849253446375
    vertex 95.4 51.675000000000004 -3.0
    vertex 95.4 50.799320693954535 15.662710291196863
  endloop
endfacet
facet normal 1.0 -6.876058529642308e-18 5.067516137164251e-16
  outer loop
    vertex 95.4 50.799320693954535 15.662710291196863
    vertex 95.4 51.675000000000004 -3.0
    vertex 95.4 50.88185598927247 15.910371899946876
  endloop
endfacet
facet normal 1.0 -6.876058529642308e-18 5.067516137164251e-16
  outer loop
    vertex 95.4 50.88185598927247 15.910371899946876
    vertex 95.4 51.675000000000004 -3.0
    vertex 95.4 50.89747942151524 16.170956350340255
  endloop
endfacet
facet normal 1.0 -6.876058529642308e-18 5.067516137164251e-16
  outer loop
    vertex 95.4 37.4 19.349999999999994
    vertex 95.39999999999998 29.22500000000003 28.199999552277085
    vertex 95.4 18.599999999999998 19.349999999999994
  endloop
endfacet
facet normal 1.0 -6.876058529642308e-18 5.067516137164251e-16
  outer loop
    vertex 95.39999999999998 29.22500000000003 28.199999552277085
    vertex 95.4 37.4 19.349999999999994
    vertex 95.39999999999998 51.675000000000026 28.199999552277085
  endloop
endfacet
facet normal 1.0 -6.876058529642308e-18 5.067516137164251e-16
  outer loop
    vertex 95.39999999999998 51.675000000000026 28.199999552277085
    vertex 95.4 37.4 19.349999999999994
    vertex 95.4 48.91814401072751 16.289628100053115
  endloop
endfacet
facet normal 1.0 -6.876058529642308e-18 5.067516137164251e-16
  outer loop
    vertex 95.4 48.91814401072751 16.289628100053115
    vertex 95.4 37.4 19.349999999999994
    vertex 95.4 48.90252057848474 16.029043649659737
  endloop
endfacet
facet normal 1.0 -6.876058529642308e-18 5.067516137164251e-16
  outer loop
    vertex 95.39999999999998 51.675000000000026 28.199999552277085
    vertex 95.4 48.91814401072751 16.289628100053115
    vertex 95.4 49.000679306045456 16.53728970880313
  endloop
endfacet
facet normal 1.0 -6.876058529642308e-18 5.067516137164251e-16
  outer loop
    vertex 95.39999999999998 51.675000000000026 28.199999552277085
    vertex 95.4 49.000679306045456 16.53728970880313
    vertex 95.4 49.14450182045868 16.755150746553618
  endloop
endfacet
facet normal 1.0 -6.876058529642308e-18 5.067516137164251e-16
  outer loop
    vertex 95.39999999999998 51.675000000000026 28.199999552277085
    vertex 95.4 49.14450182045868 16.755150746553618
    vertex 95.4 49.250217340054206 16.84890687352323
  endloop
endfacet
facet normal 1.0 -6.876058529642308e-18 5.067516137164251e-16
  outer loop
    vertex 95.39999999999998 51.675000000000026 28.199999552277085
    vertex 95.4 49.250217340054206 16.84890687352323
    vertex 95.4 49.339810287287875 16.928364343614277
  endloop
endfacet
facet normal 1.0 -6.876058529642308e-18 5.067516137164251e-16
  outer loop
    vertex 95.39999999999998 51.675000000000026 28.199999552277085
    vertex 95.4 49.339810287287875 16.928364343614277
    vertex 95.4 49.57329475728113 17.045126279594427
  endloop
endfacet
facet normal 1.0 -6.876058529642308e-18 5.067516137164251e-16
  outer loop
    vertex 95.39999999999998 51.675000000000026 28.199999552277085
    vertex 95.4 49.57329475728113 17.045126279594427
    vertex 95.4 49.82904364965974 17.097479421515242
  endloop
endfacet
facet normal 1.0 -6.876058529642308e-18 5.067516137164251e-16
  outer loop
    vertex 95.39999999999998 51.675000000000026 28.199999552277085
    vertex 95.4 49.82904364965974 17.097479421515242
    vertex 95.4 49.89999999999999 17.093225208610132
  endloop
endfacet
facet normal 1.0 -6.876058529642308e-18 5.067516137164251e-16
  outer loop
    vertex 95.39999999999998 51.675000000000026 28.199999552277085
    vertex 95.4 49.89999999999999 17.093225208610132
    vertex 95.4 50.08962810005312 17.08185598927248
  endloop
endfacet
facet normal 1.0 -6.876058529642308e-18 5.067516137164251e-16
  outer loop
    vertex 95.39999999999998 51.675000000000026 28.199999552277085
    vertex 95.4 50.08962810005312 17.08185598927248
    vertex 95.4 50.33728970880312 16.999320693954534
  endloop
endfacet
facet normal 1.0 -6.876058529642308e-18 5.067516137164251e-16
  outer loop
    vertex 95.39999999999998 51.675000000000026 28.199999552277085
    vertex 95.4 50.33728970880312 16.999320693954534
    vertex 95.4 50.555150746553615 16.855498179541307
  endloop
endfacet
facet normal 1.0 -6.876058529642308e-18 5.067516137164251e-16
  outer loop
    vertex 95.39999999999998 51.675000000000026 28.199999552277085
    vertex 95.4 50.555150746553615 16.855498179541307
    vertex 95.4 50.728364343614274 16.66018971271211
  endloop
endfacet
facet normal 1.0 -6.876058529642308e-18 5.067516137164251e-16
  outer loop
    vertex 95.39999999999998 51.675000000000026 28.199999552277085
    vertex 95.4 50.728364343614274 16.66018971271211
    vertex 95.4 50.845126279594425 16.426705242718857
  endloop
endfacet
facet normal 1.0 -6.876058529642308e-18 5.067516137164251e-16
  outer loop
    vertex 95.39999999999998 51.675000000000026 28.199999552277085
    vertex 95.4 50.845126279594425 16.426705242718857
    vertex 95.4 50.89747942151524 16.170956350340255
  endloop
endfacet
facet normal 1.0 -6.876058529642308e-18 5.067516137164251e-16
  outer loop
    vertex 95.39999999999998 51.675000000000026 28.199999552277085
    vertex 95.4 50.89747942151524 16.170956350340255
    vertex 95.4 51.675000000000004 -3.0
  endloop
endfacet
facet normal 1.0 -6.876058529642308e-18 5.067516137164251e-16
  outer loop
    vertex 95.39999999999998 17.22500000000003 31.199999552277085
    vertex 95.4 18.599999999999998 19.349999999999994
    vertex 95.39999999999998 29.22500000000003 31.199999552277085
  endloop
endfacet
facet normal 1.0 -6.876058529642308e-18 5.067516137164251e-16
  outer loop
    vertex 95.4 18.599999999999998 19.349999999999994
    vertex 95.39999999999998 17.22500000000003 31.199999552277085
    vertex 95.4 18.599999999999998 12.849999999999996
  endloop
endfacet
facet normal 1.0 -6.876058529642308e-18 5.067516137164251e-16
  outer loop
    vertex 95.39999999999998 29.22500000000003 31.199999552277085
    vertex 95.4 18.599999999999998 19.349999999999994
    vertex 95.39999999999998 29.22500000000003 28.199999552277085
  endloop
endfacet
facet normal 1.0 -6.876058529642308e-18 5.067516137164251e-16
  outer loop
    vertex 95.4 17.224999999999994 -3.0
    vertex 95.4 5.999999999999999 -2.0
    vertex 95.4 5.999999999999999 -3.0
  endloop
endfacet
facet normal 1.0 -6.876058529642308e-18 5.067516137164251e-16
  outer loop
    vertex 95.4 5.999999999999999 -2.0
    vertex 95.4 17.224999999999994 -3.0
    vertex 95.4 6.0 7.35
  endloop
endfacet
facet normal 1.0 -6.876058529642308e-18 5.067516137164251e-16
  outer loop
    vertex 95.4 6.0 7.35
    vertex 95.4 17.224999999999994 -3.0
    vertex 95.4 6.0 19.35
  endloop
endfacet
facet normal 1.0 -6.876058529642308e-18 5.067516137164251e-16
  outer loop
    vertex 95.4 6.0 19.35
    vertex 95.4 17.224999999999994 -3.0
    vertex 95.4 6.0 28.199999999999992
  endloop
endfacet
facet normal 1.0 -6.876058529642308e-18 5.067516137164251e-16
  outer loop
    vertex 95.4 6.0 28.199999999999992
    vertex 95.4 17.224999999999994 -3.0
    vertex 95.39999999999998 17.22500000000003 28.199999552277085
  endloop
endfacet
facet normal 1.0 -6.876058529642308e-18 5.067516137164251e-16
  outer loop
    vertex 95.4 3.000000000000011 7.35
    vertex 95.4 6.0 19.35
    vertex 95.4 3.000000000000004 19.35
  endloop
endfacet
facet normal 1.0 -6.876058529642308e-18 5.067516137164251e-16
  outer loop
    vertex 95.4 6.0 19.35
    vertex 95.4 3.000000000000011 7.35
    vertex 95.4 6.0 7.35
  endloop
endfacet
facet normal 1.0 -0.0 -0.0
  outer loop
    vertex 98.4 29.224999999999998 -6.0
    vertex 98.4 17.224999999999994 -3.0
    vertex 98.4 17.224999999999994 -6.0
  endloop
endfacet
facet normal 1.0 -0.0 -0.0
  outer loop
    vertex 98.4 17.224999999999994 -3.0
    vertex 98.4 29.224999999999998 -6.0
    vertex 98.4 18.599999999999998 12.849999999999996
  endloop
endfacet
facet normal 1.0 -0.0 -0.0
  outer loop
    vertex 98.4 17.224999999999994 -3.0
    vertex 98.4 18.599999999999998 12.849999999999996
    vertex 98.4 17.22500000000003 28.199999999999992
  endloop
endfacet
facet normal 1.0 -0.0 -0.0
  outer loop
    vertex 98.4 17.22500000000003 28.199999999999992
    vertex 98.4 18.599999999999998 12.849999999999996
    vertex 98.4 17.22500000000003 31.199999552277085
  endloop
endfacet
facet normal 1.0 -0.0 -0.0
  outer loop
    vertex 98.4 18.599999999999998 12.849999999999996
    vertex 98.4 29.224999999999998 -6.0
    vertex 98.4 29.224999999999998 -3.0
  endloop
endfacet
facet normal 1.0 -0.0 -0.0
  outer loop
    vertex 98.4 18.599999999999998 12.849999999999996
    vertex 98.4 29.224999999999998 -3.0
    vertex 98.4 37.4 12.849999999999996
  endloop
endfacet
facet normal 1.0 -0.0 -0.0
  outer loop
    vertex 98.4 37.4 12.849999999999996
    vertex 98.4 29.224999999999998 -3.0
    vertex 98.4 51.675000000000026 -3.0
  endloop
endfacet
facet normal 1.0 -0.0 -0.0
  outer loop
    vertex 98.4 37.4 12.849999999999996
    vertex 98.4 51.675000000000026 -3.0
    vertex 98.4 37.4 19.349999999999994
  endloop
endfacet
facet normal 1.0 -0.0 -0.0
  outer loop
    vertex 98.4 37.4 19.349999999999994
    vertex 98.4 51.675000000000026 -3.0
    vertex 98.4 48.90252057848474 16.029043649659737
  endloop
endfacet
facet normal 1.0 -0.0 -0.0
  outer loop
    vertex 98.4 48.90252057848474 16.029043649659737
    vertex 98.4 51.675000000000026 -3.0
    vertex 98.4 48.95487372040556 15.773294757281134
  endloop
endfacet
facet normal 1.0 -0.0 -0.0
  outer loop
    vertex 98.4 48.95487372040556 15.773294757281134
    vertex 98.4 51.675000000000026 -3.0
    vertex 98.4 49.07163565638571 15.539810287287882
  endloop
endfacet
facet normal 1.0 -0.0 -0.0
  outer loop
    vertex 98.4 49.07163565638571 15.539810287287882
    vertex 98.4 51.675000000000026 -3.0
    vertex 98.4 49.244849253446375 15.344501820458685
  endloop
endfacet
facet normal 1.0 -0.0 -0.0
  outer loop
    vertex 98.4 49.244849253446375 15.344501820458685
    vertex 98.4 51.675000000000026 -3.0
    vertex 98.4 49.46271029119686 15.200679306045457
  endloop
endfacet
facet normal 1.0 -0.0 -0.0
  outer loop
    vertex 98.4 49.46271029119686 15.200679306045457
    vertex 98.4 51.675000000000026 -3.0
    vertex 98.4 49.71037189994687 15.118144010727512
  endloop
endfacet
facet normal 1.0 -0.0 -0.0
  outer loop
    vertex 98.4 49.71037189994687 15.118144010727512
    vertex 98.4 51.675000000000026 -3.0
    vertex 98.4 49.97095635034025 15.102520578484748
  endloop
endfacet
facet normal 1.0 -0.0 -0.0
  outer loop
    vertex 98.4 49.97095635034025 15.102520578484748
    vertex 98.4 51.675000000000026 -3.0
    vertex 98.4 50.22670524271886 15.154873720405565
  endloop
endfacet
facet normal 1.0 -0.0 -0.0
  outer loop
    vertex 98.4 50.22670524271886 15.154873720405565
    vertex 98.4 51.675000000000026 -3.0
    vertex 98.4 50.46018971271211 15.271635656385715
  endloop
endfacet
facet normal 1.0 -0.0 -0.0
  outer loop
    vertex 98.4 50.46018971271211 15.271635656385715
    vertex 98.4 51.675000000000026 -3.0
    vertex 98.4 50.655498179541304 15.444849253446375
  endloop
endfacet
facet normal 1.0 -0.0 -0.0
  outer loop
    vertex 98.4 50.655498179541304 15.444849253446375
    vertex 98.4 51.675000000000026 -3.0
    vertex 98.4 50.799320693954535 15.662710291196863
  endloop
endfacet
facet normal 1.0 -0.0 -0.0
  outer loop
    vertex 98.4 50.799320693954535 15.662710291196863
    vertex 98.4 51.675000000000026 -3.0
    vertex 98.4 50.88185598927247 15.910371899946876
  endloop
endfacet
facet normal 1.0 -0.0 -0.0
  outer loop
    vertex 98.4 50.88185598927247 15.910371899946876
    vertex 98.4 51.675000000000026 -3.0
    vertex 98.4 50.89747942151524 16.170956350340255
  endloop
endfacet
facet normal 1.0 -0.0 -0.0
  outer loop
    vertex 98.4 37.4 19.349999999999994
    vertex 98.4 29.22500000000003 28.199999999999992
    vertex 98.4 18.599999999999998 19.349999999999994
  endloop
endfacet
facet normal 1.0 -0.0 -0.0
  outer loop
    vertex 98.4 29.22500000000003 28.199999999999992
    vertex 98.4 37.4 19.349999999999994
    vertex 98.4 51.67587620036368 28.199999999999992
  endloop
endfacet
facet normal 1.0 -0.0 -0.0
  outer loop
    vertex 98.4 51.67587620036368 28.199999999999992
    vertex 98.4 37.4 19.349999999999994
    vertex 98.4 48.91814401072751 16.289628100053115
  endloop
endfacet
facet normal 1.0 -0.0 -0.0
  outer loop
    vertex 98.4 48.91814401072751 16.289628100053115
    vertex 98.4 37.4 19.349999999999994
    vertex 98.4 48.90252057848474 16.029043649659737
  endloop
endfacet
facet normal 1.0 -0.0 -0.0
  outer loop
    vertex 98.4 51.67587620036368 28.199999999999992
    vertex 98.4 48.91814401072751 16.289628100053115
    vertex 98.4 49.000679306045456 16.53728970880313
  endloop
endfacet
facet normal 1.0 -0.0 -0.0
  outer loop
    vertex 98.4 51.67587620036368 28.199999999999992
    vertex 98.4 49.000679306045456 16.53728970880313
    vertex 98.4 49.14450182045868 16.755150746553618
  endloop
endfacet
facet normal 1.0 -0.0 -0.0
  outer loop
    vertex 98.4 51.67587620036368 28.199999999999992
    vertex 98.4 49.14450182045868 16.755150746553618
    vertex 98.4 49.250217340054206 16.84890687352323
  endloop
endfacet
facet normal 1.0 -0.0 -0.0
  outer loop
    vertex 98.4 51.67587620036368 28.199999999999992
    vertex 98.4 49.250217340054206 16.84890687352323
    vertex 98.4 49.339810287287875 16.928364343614277
  endloop
endfacet
facet normal 1.0 -0.0 -0.0
  outer loop
    vertex 98.4 51.67587620036368 28.199999999999992
    vertex 98.4 49.339810287287875 16.928364343614277
    vertex 98.4 49.57329475728113 17.045126279594427
  endloop
endfacet
facet normal 1.0 -0.0 -0.0
  outer loop
    vertex 98.4 51.67587620036368 28.199999999999992
    vertex 98.4 49.57329475728113 17.045126279594427
    vertex 98.4 49.82904364965974 17.097479421515242
  endloop
endfacet
facet normal 1.0 -0.0 -0.0
  outer loop
    vertex 98.4 51.67587620036368 28.199999999999992
    vertex 98.4 49.82904364965974 17.097479421515242
    vertex 98.4 49.89999999999999 17.093225208610132
  endloop
endfacet
facet normal 1.0 -0.0 -0.0
  outer loop
    vertex 98.4 51.67587620036368 28.199999999999992
    vertex 98.4 49.89999999999999 17.093225208610132
    vertex 98.4 50.08962810005312 17.08185598927248
  endloop
endfacet
facet normal 1.0 -0.0 -0.0
  outer loop
    vertex 98.4 51.67587620036368 28.199999999999992
    vertex 98.4 50.08962810005312 17.08185598927248
    vertex 98.4 50.33728970880312 16.999320693954534
  endloop
endfacet
facet normal 1.0 -0.0 -0.0
  outer loop
    vertex 98.4 51.67587620036368 28.199999999999992
    vertex 98.4 50.33728970880312 16.999320693954534
    vertex 98.4 50.555150746553615 16.855498179541307
  endloop
endfacet
facet normal 1.0 -0.0 -0.0
  outer loop
    vertex 98.4 51.67587620036368 28.199999999999992
    vertex 98.4 50.555150746553615 16.855498179541307
    vertex 98.4 50.728364343614274 16.66018971271211
  endloop
endfacet
facet normal 1.0 -0.0 -0.0
  outer loop
    vertex 98.4 51.67587620036368 28.199999999999992
    vertex 98.4 50.728364343614274 16.66018971271211
    vertex 98.4 50.845126279594425 16.426705242718857
  endloop
endfacet
facet normal 1.0 -0.0 -0.0
  outer loop
    vertex 98.4 51.67587620036368 28.199999999999992
    vertex 98.4 50.845126279594425 16.426705242718857
    vertex 98.4 50.89747942151524 16.170956350340255
  endloop
endfacet
facet normal 1.0 -0.0 -0.0
  outer loop
    vertex 98.4 51.67587620036368 28.199999999999992
    vertex 98.4 50.89747942151524 16.170956350340255
    vertex 98.4 51.675000000000026 -3.0
  endloop
endfacet
facet normal 1.0 -0.0 -0.0
  outer loop
    vertex 98.4 17.22500000000003 31.199999552277085
    vertex 98.4 18.599999999999998 19.349999999999994
    vertex 98.4 29.22500000000003 31.199999552277085
  endloop
endfacet
facet normal 1.0 -0.0 -0.0
  outer loop
    vertex 98.4 18.599999999999998 19.349999999999994
    vertex 98.4 17.22500000000003 31.199999552277085
    vertex 98.4 18.599999999999998 12.849999999999996
  endloop
endfacet
facet normal 1.0 -0.0 -0.0
  outer loop
    vertex 98.4 29.22500000000003 31.199999552277085
    vertex 98.4 18.599999999999998 19.349999999999994
    vertex 98.4 29.22500000000003 28.199999999999992
  endloop
endfacet
facet normal 1.0 -0.0 -0.0
  outer loop
    vertex 98.4 51.67587620036368 28.199999999999992
    vertex 98.4 63.675000000000026 31.199999552277085
    vertex 98.4 51.675000000000026 31.199999552277085
  endloop
endfacet
facet normal 1.0 -0.0 -0.0
  outer loop
    vertex 98.4 63.675000000000026 31.199999552277085
    vertex 98.4 51.67587620036368 28.199999999999992
    vertex 98.4 53.39999999999999 18.099999999999994
  endloop
endfacet
facet normal 1.0 -0.0 -0.0
  outer loop
    vertex 98.4 53.39999999999999 18.099999999999994
    vertex 98.4 51.67587620036368 28.199999999999992
    vertex 98.4 53.39999999999999 14.099999999999994
  endloop
endfacet
facet normal 1.0 -0.0 -0.0
  outer loop
    vertex 98.4 63.675000000000026 31.199999552277085
    vertex 98.4 53.39999999999999 18.099999999999994
    vertex 98.4 61.39999999999999 18.099999999999994
  endloop
endfacet
facet normal 1.0 -0.0 -0.0
  outer loop
    vertex 98.4 63.675000000000026 31.199999552277085
    vertex 98.4 61.39999999999999 18.099999999999994
    vertex 98.4 63.675000000000004 -3.0000000000000004
  endloop
endfacet
facet normal 1.0 -0.0 -0.0
  outer loop
    vertex 98.4 63.675000000000004 -3.0000000000000004
    vertex 98.4 61.39999999999999 18.099999999999994
    vertex 98.4 63.675000000000004 -6.0
  endloop
endfacet
facet normal 1.0 -0.0 -0.0
  outer loop
    vertex 98.4 63.675000000000026 31.199999552277085
    vertex 98.4 63.675000000000004 -3.0000000000000004
    vertex 98.4 63.67587620036368 28.199999999999992
  endloop
endfacet
facet normal 1.0 -0.0 -0.0
  outer loop
    vertex 98.4 63.67587620036368 28.199999999999992
    vertex 98.4 63.675000000000004 -3.0000000000000004
    vertex 98.4 63.9 16.099999999999994
  endloop
endfacet
facet normal 1.0 -0.0 -0.0
  outer loop
    vertex 98.4 63.9 16.099999999999994
    vertex 98.4 63.675000000000004 -3.0000000000000004
    vertex 98.4 63.93407417371093 15.841180954897476
  endloop
endfacet
facet normal 1.0 -0.0 -0.0
  outer loop
    vertex 98.4 63.93407417371093 15.841180954897476
    vertex 98.4 63.675000000000004 -3.0000000000000004
    vertex 98.4 64.03397459621556 15.599999999999996
  endloop
endfacet
facet normal 1.0 -0.0 -0.0
  outer loop
    vertex 98.4 64.03397459621556 15.599999999999996
    vertex 98.4 63.675000000000004 -3.0000000000000004
    vertex 98.4 74.9 -3.0000000000000004
  endloop
endfacet
facet normal 1.0 -0.0 -0.0
  outer loop
    vertex 98.4 64.03397459621556 15.599999999999996
    vertex 98.4 74.9 -3.0000000000000004
    vertex 98.4 64.19289321881344 15.39289321881345
  endloop
endfacet
facet normal 1.0 -0.0 -0.0
  outer loop
    vertex 98.4 64.19289321881344 15.39289321881345
    vertex 98.4 74.9 -3.0000000000000004
    vertex 98.4 64.39999999999999 15.23397459621556
  endloop
endfacet
facet normal 1.0 -0.0 -0.0
  outer loop
    vertex 98.4 64.39999999999999 15.23397459621556
    vertex 98.4 74.9 -3.0000000000000004
    vertex 98.4 64.64118095489746 15.13407417371093
  endloop
endfacet
facet normal 1.0 -0.0 -0.0
  outer loop
    vertex 98.4 64.64118095489746 15.13407417371093
    vertex 98.4 74.9 -3.0000000000000004
    vertex 98.4 64.89999999999999 15.099999999999998
  endloop
endfacet
facet normal 1.0 -0.0 -0.0
  outer loop
    vertex 98.4 64.89999999999999 15.099999999999998
    vertex 98.4 74.9 -3.0000000000000004
    vertex 98.4 65.15881904510252 15.13407417371093
  endloop
endfacet
facet normal 1.0 -0.0 -0.0
  outer loop
    vertex 98.4 65.15881904510252 15.13407417371093
    vertex 98.4 74.9 -3.0000000000000004
    vertex 98.4 65.39999999999999 15.23397459621556
  endloop
endfacet
facet normal 1.0 -0.0 -0.0
  outer loop
    vertex 98.4 65.39999999999999 15.23397459621556
    vertex 98.4 74.9 -3.0000000000000004
    vertex 98.4 65.60710678118654 15.39289321881345
  endloop
endfacet
facet normal 1.0 -0.0 -0.0
  outer loop
    vertex 98.4 65.60710678118654 15.39289321881345
    vertex 98.4 74.9 -3.0000000000000004
    vertex 98.4 65.76602540378443 15.599999999999996
  endloop
endfacet
facet normal 1.0 -0.0 -0.0
  outer loop
    vertex 98.4 65.76602540378443 15.599999999999996
    vertex 98.4 74.9 -3.0000000000000004
    vertex 98.4 65.86592582628907 15.841180954897476
  endloop
endfacet
facet normal 1.0 -0.0 -0.0
  outer loop
    vertex 98.4 65.86592582628907 15.841180954897476
    vertex 98.4 74.9 -3.0000000000000004
    vertex 98.4 65.89999999999999 16.099999999999994
  endloop
endfacet
facet normal 1.0 -0.0 -0.0
  outer loop
    vertex 98.4 77.9 7.35
    vertex 98.4 74.9 19.349999999999998
    vertex 98.4 74.9 7.350000000000002
  endloop
endfacet
facet normal 1.0 -0.0 -0.0
  outer loop
    vertex 98.4 74.9 19.349999999999998
    vertex 98.4 77.9 7.35
    vertex 98.4 77.9 19.349999999999998
  endloop
endfacet
facet normal 1.0 -0.0 -0.0
  outer loop
    vertex 98.4 63.67587620036368 28.199999999999992
    vertex 98.4 64.19289321881344 16.807106781186544
    vertex 98.4 74.9 28.200000000000006
  endloop
endfacet
facet normal 1.0 -0.0 -0.0
  outer loop
    vertex 98.4 64.19289321881344 16.807106781186544
    vertex 98.4 63.67587620036368 28.199999999999992
    vertex 98.4 64.03397459621556 16.599999999999994
  endloop
endfacet
facet normal 1.0 -0.0 -0.0
  outer loop
    vertex 98.4 64.03397459621556 16.599999999999994
    vertex 98.4 63.67587620036368 28.199999999999992
    vertex 98.4 63.93407417371092 16.358819045102514
  endloop
endfacet
facet normal 1.0 -0.0 -0.0
  outer loop
    vertex 98.4 63.93407417371092 16.358819045102514
    vertex 98.4 63.67587620036368 28.199999999999992
    vertex 98.4 63.9 16.099999999999994
  endloop
endfacet
facet normal 1.0 -0.0 -0.0
  outer loop
    vertex 98.4 74.9 28.200000000000006
    vertex 98.4 64.19289321881344 16.807106781186544
    vertex 98.4 64.24879274989397 16.849999999999994
  endloop
endfacet
facet normal 1.0 -0.0 -0.0
  outer loop
    vertex 98.4 74.9 28.200000000000006
    vertex 98.4 64.24879274989397 16.849999999999994
    vertex 98.4 64.39999999999999 16.966025403784432
  endloop
endfacet
facet normal 1.0 -0.0 -0.0
  outer loop
    vertex 98.4 74.9 28.200000000000006
    vertex 98.4 64.39999999999999 16.966025403784432
    vertex 98.4 64.64118095489746 17.065925826289064
  endloop
endfacet
facet normal 1.0 -0.0 -0.0
  outer loop
    vertex 98.4 74.9 28.200000000000006
    vertex 98.4 64.64118095489746 17.065925826289064
    vertex 98.4 64.89999999999999 17.099999999999994
  endloop
endfacet
facet normal 1.0 -0.0 -0.0
  outer loop
    vertex 98.4 74.9 28.200000000000006
    vertex 98.4 64.89999999999999 17.099999999999994
    vertex 98.4 65.15881904510252 17.065925826289064
  endloop
endfacet
facet normal 1.0 -0.0 -0.0
  outer loop
    vertex 98.4 74.9 28.200000000000006
    vertex 98.4 65.15881904510252 17.065925826289064
    vertex 98.4 65.39999999999999 16.966025403784432
  endloop
endfacet
facet normal 1.0 -0.0 -0.0
  outer loop
    vertex 98.4 74.9 28.200000000000006
    vertex 98.4 65.39999999999999 16.966025403784432
    vertex 98.4 65.55120725010602 16.849999999999994
  endloop
endfacet
facet normal 1.0 -0.0 -0.0
  outer loop
    vertex 98.4 74.9 28.200000000000006
    vertex 98.4 65.55120725010602 16.849999999999994
    vertex 98.4 65.60710678118654 16.807106781186544
  endloop
endfacet
facet normal 1.0 -0.0 -0.0
  outer loop
    vertex 98.4 74.9 28.200000000000006
    vertex 98.4 65.60710678118654 16.807106781186544
    vertex 98.4 65.76602540378443 16.599999999999994
  endloop
endfacet
facet normal 1.0 -0.0 -0.0
  outer loop
    vertex 98.4 74.9 28.200000000000006
    vertex 98.4 65.76602540378443 16.599999999999994
    vertex 98.4 65.86592582628906 16.358819045102514
  endloop
endfacet
facet normal 1.0 -0.0 -0.0
  outer loop
    vertex 98.4 74.9 28.200000000000006
    vertex 98.4 65.86592582628906 16.358819045102514
    vertex 98.4 65.89999999999999 16.099999999999994
  endloop
endfacet
facet normal 1.0 -0.0 -0.0
  outer loop
    vertex 98.4 74.9 28.200000000000006
    vertex 98.4 65.89999999999999 16.099999999999994
    vertex 98.4 74.9 -3.0000000000000004
  endloop
endfacet
facet normal 1.0 -0.0 -0.0
  outer loop
    vertex 98.4 74.9 28.200000000000006
    vertex 98.4 74.9 -3.0000000000000004
    vertex 98.4 74.9 7.350000000000002
  endloop
endfacet
facet normal 1.0 -0.0 -0.0
  outer loop
    vertex 98.4 74.9 28.200000000000006
    vertex 98.4 74.9 7.350000000000002
    vertex 98.4 74.9 19.349999999999998
  endloop
endfacet
facet normal 1.0 -0.0 -0.0
  outer loop
    vertex 98.4 17.224999999999994 -3.0
    vertex 98.4 6.0 -2.0
    vertex 98.4 6.0 -3.0
  endloop
endfacet
facet normal 1.0 -0.0 -0.0
  outer loop
    vertex 98.4 6.0 -2.0
    vertex 98.4 17.224999999999994 -3.0
    vertex 98.4 6.0 -1.4999999999999996
  endloop
endfacet
facet normal 1.0 -0.0 -0.0
  outer loop
    vertex 98.4 6.0 -1.4999999999999996
    vertex 98.4 17.224999999999994 -3.0
    vertex 98.4 6.0 7.35
  endloop
endfacet
facet normal 1.0 -0.0 -0.0
  outer loop
    vertex 98.4 6.0 7.35
    vertex 98.4 17.224999999999994 -3.0
    vertex 98.4 6.000000000000001 19.35
  endloop
endfacet
facet normal 1.0 -0.0 -0.0
  outer loop
    vertex 98.4 6.000000000000001 19.35
    vertex 98.4 17.224999999999994 -3.0
    vertex 98.4 6.000000000000002 28.199999999999992
  endloop
endfacet
facet normal 1.0 -0.0 -0.0
  outer loop
    vertex 98.4 6.000000000000002 28.199999999999992
    vertex 98.4 17.224999999999994 -3.0
    vertex 98.4 12.0 28.199999999999992
  endloop
endfacet
facet normal 1.0 -0.0 -0.0
  outer loop
    vertex 98.4 12.0 28.199999999999992
    vertex 98.4 17.224999999999994 -3.0
    vertex 98.4 17.22500000000003 28.199999999999992
  endloop
endfacet
facet normal 1.0 -0.0 -0.0
  outer loop
    vertex 98.4 3.0000000000000058 7.35
    vertex 98.4 6.000000000000001 19.35
    vertex 98.4 3.000000000000003 19.35
  endloop
endfacet
facet normal 1.0 -0.0 -0.0
  outer loop
    vertex 98.4 6.000000000000001 19.35
    vertex 98.4 3.0000000000000058 7.35
    vertex 98.4 6.0 7.35
  endloop
endfacet
facet normal 1.0 -0.0 -0.0
  outer loop
    vertex 98.4 63.675000000000004 -6.0
    vertex 98.4 51.675000000000026 -3.0
    vertex 98.4 51.675000000000004 -6.0
  endloop
endfacet
facet normal 1.0 -0.0 -0.0
  outer loop
    vertex 98.4 51.675000000000026 -3.0
    vertex 98.4 63.675000000000004 -6.0
    vertex 98.4 53.39999999999999 14.099999999999994
  endloop
endfacet
facet normal 1.0 -0.0 -0.0
  outer loop
    vertex 98.4 51.675000000000026 -3.0
    vertex 98.4 53.39999999999999 14.099999999999994
    vertex 98.4 51.67587620036368 28.199999999999992
  endloop
endfacet
facet normal 1.0 -0.0 -0.0
  outer loop
    vertex 98.4 53.39999999999999 14.099999999999994
    vertex 98.4 63.675000000000004 -6.0
    vertex 98.4 61.39999999999999 14.099999999999994
  endloop
endfacet
facet normal 1.0 -0.0 -0.0
  outer loop
    vertex 98.4 61.39999999999999 14.099999999999994
    vertex 98.4 63.675000000000004 -6.0
    vertex 98.4 61.39999999999999 18.099999999999994
  endloop
endfacet
facet normal 5.874930171974797e-17 -1.5701372397260014e-17 1.0
  outer loop
    vertex 98.4 6.0 -3.0
    vertex 95.4 17.224999999999994 -3.0
    vertex 95.4 5.999999999999999 -3.0
  endloop
endfacet
facet normal 5.874930171974797e-17 -1.5701372397260014e-17 1.0
  outer loop
    vertex 95.4 17.224999999999994 -3.0
    vertex 98.4 6.0 -3.0
    vertex 98.4 17.224999999999994 -3.0
  endloop
endfacet
facet normal 1.762479051592439e-16 1.5701372397259995e-17 1.0
  outer loop
    vertex 98.4 63.675000000000004 -3.0000000000000004
    vertex 95.4 74.9 -3.0
    vertex 95.4 63.675000000000004 -3.0
  endloop
endfacet
facet normal 1.762479051592439e-16 1.5701372397259995e-17 1.0
  outer loop
    vertex 95.4 74.9 -3.0
    vertex 98.4 63.675000000000004 -3.0000000000000004
    vertex 98.4 74.9 -3.0000000000000004
  endloop
endfacet
facet normal 1.1749860343949593e-16 6.16332737893457e-35 1.0
  outer loop
    vertex 98.4 29.224999999999998 -3.0
    vertex 95.4 51.675000000000004 -3.0
    vertex 95.4 29.224999999999998 -3.0
  endloop
endfacet
facet normal 1.1749860343949593e-16 6.16332737893457e-35 1.0
  outer loop
    vertex 95.4 51.675000000000004 -3.0
    vertex 98.4 29.224999999999998 -3.0
    vertex 98.4 51.675000000000026 -3.0
  endloop
endfacet
facet normal -0.0 1.0 -0.0
  outer loop
    vertex 95.4 63.675000000000004 -3.0
    vertex 98.4 63.675000000000004 -6.0
    vertex 95.4 63.675000000000004 -6.0
  endloop
endfacet
facet normal -0.0 1.0 -0.0
  outer loop
    vertex 98.4 63.675000000000004 -6.0
    vertex 95.4 63.675000000000004 -3.0
    vertex 98.4 63.675000000000004 -3.0000000000000004
  endloop
endfacet
facet normal 3.75995531006387e-15 -1.0 3.759955310063863e-15
  outer loop
    vertex 98.4 51.675000000000026 -3.0
    vertex 95.4 51.675000000000004 -6.0
    vertex 98.4 51.675000000000004 -6.0
  endloop
endfacet
facet normal 3.75995531006387e-15 -1.0 3.759955310063863e-15
  outer loop
    vertex 95.4 51.675000000000004 -6.0
    vertex 98.4 51.675000000000026 -3.0
    vertex 95.4 51.675000000000004 -3.0
  endloop
endfacet
facet normal 0.0 0.0 -1.0
  outer loop
    vertex 98.4 63.675000000000004 -6.0
    vertex 95.4 51.675000000000004 -6.0
    vertex 95.4 63.675000000000004 -6.0
  endloop
endfacet
facet normal 0.0 0.0 -1.0
  outer loop
    vertex 95.4 51.675000000000004 -6.0
    vertex 98.4 63.675000000000004 -6.0
    vertex 98.4 51.675000000000004 -6.0
  endloop
endfacet
facet normal -0.0 1.0 -0.0
  outer loop
    vertex 95.4 29.224999999999998 -3.0
    vertex 98.4 29.224999999999998 -6.0
    vertex 95.4 29.224999999999998 -6.0
  endloop
endfacet
facet normal -0.0 1.0 -0.0
  outer loop
    vertex 98.4 29.224999999999998 -6.0
    vertex 95.4 29.224999999999998 -3.0
    vertex 98.4 29.224999999999998 -3.0
  endloop
endfacet
facet normal 0.0 -1.0 0.0
  outer loop
    vertex 98.4 17.224999999999994 -3.0
    vertex 95.4 17.224999999999994 -6.0
    vertex 98.4 17.224999999999994 -6.0
  endloop
endfacet
facet normal 0.0 -1.0 0.0
  outer loop
    vertex 95.4 17.224999999999994 -6.0
    vertex 98.4 17.224999999999994 -3.0
    vertex 95.4 17.224999999999994 -3.0
  endloop
endfacet
facet normal 0.0 0.0 -1.0
  outer loop
    vertex 98.4 29.224999999999998 -6.0
    vertex 95.4 17.224999999999994 -6.0
    vertex 95.4 29.224999999999998 -6.0
  endloop
endfacet
facet normal 0.0 0.0 -1.0
  outer loop
    vertex 95.4 17.224999999999994 -6.0
    vertex 98.4 29.224999999999998 -6.0
    vertex 98.4 17.224999999999994 -6.0
  endloop
endfacet
endsolid Case 2.3_right
