<?xml version="1.0" standalone="no"?>
<!DOCTYPE svg PUBLIC "-//W3C//DTD SVG 1.1//EN" "http://www.w3.org/Graphics/SVG/1.1/DTD/svg11.dtd">
<svg width="99.90492957043273mm" height="611.4098482662968mm"
 viewBox="0 0 99.90492957043273 611.4098482662968"
 xmlns="http://www.w3.org/2000/svg" version="1.1"
 xmlns:xlink="http://www.w3.org/1999/xlink">
<desc>Output from Flights of Ideas SVG Sketchup Plugin</desc>

  <path id="face0-cut"
 style="fill:none;stroke:#0000FF;stroke-width:1;stroke-miterlimit:4;stroke-dasharray:none;stroke-linejoin:round;stroke-linecap:round"
        d="M 26.39999999999999,102.4 L 39.79999999999998,102.4 L 39.79999999999998,105.4 L 53.19999999999999,105.40000000000003 L 53.19999999999999,102.4 L 53.19999999999999,93.5 L 56.19999955227708,93.50000000000001 L 56.19999955227708,81.5 L 53.19999955227709,81.5 L 53.19558295925478,63.793885948051276 L 53.19999955227709,63.70000000000001 L 56.19999955227708,63.7 L 56.19999955227708,51.70000000000001 L 53.19999999999999,51.69999999999999 L 53.19999999999999,33.90000000000002 L 56.19999955227708,33.90000000000002 L 56.19999955227708,21.900000000000006 L 53.19999999999999,21.900000000000006 L 53.19999999999999,13.0 L 53.19999999999999,10.000000000000014 L 39.80000000000001,10.000000000000014 L 39.79999999999998,13.0 L 26.39999999999999,13.0 L 26.400000000000006,10.0 L 13.0,10.0 L 13.0,21.900000000000006 L 10.0,21.900000000000006 L 10.0,33.900000000000006 L 13.0,33.900000000000006 L 13.0,51.70000000000001 L 10.0,51.699999999999996 L 10.0,63.69999999999999 L 13.0,63.7 L 13.0,81.5 L 10.0,81.50000000000001 L 10.0,93.5 L 13.0,93.50000000000001 L 13.0,105.4 L 26.39999999999999,105.4 L 26.39999999999999,102.4 M 22.5,84.4 L 18.5,84.4 L 18.5,75.40000000000002 L 22.5,75.40000000000002 L 22.5,84.4 M 39.86592582628907,63.94118095489749 L 39.89999999999999,64.20000000000002 L 39.86592582628907,64.45881904510253 L 39.766025403784454,64.70000000000002 L 39.607106781186545,64.90710678118657 L 39.400000000000006,65.06602540378444 L 39.15881904510252,65.16592582628908 L 38.89999999999999,65.20000000000002 L 38.64118095489748,65.16592582628908 L 38.39999999999999,65.06602540378444 L 38.19289321881344,64.90710678118657 L 38.03397459621556,64.70000000000002 L 37.934074173710925,64.45881904510253 L 37.89999999999999,64.20000000000002 L 37.934074173710925,63.94118095489749 L 38.03397459621556,63.70000000000002 L 38.19289321881347,63.49289321881346 L 38.39999999999999,63.33397459621558 L 38.64118095489748,63.234074173710944 L 38.89999999999999,63.20000000000002 L 39.15881904510252,63.234074173710944 L 39.39999999999999,63.333974596215576 L 39.607106781186545,63.49289321881346 L 39.766025403784425,63.70000000000001 L 39.86592582628907,63.94118095489749 M 42.60000000000001,62.20000000000001 L 41.435314297038644,62.046666218300814 L 40.349999999999994,61.59711431702999 L 39.41801948466053,60.88198051533948 L 38.702885682970035,59.95000000000001 L 38.2533337816992,58.86468570296136 L 38.099999999999994,57.70000000000001 L 38.2533337816992,56.53531429703867 L 38.702885682970035,55.45000000000001 L 39.41801948466053,54.51801948466054 L 40.349999999999994,53.802885682970036 L 41.435314297038644,53.3533337816992 L 42.60000000000001,53.2 L 43.764685702961344,53.3533337816992 L 44.849999999999994,53.802885682970036 L 45.781980515339455,54.518019484660535 L 46.49711431702998,55.45000000000001 L 46.94666621830082,56.53531429703866 L 47.099999999999994,57.70000000000002 L 46.94666621830082,58.86468570296135 L 46.49711431702998,59.95000000000001 L 45.781980515339455,60.88198051533948 L 44.849999999999994,61.59711431702998 L 43.764685702961344,62.046666218300814 L 42.60000000000001,62.20000000000001 M 49.599999999999994,56.83397459621558 L 49.84118095489748,56.734074173710944 L 50.099999999999994,56.7 L 50.35881904510252,56.73407417371094 L 50.599999999999994,56.83397459621557 L 50.80710678118655,56.99289321881346 L 50.96602540378443,57.20000000000001 L 51.065925826289075,57.44118095489748 L 51.099999999999994,57.70000000000002 L 51.065925826289075,57.95881904510252 L 50.96602540378443,58.20000000000001 L 50.80710678118655,58.40710678118655 L 50.599999999999994,58.56602540378445 L 50.35881904510251,58.66592582628907 L 50.10000000000002,58.70000000000002 L 49.84118095489748,58.665925826289076 L 49.599999999999994,58.56602540378445 L 49.39289321881347,58.407106781186556 L 49.23397459621556,58.20000000000002 L 49.13407417371093,57.95881904510252 L 49.099999999999994,57.70000000000001 L 49.13407417371093,57.44118095489748 L 49.23397459621556,57.20000000000001 L 49.39289321881344,56.992893218813464 L 49.599999999999994,56.83397459621558 M 39.15881904510252,50.234074173710944 L 39.39999999999999,50.33397459621557 L 39.607106781186545,50.492893218813464 L 39.766025403784425,50.70000000000002 L 39.86592582628907,50.94118095489747 L 39.89999999999999,51.200000000000024 L 39.86592582628906,51.45881904510253 L 39.766025403784425,51.70000000000001 L 39.607106781186545,51.907106781186556 L 39.39999999999999,52.06602540378445 L 39.15881904510252,52.16592582628908 L 38.89999999999999,52.20000000000001 L 38.64118095489748,52.165925826289076 L 38.39999999999999,52.06602540378445 L 38.19289321881344,51.907106781186556 L 38.03397459621556,51.7 L 37.934074173710925,51.45881904510253 L 37.89999999999999,51.200000000000024 L 37.934074173710925,50.94118095489747 L 38.03397459621556,50.70000000000002 L 38.19289321881344,50.492893218813464 L 38.39999999999999,50.33397459621557 L 38.64118095489748,50.23407417371095 L 38.89999999999999,50.20000000000003 L 39.15881904510252,50.234074173710944 "
  />
  <path id="face1-cut"
 style="fill:none;stroke:#0000FF;stroke-width:1;stroke-miterlimit:4;stroke-dasharray:none;stroke-linejoin:round;stroke-linecap:round"
        d="M 89.9048462366222,212.30486771832977 L 89.90492957043273,118.89999473546926 L 89.87498697434123,118.4431533370185 L 89.78567069858032,117.99412870584518 L 89.63850897404765,117.56060368540382 L 89.43601978632255,117.14999603158994 L 89.18166779210351,116.76933137660745 L 88.87980503779083,116.42512301808767 L 88.5355964945393,116.12326047442122 L 88.1549316839004,115.86890871315865 L 87.74432390616873,115.6664197767143 L 87.31079879566845,115.51925831748721 L 86.8617741098361,115.42994231651718 L 86.40493280894738,115.40000000000003 L 13.467708463202921,115.40010970861525 L 12.938115831944394,115.47428511561102 L 12.424590187036461,115.62348886257571 L 11.937703711384152,115.84464922501283 L 11.487480155360249,116.13321307529135 L 11.083188473357957,116.48323961992782 L 10.7331519996673,116.88752270536752 L 10.444577092256946,117.33773917430159 L 10.22340477224856,117.82462021824202 L 10.07418841344893,118.33814219864107 L 10.0,118.86773300803674 L 10.00007789965878,212.30486771832977 L 10.074259198962551,212.8668423474842 L 10.22346227696475,213.3803698681566 L 10.44462200489276,213.86725840541618 L 10.733185299496128,214.31748423539526 L 11.083211419593464,214.7217784206402 L 11.487494269935954,215.07181763257444 L 11.93771075530369,215.36039550642465 L 12.424592130623484,215.58157100086174 L 12.938114819470677,215.73079070804482 L 13.46770677251584,215.80498259602845 L 86.40484311399779,215.80486771832835 L 86.8616849363597,215.77492474038758 L 87.31071007734725,215.6856081386384 L 87.74423560101988,215.53844614316648 L 88.15484377388579,215.3359567336591 L 88.53550898423451,215.08160455612355 L 88.87971795216491,214.77974164190056 L 89.18158117348361,214.43553294328586 L 89.43593369064033,214.0548679598648 L 89.63842346648337,213.64425996765576 L 89.78558584873736,213.21073457527802 L 89.87490285109702,212.761709513977 L 89.9048462366222,212.30486771832977 M 84.40246511964892,141.80248972397948 L 84.30246511964893,141.80248972397948 L 84.30246511964891,129.80248972397948 L 84.40246511964892,129.80248972397948 L 87.40246511964894,129.80248972397948 L 87.45399847031334,129.80248977272203 L 87.50246511964893,129.80248972397948 L 87.50246511964893,141.80248972397948 L 87.40247093234471,141.80248977272203 L 84.40246511964892,141.80248972397948 M 84.3721478658182,171.6024897239795 L 84.2721478658182,171.6024897239795 L 84.2721478658182,159.6024897239795 L 84.3721478658182,159.6024897239795 L 84.40563204712234,159.6024897224568 L 87.40246511964892,159.6024897239795 L 87.50246511964892,159.6024897239795 L 87.50246511964892,171.6024897239795 L 87.40246511964892,171.6024897239795 L 84.40488178751212,171.6024897224568 L 84.3721478658182,171.6024897239795 M 81.80246511964893,133.40248972397947 L 81.75476127645364,133.764836387123 L 81.61490068494714,134.1024897239795 L 81.39241461331011,134.39243921764066 L 81.10246511964893,134.6149252892777 L 80.76481178279246,134.7547858807842 L 80.40246511964894,134.80248972397948 L 80.0401184565054,134.75478588078417 L 79.70246511964893,134.6149252892777 L 79.41251562598775,134.39243921764066 L 79.19002955435072,134.10248972397946 L 79.05016896284424,133.764836387123 L 79.00246511964895,133.40248972397947 L 79.05016896284423,133.04014306083596 L 79.19002955435072,132.70248972397948 L 79.41251562598777,132.4125402303183 L 79.70246511964892,132.19005415868128 L 80.04011845650541,132.05019356717477 L 80.40246511964894,132.0024897239795 L 80.76481178279246,132.0501935671748 L 81.10246511964893,132.19005415868128 L 81.3924146133101,132.4125402303183 L 81.61490068494714,132.70248972397948 L 81.75476127645362,133.04014306083596 L 81.80246511964893,133.40248972397947 M 74.25246511964892,132.8524897239795 L 74.25246511964893,197.65248972397947 L 25.652465119648923,197.65248972397947 L 25.652465119648944,132.85248972397946 L 74.25246511964892,132.8524897239795 M 15.502465119648928,129.80248972397948 L 15.602465119648905,129.8024897239795 L 15.602465119648926,141.80248972397948 L 15.502465119648928,141.80248972397948 L 12.502465119648921,141.8024897239795 L 12.402465119648912,141.8024897239795 L 12.402465119648923,129.80248972397948 L 12.502465119648946,129.8024897239795 L 15.502465119648928,129.80248972397948 M 15.502465119648917,201.4024897239795 L 12.50246511964891,201.40248972397956 L 12.402465119648923,201.40248972397958 L 12.402465119648923,189.4024897239795 L 12.502465119648921,189.40248972397944 L 15.502465119648917,189.4024897239795 L 15.602465119648915,189.40248972397947 L 15.602465119648915,201.40248972397941 L 15.502465119648917,201.4024897239795 M 19.864811782792444,134.75478588078417 L 19.502465119648942,134.80248972397945 L 19.140118456505395,134.75478588078417 L 18.802465119648943,134.61492528927766 L 18.512515625987742,134.39243921764063 L 18.290029554350703,134.10248972397946 L 18.150168962844205,133.76483638712304 L 18.10246511964889,133.4024897239795 L 18.150168962844205,133.040143060836 L 18.29002955435068,132.7024897239795 L 18.512515625987753,132.4125402303183 L 18.80246511964891,132.19005415868128 L 19.140118456505384,132.05019356717477 L 19.50246511964892,132.0024897239795 L 19.86481178279247,132.05019356717474 L 20.20246511964893,132.19005415868122 L 20.4924146133101,132.4125402303183 L 20.714900684947136,132.70248972397948 L 20.8547612764536,133.04014306083596 L 20.902465119648905,133.4024897239795 L 20.854761276453612,133.764836387123 L 20.714900684947136,134.1024897239795 L 20.492414613310064,134.39243921764066 L 20.20246511964893,134.61492528927764 L 19.864811782792444,134.75478588078417 M 12.402465119648912,171.60248972397952 L 12.402465119648912,159.60248972397952 L 12.50246511964891,159.6024897239795 L 15.502465119648917,159.6024897239795 L 15.602465119648926,159.60248972397946 L 15.602465119648915,171.6024897239795 L 15.502465119648928,171.6024897239795 L 12.502465119648921,171.6024897239795 L 12.402465119648912,171.60248972397952 M 19.864811782792444,201.2547858807842 L 19.50246511964891,201.3024897239795 L 19.140118456505395,201.25478588078414 L 18.80246511964892,201.11492528927766 L 18.512515625987763,200.8924392176406 L 18.290029554350703,200.60248972397943 L 18.150168962844216,200.26483638712307 L 18.102465119648922,199.9024897239795 L 18.150168962844216,199.54014306083593 L 18.290029554350703,199.20248972397945 L 18.512515625987753,198.91254023031826 L 18.80246511964892,198.69005415868122 L 19.140118456505384,198.55019356717477 L 19.50246511964892,198.50248972397947 L 19.864811782792444,198.55019356717474 L 20.20246511964892,198.69005415868128 L 20.492414613310086,198.9125402303183 L 20.714900684947136,199.20248972397945 L 20.854761276453612,199.54014306083593 L 20.90246511964892,199.9024897239795 L 20.854761276453612,200.26483638712295 L 20.714900684947136,200.60248972397946 L 20.492414613310086,200.89243921764063 L 20.20246511964892,201.1149252892777 L 19.864811782792444,201.2547858807842 M 61.17746511964894,213.30248972397953 L 61.17746511964894,210.30248972397953 L 61.17746511964894,210.2024897239795 L 73.17746511964894,210.20248972397948 L 73.17746511964894,210.30248972397948 L 73.17746511964894,213.30248972397948 L 73.17746511964894,213.40248972397947 L 61.17746511964894,213.40248972397941 L 61.17746511964894,213.30248972397953 M 61.17746511964896,121.0024897239795 L 61.17746511964893,120.90248972397949 L 61.17746511964894,117.90248972397947 L 61.17746511964893,117.80248972397949 L 73.17746511964896,117.80248972397948 L 73.17746511964893,117.90248972397947 L 73.17746511964893,120.90248972397949 L 73.17746511964894,121.00248972397948 L 61.17746511964896,121.0024897239795 M 26.727465119648933,121.00248972397948 L 26.727465119648905,120.9024897239795 L 26.72746511964896,117.90248972397946 L 26.727465119648926,117.8024897239795 L 38.72746511964896,117.80248972397946 L 38.72746511964896,117.90248972397947 L 38.72746511964896,120.90248972397949 L 38.72746511964896,121.00248972397948 L 26.727465119648933,121.00248972397948 M 38.72746511964895,210.20248972397957 L 38.72746511964895,210.30248972397936 L 38.72746511964895,213.30248972397945 L 38.72746511964895,213.40248972397956 L 26.727465119648947,213.40248972397967 L 26.727465119648947,213.30248972397902 L 26.727465119648947,210.30248972397965 L 26.727465119648947,210.20248972397945 L 38.72746511964895,210.20248972397957 M 81.75476127645362,199.54014306083593 L 81.80246511964893,199.90248972397947 L 81.75476127645362,200.264836387123 L 81.61490068494714,200.60248972397946 L 81.3924146133101,200.89243921764063 L 81.10246511964893,201.11492528927766 L 80.76481178279246,201.25478588078414 L 80.40246511964894,201.30248972397948 L 80.04011845650541,201.25478588078414 L 79.70246511964893,201.11492528927766 L 79.41251562598777,200.89243921764063 L 79.19002955435072,200.60248972397946 L 79.05016896284424,200.264836387123 L 79.00246511964893,199.90248972397947 L 79.05016896284424,199.54014306083593 L 79.19002955435072,199.20248972397945 L 79.41251562598777,198.9125402303183 L 79.70246511964893,198.69005415868125 L 80.04011845650541,198.55019356717477 L 80.40246511964894,198.50248972397947 L 80.76481178279246,198.55019356717477 L 81.10246511964893,198.69005415868125 L 81.3924146133101,198.9125402303183 L 81.61490068494714,199.20248972397945 L 81.75476127645362,199.54014306083593 M 84.30246511964893,201.4024897239795 L 84.30246511964893,189.4024897239795 L 84.40246511964892,189.4024897239795 L 87.40246511964892,189.4024897239795 L 87.50246511964892,189.4024897239795 L 87.50246511964892,201.4024897239795 L 87.40246511964892,201.4024897239795 L 84.40246511964892,201.4024897239795 L 84.30246511964893,201.4024897239795 "
  />
  <path id="face2-cut"
 style="fill:none;stroke:#0000FF;stroke-width:1;stroke-miterlimit:4;stroke-dasharray:none;stroke-linejoin:round;stroke-linecap:round"
        d="M 39.8,225.80498259602845 L 26.39999999999999,225.80498259602845 L 26.39999999999999,228.80498259602845 L 23.5,228.80498259602845 L 23.0,228.80498259602845 L 22.0,228.80498259602842 L 13.0,228.80498259602848 L 13.0,240.02998259602845 L 10.0,240.02998259602845 L 10.0,252.02998259602845 L 13.0,252.02998259602845 L 13.0,274.4799825960285 L 10.0,274.47998259602844 L 10.0,286.47998259602844 L 13.0,286.47998259602844 L 13.0,297.70498259602846 L 22.0,297.70498259602846 L 26.400000000000006,297.70498259602846 L 26.40000000000002,300.70498259602846 L 39.8,300.70498259602846 L 39.8,297.70498259602846 L 53.20000000000002,297.70498259602846 L 53.19999999999999,286.4808587963921 L 56.19999955227709,286.47998259602844 L 56.19999955227709,274.4799825960285 L 53.19999999999999,274.4808587963921 L 53.19999999999999,252.02998259602847 L 56.19999955227709,252.02998259602847 L 56.19999955227709,240.02998259602847 L 53.19999999999999,240.02998259602847 L 53.19999999999999,234.80498259602845 L 53.19999999999999,229.02836196817782 L 53.19999999999999,228.80498259602845 L 39.8,228.80498259602845 L 39.8,225.80498259602845 M 37.849999999999994,272.8552051565375 L 37.849999999999994,253.6552051565375 L 44.349999999999994,253.6552051565375 L 44.349999999999994,272.8552051565375 L 37.849999999999994,272.8552051565375 "
  />
  <path id="face3-cut"
 style="fill:none;stroke:#0000FF;stroke-width:1;stroke-miterlimit:4;stroke-dasharray:none;stroke-linejoin:round;stroke-linecap:round"
        d="M 10.074177505598783,313.6430217750679 L 10.0,314.1726089939493 L 10.0,407.6421121868054 L 10.074177505598797,408.1716994056868 L 10.223383352572199,408.6852191618485 L 10.444545706858023,409.17209916532596 L 10.733111301496791,409.6223155825413 L 11.083139178806391,410.02659940591985 L 11.48742300218494,410.3766272832295 L 11.93763941940027,410.6651928778682 L 12.424519422877708,410.8863552321541 L 12.938039179039436,411.03556107912743 L 13.467626397920867,411.10973858472624 L 86.40475865351938,411.10984820226116 L 86.86160027004739,411.07990589875135 L 87.31062528385804,410.99058993655154 L 87.74415074657357,410.84342853771125 L 88.15475891163625,410.64093967649853 L 88.53542415410608,410.3865879961291 L 88.87963318114375,410.08472552771485 L 89.18149647634236,409.74051722574757 L 89.4358490710636,409.359852594228 L 89.63833891855076,408.94924491554195 L 89.78550135871272,408.51571980630723 L 89.87481839946405,408.06669500703356 L 89.90476180030088,407.6098534624279 L 89.90484577889735,314.2049825960292 L 89.87490279370569,313.74814092326346 L 89.7855861709091,313.2991159381727 L 89.63842414268682,312.8655905827502 L 89.43593469214288,312.45498259602897 L 89.18158246991665,312.07431759449787 L 88.87971951305026,311.73010886187546 L 88.53551078042783,311.4282459050087 L 88.15484577889733,311.173893682783 L 87.74423779217516,310.97140423223897 L 87.31071243675616,310.8242422040168 L 86.86168745166752,310.73492558122024 L 86.40484577889733,310.70498259602846 L 13.467626397920867,310.70498259602846 L 12.938039179039436,310.77916010162727 L 12.424519422877708,310.9283659486007 L 11.93763941940027,311.1495283028865 L 11.48742300218494,311.4380938975253 L 11.083139178806377,311.78812177483485 L 10.733111301496791,312.1924055982134 L 10.444545706858008,312.64262201542874 L 10.223383352572185,313.1295020189062 L 10.074177505598783,313.6430217750679 M 12.402377994348896,366.9073605903774 L 12.402377994348896,354.9073605903774 L 12.50237799434889,354.9073605903774 L 15.50237799434889,354.9073605903774 L 15.602377994348885,354.9073605903774 L 15.602377994348885,366.9073605903774 L 15.50237799434889,366.9073605903774 L 12.502377994348876,366.9073605903774 L 12.402377994348896,366.9073605903774 M 87.50237799434892,366.9073605903774 L 87.4023779943489,366.9073605903774 L 84.40237799434892,366.9073605903774 L 84.3023779943489,366.9073605903773 L 84.3023779943489,354.9073605903773 L 84.40237799434892,354.9073605903773 L 87.4023779943489,354.9073605903774 L 87.50237799434892,354.9073605903773 L 87.50237799434892,366.9073605903774 M 80.04003133120538,391.75506443357267 L 80.40237799434892,391.70736059037733 L 80.76472465749244,391.75506443357267 L 81.10237799434891,391.89492502507915 L 81.39232748801008,392.1174110967162 L 81.61481355964715,392.4073605903774 L 81.7546741511536,392.74501392723386 L 81.80237799434893,393.1073605903773 L 81.7546741511536,393.46970725352094 L 81.61481355964712,393.80736059037736 L 81.39232748801008,394.0973100840385 L 81.10237799434891,394.3197961556756 L 80.76472465749244,394.459656747182 L 80.40237799434895,394.50736059037735 L 80.04003133120538,394.459656747182 L 79.70237799434894,394.31979615567553 L 79.41242850068774,394.0973100840385 L 79.18994242905073,393.80736059037736 L 79.05008183754423,393.4697072535209 L 79.00237799434892,393.10736059037737 L 79.05008183754423,392.7450139272338 L 79.1899424290507,392.4073605903774 L 79.41242850068777,392.1174110967162 L 79.70237799434894,391.89492502507915 L 80.04003133120538,391.75506443357267 M 87.4023779943489,325.10736059037737 L 87.50237799434892,325.1073605903774 L 87.50237799434892,337.10736059037737 L 87.4023779943489,337.10736059037737 L 84.40237799434892,337.10736059037737 L 84.3023779943489,337.10736059037737 L 84.3023779943489,325.1073605903774 L 84.40237799434892,325.10736059037737 L 87.4023779943489,325.10736059037737 M 26.727377994348885,408.70736059037733 L 26.727377994348885,408.6073605903773 L 26.727377994348885,405.60736059037737 L 26.727377994348885,405.50736059037735 L 38.727377994348885,405.50736059037735 L 38.727377994348885,405.60736059037737 L 38.727377994348885,408.6073605903773 L 38.727377994348856,408.70736059037733 L 26.727377994348885,408.70736059037733 M 61.1773779943489,316.30736059037736 L 61.1773779943489,316.2073605903772 L 61.1773779943489,313.2073605903774 L 61.1773779943489,313.10736059037725 L 73.17737799434893,313.1073605903775 L 73.17737799434893,313.207360590378 L 73.1773779943489,316.20736059037733 L 73.1773779943489,316.3073605903772 L 61.1773779943489,316.30736059037736 M 26.727377994348885,316.30736059037736 L 26.727377994348885,316.2073605903774 L 26.727377994348885,313.2073605903774 L 26.727377994348885,313.10736059037737 L 38.727377994348885,313.10736059037725 L 38.727377994348885,313.2073605903776 L 38.727377994348885,316.20736059037733 L 38.727377994348885,316.30736059037736 L 26.727377994348885,316.30736059037736 M 84.40237799434892,384.70736059037733 L 87.4023779943489,384.7073605903774 L 87.50237799434892,384.70736059037733 L 87.50237799434892,396.70736059037733 L 87.4023779943489,396.70736059037733 L 84.40237799434892,396.70736059037733 L 84.3023779943489,396.70736059037733 L 84.3023779943489,384.70736059037733 L 84.40237799434892,384.70736059037733 M 61.1773779943489,408.70736059037733 L 61.1773779943489,408.60736059037737 L 61.1773779943489,405.6073605903773 L 61.1773779943489,405.50736059037735 L 73.1773779943489,405.50736059037735 L 73.1773779943489,405.60736059037737 L 73.1773779943489,408.60736059037737 L 73.1773779943489,408.70736059037733 L 61.1773779943489,408.70736059037733 M 15.50237799434889,396.70736059037733 L 12.50237799434889,396.70736059037733 L 12.402377994348882,396.70736059037733 L 12.402377994348882,384.70736059037733 L 12.50237799434889,384.70736059037733 L 15.50237799434889,384.70736059037733 L 15.602377994348885,384.70736059037733 L 15.602377994348885,396.70736059037733 L 15.50237799434889,396.70736059037733 M 19.14003133120535,391.75506443357267 L 19.502377994348876,391.70736059037733 L 19.864724657492403,391.75506443357267 L 20.20237799434888,391.89492502507915 L 20.492327488010048,392.1174110967162 L 20.638080860849215,392.30736059037736 L 20.714813559647098,392.4073605903774 L 20.854674151153574,392.7450139272338 L 20.902377994348868,393.10736059037737 L 20.854674151153574,393.4697072535209 L 20.714813559647098,393.80736059037736 L 20.492327488010048,394.09731008403855 L 20.20237799434888,394.31979615567553 L 19.86472465749243,394.45965674718207 L 19.502377994348876,394.50736059037735 L 19.14003133120535,394.45965674718207 L 18.802377994348873,394.31979615567553 L 18.512428500687705,394.09731008403855 L 18.289942429050683,393.80736059037736 L 18.150081837544192,393.4697072535209 L 18.102377994348885,393.1073605903773 L 18.150081837544178,392.7450139272338 L 18.289942429050654,392.4073605903774 L 18.51242850068772,392.1174110967162 L 18.802377994348873,391.89492502507915 L 19.14003133120535,391.75506443357267 M 79.05008183754423,326.9697072535208 L 79.00237799434892,326.60736059037737 L 79.05008183754423,326.24501392723386 L 79.1899424290507,325.9073605903774 L 79.41242850068774,325.6174110967162 L 79.70237799434894,325.39492502507915 L 80.04003133120538,325.25506443357267 L 80.40237799434892,325.2073605903774 L 80.76472465749244,325.25506443357267 L 81.10237799434891,325.39492502507915 L 81.39232748801008,325.6174110967162 L 81.61481355964715,325.9073605903774 L 81.7546741511536,326.24501392723386 L 81.80237799434893,326.60736059037737 L 81.7546741511536,326.96970725352094 L 81.61481355964715,327.3073605903774 L 81.39232748801008,327.59731008403855 L 81.10237799434891,327.81979615567553 L 80.76472465749244,327.95965674718207 L 80.40237799434892,328.00736059037735 L 80.04003133120538,327.95965674718207 L 79.70237799434894,327.81979615567553 L 79.41242850068774,327.59731008403855 L 79.1899424290507,327.3073605903773 L 79.05008183754423,326.9697072535208 M 15.602377994348885,325.10736059037737 L 15.602377994348885,337.10736059037737 L 15.50237799434889,337.10736059037737 L 12.502377994348876,337.10736059037737 L 12.402377994348896,337.10736059037737 L 12.402377994348896,325.10736059037737 L 12.50237799434889,325.10736059037737 L 15.50237799434889,325.10736059037737 L 15.602377994348885,325.10736059037737 M 19.86472465749243,327.95965674718207 L 19.502377994348876,328.00736059037735 L 19.14003133120535,327.95965674718207 L 18.802377994348873,327.8197961556756 L 18.51242850068772,327.59731008403855 L 18.289942429050654,327.30736059037736 L 18.150081837544192,326.9697072535209 L 18.102377994348885,326.60736059037737 L 18.150081837544192,326.2450139272338 L 18.289942429050654,325.9073605903774 L 18.51242850068772,325.6174110967162 L 18.802377994348873,325.39492502507915 L 19.14003133120535,325.25506443357267 L 19.502377994348876,325.20736059037733 L 19.86472465749243,325.25506443357267 L 20.20237799434888,325.39492502507915 L 20.492327488010048,325.6174110967162 L 20.714813559647098,325.9073605903774 L 20.854674151153574,326.2450139272338 L 20.902377994348896,326.60736059037737 L 20.854674151153574,326.9697072535209 L 20.714813559647098,327.30736059037736 L 20.492327488010048,327.59731008403855 L 20.20237799434888,327.8197961556756 L 19.86472465749243,327.95965674718207 M 70.50237799434892,357.60736059037737 L 70.50237799434892,364.60736059037737 L 63.50237799434892,364.60736059037737 L 63.50237799434892,357.60736059037737 L 70.50237799434892,357.60736059037737 "
  />
  <path id="face4-cut"
 style="fill:none;stroke:#0000FF;stroke-width:1;stroke-miterlimit:4;stroke-dasharray:none;stroke-linejoin:round;stroke-linecap:round"
        d="M 13.000000000000004,481.7848482022612 L 13.000000000000004,493.0098482022612 L 22.000000000000004,493.00984820226114 L 23.000000000000004,493.00984820226114 L 26.400000000000006,493.0098482022612 L 26.400000000000006,496.00984820226114 L 39.80000000000001,496.0098482022612 L 39.80000000000001,493.0098482022612 L 53.199999999999996,493.0098482022612 L 53.2,481.7848482022612 L 56.19999955227709,481.7848482022612 L 56.19999955227709,469.7848482022611 L 53.20000000000001,469.7848482022612 L 53.2,447.3348482022611 L 56.19999955227709,447.3348482022611 L 56.1999995522771,435.3348482022611 L 53.2,435.3348482022611 L 53.2,424.10984820226116 L 39.80000000000001,424.10984820226116 L 39.80000000000001,421.10984820226116 L 26.39999999999999,421.10984820226116 L 26.399999999999995,424.11078989750524 L 13.000000000000007,424.11148404234984 L 13.000000000000007,435.3348482022612 L 10.0,435.3348482022612 L 10.000000000000007,447.3348482022612 L 13.000000000000005,447.3348482022611 L 13.000000000000004,469.7848482022612 L 10.000000000000004,469.7848482022612 L 10.000000000000004,481.7848482022612 L 13.000000000000004,481.7848482022612 "
  />
  <path id="face5-cut"
 style="fill:none;stroke:#0000FF;stroke-width:1;stroke-miterlimit:4;stroke-dasharray:none;stroke-linejoin:round;stroke-linecap:round"
        d="M 53.19914027189057,543.7379617616194 L 53.199999551276136,529.9098481353541 L 56.19999942616695,529.9098481815531 L 56.19999955064466,517.9098481826129 L 53.19999999847357,517.9098481844254 L 53.19999981972577,509.0098226843012 L 53.19999977411442,506.5439782018742 L 53.19999999795248,506.0098482022612 L 39.799999998425946,506.0098482077827 L 39.799999998557325,509.0098482048649 L 26.399999999030793,509.00984821044733 L 26.39999999889943,506.0098482129679 L 12.999999999372902,506.00984821781674 L 12.999999999893998,517.909848206337 L 10.0,517.9098482077949 L 10.000000000525473,529.9098481773618 L 13.000000000419476,529.9098481747527 L 13.000000001198915,547.7098484794051 L 10.000000001304922,547.7098484709105 L 10.000000001830395,559.7098482995747 L 13.000000001724393,559.7098483015884 L 13.000000002503853,577.5098482705677 L 10.000000002609834,577.5098482696845 L 10.000000003135305,589.509848262653 L 13.00000000302932,589.5098482632702 L 13.0000000035504,601.4098482590325 L 26.400000003076926,601.409848261234 L 26.40000000294556,598.4098482622813 L 39.80000000247209,598.4098482648678 L 39.800000002603454,601.4098482636554 L 53.200000002129975,601.4098482662968 L 53.20000000199861,598.4098482676865 L 53.200000001608885,589.5098482728807 L 56.199999553779975,589.509848273698 L 56.1999995532545,577.5098482853729 L 53.20000000108342,577.5098482842186 L 53.200000000303966,559.7098483324146 L 56.199999552475056,559.7098483350018 L 56.19999955194959,547.7098486194831 L 53.19999955205558,547.7098486086826 L 53.19779517941092,547.6434801020828 L 53.19931924902288,545.1948772792982 L 53.19914027189057,543.7379617616194 M 42.390053790482234,576.0090738986488 L 42.52082888597537,576.0667407088697 L 43.4888116949955,576.4935840609418 L 44.42472987411384,577.2459644112046 L 45.13402705060825,578.2149414719626 L 45.56836579406966,579.3344810578578 L 45.69814663690989,580.528288396249 L 45.51452522916234,581.7150074898822 L 45.2007552220837,582.4265658884556 L 45.0300150663163,582.8137653936592 L 44.277634715278815,583.7496835722015 L 43.30865765360577,584.4589807482994 L 42.18911806673989,584.8933194915538 L 40.99531072739941,585.0231003343806 L 39.80859163290053,584.8394789268117 L 38.70983372838727,584.3549687643308 L 37.77391554926892,583.6025884138338 L 37.06461837277451,582.6336113528587 L 36.6302796293131,581.5140717668205 L 36.50396537392959,580.3521523180716 L 36.500498786472875,580.3202644283976 L 36.68412019422042,579.1335453348522 L 37.16863035706646,578.0347874312596 L 37.92101070810395,577.0988692529502 L 38.889987769776994,576.3895720770718 L 40.00952735664288,575.9552333339637 L 41.20333469598334,575.8254524911699 L 42.390053790482234,576.0090738986488 M 35.599999999022415,516.2418990049936 L 35.185786436650034,515.9240617605176 L 34.867949191447345,515.5098481989457 L 34.668148346424026,515.02748628997 L 34.5999999989819,514.5098482005426 L 34.66814834637868,513.9922101110225 L 34.867949191359756,513.5098482017795 L 35.18578643652617,513.0956346397975 L 35.59999999887073,512.7777973948146 L 35.67090442428503,512.7484278202555 L 35.78770158479037,512.7000488523005 L 36.08236190863988,512.5779965498332 L 36.59999999882365,512.5098482022561 L 37.1176380890134,512.5779965493495 L 37.59999999880005,512.7777973938747 L 38.014213561172426,513.0956346384557 L 38.33205080637512,513.5098482001158 L 38.53185165139844,513.9922101091394 L 38.59999999884056,514.5098481985617 L 38.53185165144377,515.0274862880252 L 38.332050806462696,515.509848197175 L 38.01421356129629,515.924061759052 L 37.599999998951745,516.2418990039463 L 37.52909557353744,516.2712685784985 L 37.412298413032104,516.319647546442 L 37.11763808918258,516.4416998488794 L 36.59999999899881,516.5098481964616 L 36.08236190880908,516.4416998494252 L 35.599999999022415,516.2418990049936 "
  />
  <path id="face0-interior"
 style="fill:none;stroke:#FF0000;stroke-width:1;stroke-miterlimit:4;stroke-dasharray:none;stroke-linejoin:round;stroke-linecap:round"
        d="M 26.39999999999999,102.4 M 39.79999999999998,102.4 M 39.79999999999998,105.4 M 53.19999999999999,105.40000000000003 M 53.19999999999999,102.4 M 53.19999999999999,93.5 M 56.19999955227708,93.50000000000001 M 56.19999955227708,81.5 M 53.19999955227709,81.5 M 53.19558295925478,63.793885948051276 M 53.19999955227709,63.70000000000001 M 56.19999955227708,63.7 M 56.19999955227708,51.70000000000001 M 53.19999999999999,51.69999999999999 M 53.19999999999999,33.90000000000002 M 56.19999955227708,33.90000000000002 M 56.19999955227708,21.900000000000006 M 53.19999999999999,21.900000000000006 M 53.19999999999999,13.0 M 53.19999999999999,10.000000000000014 M 39.80000000000001,10.000000000000014 M 39.79999999999998,13.0 M 26.39999999999999,13.0 M 26.400000000000006,10.0 M 13.0,10.0 M 13.0,21.900000000000006 M 10.0,21.900000000000006 M 10.0,33.900000000000006 M 13.0,33.900000000000006 M 13.0,51.70000000000001 M 10.0,51.699999999999996 M 10.0,63.69999999999999 M 13.0,63.7 M 13.0,81.5 M 10.0,81.50000000000001 M 10.0,93.5 M 13.0,93.50000000000001 M 13.0,105.4 M 26.39999999999999,105.4 M 22.5,84.4 M 18.5,84.4 M 18.5,75.40000000000002 M 22.5,75.40000000000002 M 39.86592582628907,63.94118095489749 M 39.89999999999999,64.20000000000002 M 39.86592582628907,64.45881904510253 M 39.766025403784454,64.70000000000002 M 39.607106781186545,64.90710678118657 M 39.400000000000006,65.06602540378444 M 39.15881904510252,65.16592582628908 M 38.89999999999999,65.20000000000002 M 38.64118095489748,65.16592582628908 M 38.39999999999999,65.06602540378444 M 38.19289321881344,64.90710678118657 M 38.03397459621556,64.70000000000002 M 37.934074173710925,64.45881904510253 M 37.89999999999999,64.20000000000002 M 37.934074173710925,63.94118095489749 M 38.03397459621556,63.70000000000002 M 38.19289321881347,63.49289321881346 M 38.39999999999999,63.33397459621558 M 38.64118095489748,63.234074173710944 M 38.89999999999999,63.20000000000002 M 39.15881904510252,63.234074173710944 M 39.39999999999999,63.333974596215576 M 39.607106781186545,63.49289321881346 M 39.766025403784425,63.70000000000001 M 42.60000000000001,62.20000000000001 M 41.435314297038644,62.046666218300814 M 40.349999999999994,61.59711431702999 M 39.41801948466053,60.88198051533948 M 38.702885682970035,59.95000000000001 M 38.2533337816992,58.86468570296136 M 38.099999999999994,57.70000000000001 M 38.2533337816992,56.53531429703867 M 38.702885682970035,55.45000000000001 M 39.41801948466053,54.51801948466054 M 40.349999999999994,53.802885682970036 M 41.435314297038644,53.3533337816992 M 42.60000000000001,53.2 M 43.764685702961344,53.3533337816992 M 44.849999999999994,53.802885682970036 M 45.781980515339455,54.518019484660535 M 46.49711431702998,55.45000000000001 M 46.94666621830082,56.53531429703866 M 47.099999999999994,57.70000000000002 M 46.94666621830082,58.86468570296135 M 46.49711431702998,59.95000000000001 M 45.781980515339455,60.88198051533948 M 44.849999999999994,61.59711431702998 M 43.764685702961344,62.046666218300814 M 49.599999999999994,56.83397459621558 M 49.84118095489748,56.734074173710944 M 50.099999999999994,56.7 M 50.35881904510252,56.73407417371094 M 50.599999999999994,56.83397459621557 M 50.80710678118655,56.99289321881346 M 50.96602540378443,57.20000000000001 M 51.065925826289075,57.44118095489748 M 51.099999999999994,57.70000000000002 M 51.065925826289075,57.95881904510252 M 50.96602540378443,58.20000000000001 M 50.80710678118655,58.40710678118655 M 50.599999999999994,58.56602540378445 M 50.35881904510251,58.66592582628907 M 50.10000000000002,58.70000000000002 M 49.84118095489748,58.665925826289076 M 49.599999999999994,58.56602540378445 M 49.39289321881347,58.407106781186556 M 49.23397459621556,58.20000000000002 M 49.13407417371093,57.95881904510252 M 49.099999999999994,57.70000000000001 M 49.13407417371093,57.44118095489748 M 49.23397459621556,57.20000000000001 M 49.39289321881344,56.992893218813464 M 39.15881904510252,50.234074173710944 M 39.39999999999999,50.33397459621557 M 39.607106781186545,50.492893218813464 M 39.766025403784425,50.70000000000002 M 39.86592582628907,50.94118095489747 M 39.89999999999999,51.200000000000024 M 39.86592582628906,51.45881904510253 M 39.766025403784425,51.70000000000001 M 39.607106781186545,51.907106781186556 M 39.39999999999999,52.06602540378445 M 39.15881904510252,52.16592582628908 M 38.89999999999999,52.20000000000001 M 38.64118095489748,52.165925826289076 M 38.39999999999999,52.06602540378445 M 38.19289321881344,51.907106781186556 M 38.03397459621556,51.7 M 37.934074173710925,51.45881904510253 M 37.89999999999999,51.200000000000024 M 37.934074173710925,50.94118095489747 M 38.03397459621556,50.70000000000002 M 38.19289321881344,50.492893218813464 M 38.39999999999999,50.33397459621557 M 38.64118095489748,50.23407417371095 M 38.89999999999999,50.20000000000003 "
  />
  <path id="face1-interior"
 style="fill:none;stroke:#FF0000;stroke-width:1;stroke-miterlimit:4;stroke-dasharray:none;stroke-linejoin:round;stroke-linecap:round"
        d="M 89.9048462366222,212.30486771832977 M 89.90492957043273,118.89999473546926 M 89.87498697434123,118.4431533370185 M 89.78567069858032,117.99412870584518 M 89.63850897404765,117.56060368540382 M 89.43601978632255,117.14999603158994 M 89.18166779210351,116.76933137660745 M 88.87980503779083,116.42512301808767 M 88.5355964945393,116.12326047442122 M 88.1549316839004,115.86890871315865 M 87.74432390616873,115.6664197767143 M 87.31079879566845,115.51925831748721 M 86.8617741098361,115.42994231651718 M 86.40493280894738,115.40000000000003 M 13.467708463202921,115.40010970861525 M 12.938115831944394,115.47428511561102 M 12.424590187036461,115.62348886257571 M 11.937703711384152,115.84464922501283 M 11.487480155360249,116.13321307529135 M 11.083188473357957,116.48323961992782 M 10.7331519996673,116.88752270536752 M 10.444577092256946,117.33773917430159 M 10.22340477224856,117.82462021824202 M 10.07418841344893,118.33814219864107 M 10.0,118.86773300803674 M 10.00007789965878,212.30486771832977 M 10.074259198962551,212.8668423474842 M 10.22346227696475,213.3803698681566 M 10.44462200489276,213.86725840541618 M 10.733185299496128,214.31748423539526 M 11.083211419593464,214.7217784206402 M 11.487494269935954,215.07181763257444 M 11.93771075530369,215.36039550642465 M 12.424592130623484,215.58157100086174 M 12.938114819470677,215.73079070804482 M 13.46770677251584,215.80498259602845 M 86.40484311399779,215.80486771832835 M 86.8616849363597,215.77492474038758 M 87.31071007734725,215.6856081386384 M 87.74423560101988,215.53844614316648 M 88.15484377388579,215.3359567336591 M 88.53550898423451,215.08160455612355 M 88.87971795216491,214.77974164190056 M 89.18158117348361,214.43553294328586 M 89.43593369064033,214.0548679598648 M 89.63842346648337,213.64425996765576 M 89.78558584873736,213.21073457527802 M 89.87490285109702,212.761709513977 M 84.40246511964892,141.80248972397948 M 84.30246511964893,141.80248972397948 M 84.30246511964891,129.80248972397948 M 84.40246511964892,129.80248972397948 M 87.40246511964894,129.80248972397948 M 87.45399847031334,129.80248977272203 M 87.50246511964893,129.80248972397948 M 87.50246511964893,141.80248972397948 M 87.40247093234471,141.80248977272203 M 84.3721478658182,171.6024897239795 M 84.2721478658182,171.6024897239795 M 84.2721478658182,159.6024897239795 M 84.3721478658182,159.6024897239795 M 84.40563204712234,159.6024897224568 M 87.40246511964892,159.6024897239795 M 87.50246511964892,159.6024897239795 M 87.50246511964892,171.6024897239795 M 87.40246511964892,171.6024897239795 M 84.40488178751212,171.6024897224568 M 81.80246511964893,133.40248972397947 M 81.75476127645364,133.764836387123 M 81.61490068494714,134.1024897239795 M 81.39241461331011,134.39243921764066 M 81.10246511964893,134.6149252892777 M 80.76481178279246,134.7547858807842 M 80.40246511964894,134.80248972397948 M 80.0401184565054,134.75478588078417 M 79.70246511964893,134.6149252892777 M 79.41251562598775,134.39243921764066 M 79.19002955435072,134.10248972397946 M 79.05016896284424,133.764836387123 M 79.00246511964895,133.40248972397947 M 79.05016896284423,133.04014306083596 M 79.19002955435072,132.70248972397948 M 79.41251562598777,132.4125402303183 M 79.70246511964892,132.19005415868128 M 80.04011845650541,132.05019356717477 M 80.40246511964894,132.0024897239795 M 80.76481178279246,132.0501935671748 M 81.10246511964893,132.19005415868128 M 81.3924146133101,132.4125402303183 M 81.61490068494714,132.70248972397948 M 81.75476127645362,133.04014306083596 M 74.25246511964892,132.8524897239795 M 74.25246511964893,197.65248972397947 M 25.652465119648923,197.65248972397947 M 25.652465119648944,132.85248972397946 M 15.502465119648928,129.80248972397948 M 15.602465119648905,129.8024897239795 M 15.602465119648926,141.80248972397948 M 15.502465119648928,141.80248972397948 M 12.502465119648921,141.8024897239795 M 12.402465119648912,141.8024897239795 M 12.402465119648923,129.80248972397948 M 12.502465119648946,129.8024897239795 M 15.502465119648917,201.4024897239795 M 12.50246511964891,201.40248972397956 M 12.402465119648923,201.40248972397958 M 12.402465119648923,189.4024897239795 M 12.502465119648921,189.40248972397944 M 15.502465119648917,189.4024897239795 M 15.602465119648915,189.40248972397947 M 15.602465119648915,201.40248972397941 M 19.864811782792444,134.75478588078417 M 19.502465119648942,134.80248972397945 M 19.140118456505395,134.75478588078417 M 18.802465119648943,134.61492528927766 M 18.512515625987742,134.39243921764063 M 18.290029554350703,134.10248972397946 M 18.150168962844205,133.76483638712304 M 18.10246511964889,133.4024897239795 M 18.150168962844205,133.040143060836 M 18.29002955435068,132.7024897239795 M 18.512515625987753,132.4125402303183 M 18.80246511964891,132.19005415868128 M 19.140118456505384,132.05019356717477 M 19.50246511964892,132.0024897239795 M 19.86481178279247,132.05019356717474 M 20.20246511964893,132.19005415868122 M 20.4924146133101,132.4125402303183 M 20.714900684947136,132.70248972397948 M 20.8547612764536,133.04014306083596 M 20.902465119648905,133.4024897239795 M 20.854761276453612,133.764836387123 M 20.714900684947136,134.1024897239795 M 20.492414613310064,134.39243921764066 M 20.20246511964893,134.61492528927764 M 12.402465119648912,171.60248972397952 M 12.402465119648912,159.60248972397952 M 12.50246511964891,159.6024897239795 M 15.502465119648917,159.6024897239795 M 15.602465119648926,159.60248972397946 M 15.602465119648915,171.6024897239795 M 15.502465119648928,171.6024897239795 M 12.502465119648921,171.6024897239795 M 19.864811782792444,201.2547858807842 M 19.50246511964891,201.3024897239795 M 19.140118456505395,201.25478588078414 M 18.80246511964892,201.11492528927766 M 18.512515625987763,200.8924392176406 M 18.290029554350703,200.60248972397943 M 18.150168962844216,200.26483638712307 M 18.102465119648922,199.9024897239795 M 18.150168962844216,199.54014306083593 M 18.290029554350703,199.20248972397945 M 18.512515625987753,198.91254023031826 M 18.80246511964892,198.69005415868122 M 19.140118456505384,198.55019356717477 M 19.50246511964892,198.50248972397947 M 19.864811782792444,198.55019356717474 M 20.20246511964892,198.69005415868128 M 20.492414613310086,198.9125402303183 M 20.714900684947136,199.20248972397945 M 20.854761276453612,199.54014306083593 M 20.90246511964892,199.9024897239795 M 20.854761276453612,200.26483638712295 M 20.714900684947136,200.60248972397946 M 20.492414613310086,200.89243921764063 M 20.20246511964892,201.1149252892777 M 61.17746511964894,213.30248972397953 M 61.17746511964894,210.30248972397953 M 61.17746511964894,210.2024897239795 M 73.17746511964894,210.20248972397948 M 73.17746511964894,210.30248972397948 M 73.17746511964894,213.30248972397948 M 73.17746511964894,213.40248972397947 M 61.17746511964894,213.40248972397941 M 61.17746511964896,121.0024897239795 M 61.17746511964893,120.90248972397949 M 61.17746511964894,117.90248972397947 M 61.17746511964893,117.80248972397949 M 73.17746511964896,117.80248972397948 M 73.17746511964893,117.90248972397947 M 73.17746511964893,120.90248972397949 M 73.17746511964894,121.00248972397948 M 26.727465119648933,121.00248972397948 M 26.727465119648905,120.9024897239795 M 26.72746511964896,117.90248972397946 M 26.727465119648926,117.8024897239795 M 38.72746511964896,117.80248972397946 M 38.72746511964896,117.90248972397947 M 38.72746511964896,120.90248972397949 M 38.72746511964896,121.00248972397948 M 38.72746511964895,210.20248972397957 M 38.72746511964895,210.30248972397936 M 38.72746511964895,213.30248972397945 M 38.72746511964895,213.40248972397956 M 26.727465119648947,213.40248972397967 M 26.727465119648947,213.30248972397902 M 26.727465119648947,210.30248972397965 M 26.727465119648947,210.20248972397945 M 81.75476127645362,199.54014306083593 M 81.80246511964893,199.90248972397947 M 81.75476127645362,200.264836387123 M 81.61490068494714,200.60248972397946 M 81.3924146133101,200.89243921764063 M 81.10246511964893,201.11492528927766 M 80.76481178279246,201.25478588078414 M 80.40246511964894,201.30248972397948 M 80.04011845650541,201.25478588078414 M 79.70246511964893,201.11492528927766 M 79.41251562598777,200.89243921764063 M 79.19002955435072,200.60248972397946 M 79.05016896284424,200.264836387123 M 79.00246511964893,199.90248972397947 M 79.05016896284424,199.54014306083593 M 79.19002955435072,199.20248972397945 M 79.41251562598777,198.9125402303183 M 79.70246511964893,198.69005415868125 M 80.04011845650541,198.55019356717477 M 80.40246511964894,198.50248972397947 M 80.76481178279246,198.55019356717477 M 81.10246511964893,198.69005415868125 M 81.3924146133101,198.9125402303183 M 81.61490068494714,199.20248972397945 M 84.30246511964893,201.4024897239795 M 84.30246511964893,189.4024897239795 M 84.40246511964892,189.4024897239795 M 87.40246511964892,189.4024897239795 M 87.50246511964892,189.4024897239795 M 87.50246511964892,201.4024897239795 M 87.40246511964892,201.4024897239795 M 84.40246511964892,201.4024897239795 "
  />
  <path id="face2-interior"
 style="fill:none;stroke:#FF0000;stroke-width:1;stroke-miterlimit:4;stroke-dasharray:none;stroke-linejoin:round;stroke-linecap:round"
        d="M 39.8,225.80498259602845 M 26.39999999999999,225.80498259602845 M 26.39999999999999,228.80498259602845 M 23.5,228.80498259602845 M 23.0,228.80498259602845 M 22.0,228.80498259602842 M 13.0,228.80498259602848 M 13.0,240.02998259602845 M 10.0,240.02998259602845 M 10.0,252.02998259602845 M 13.0,252.02998259602845 M 13.0,274.4799825960285 M 10.0,274.47998259602844 M 10.0,286.47998259602844 M 13.0,286.47998259602844 M 13.0,297.70498259602846 M 22.0,297.70498259602846 M 26.400000000000006,297.70498259602846 M 26.40000000000002,300.70498259602846 M 39.8,300.70498259602846 M 39.8,297.70498259602846 M 53.20000000000002,297.70498259602846 M 53.19999999999999,286.4808587963921 M 56.19999955227709,286.47998259602844 M 56.19999955227709,274.4799825960285 M 53.19999999999999,274.4808587963921 M 53.19999999999999,252.02998259602847 M 56.19999955227709,252.02998259602847 M 56.19999955227709,240.02998259602847 M 53.19999999999999,240.02998259602847 M 53.19999999999999,234.80498259602845 M 53.19999999999999,229.02836196817782 M 53.19999999999999,228.80498259602845 M 39.8,228.80498259602845 M 37.849999999999994,272.8552051565375 M 37.849999999999994,253.6552051565375 M 44.349999999999994,253.6552051565375 M 44.349999999999994,272.8552051565375 "
  />
  <path id="face3-interior"
 style="fill:none;stroke:#FF0000;stroke-width:1;stroke-miterlimit:4;stroke-dasharray:none;stroke-linejoin:round;stroke-linecap:round"
        d="M 10.074177505598783,313.6430217750679 M 10.0,314.1726089939493 M 10.0,407.6421121868054 M 10.074177505598797,408.1716994056868 M 10.223383352572199,408.6852191618485 M 10.444545706858023,409.17209916532596 M 10.733111301496791,409.6223155825413 M 11.083139178806391,410.02659940591985 M 11.48742300218494,410.3766272832295 M 11.93763941940027,410.6651928778682 M 12.424519422877708,410.8863552321541 M 12.938039179039436,411.03556107912743 M 13.467626397920867,411.10973858472624 M 86.40475865351938,411.10984820226116 M 86.86160027004739,411.07990589875135 M 87.31062528385804,410.99058993655154 M 87.74415074657357,410.84342853771125 M 88.15475891163625,410.64093967649853 M 88.53542415410608,410.3865879961291 M 88.87963318114375,410.08472552771485 M 89.18149647634236,409.74051722574757 M 89.4358490710636,409.359852594228 M 89.63833891855076,408.94924491554195 M 89.78550135871272,408.51571980630723 M 89.87481839946405,408.06669500703356 M 89.90476180030088,407.6098534624279 M 89.90484577889735,314.2049825960292 M 89.87490279370569,313.74814092326346 M 89.7855861709091,313.2991159381727 M 89.63842414268682,312.8655905827502 M 89.43593469214288,312.45498259602897 M 89.18158246991665,312.07431759449787 M 88.87971951305026,311.73010886187546 M 88.53551078042783,311.4282459050087 M 88.15484577889733,311.173893682783 M 87.74423779217516,310.97140423223897 M 87.31071243675616,310.8242422040168 M 86.86168745166752,310.73492558122024 M 86.40484577889733,310.70498259602846 M 13.467626397920867,310.70498259602846 M 12.938039179039436,310.77916010162727 M 12.424519422877708,310.9283659486007 M 11.93763941940027,311.1495283028865 M 11.48742300218494,311.4380938975253 M 11.083139178806377,311.78812177483485 M 10.733111301496791,312.1924055982134 M 10.444545706858008,312.64262201542874 M 10.223383352572185,313.1295020189062 M 12.402377994348896,366.9073605903774 M 12.402377994348896,354.9073605903774 M 12.50237799434889,354.9073605903774 M 15.50237799434889,354.9073605903774 M 15.602377994348885,354.9073605903774 M 15.602377994348885,366.9073605903774 M 15.50237799434889,366.9073605903774 M 12.502377994348876,366.9073605903774 M 87.50237799434892,366.9073605903774 M 87.4023779943489,366.9073605903774 M 84.40237799434892,366.9073605903774 M 84.3023779943489,366.9073605903773 M 84.3023779943489,354.9073605903773 M 84.40237799434892,354.9073605903773 M 87.4023779943489,354.9073605903774 M 87.50237799434892,354.9073605903773 M 80.04003133120538,391.75506443357267 M 80.40237799434892,391.70736059037733 M 80.76472465749244,391.75506443357267 M 81.10237799434891,391.89492502507915 M 81.39232748801008,392.1174110967162 M 81.61481355964715,392.4073605903774 M 81.7546741511536,392.74501392723386 M 81.80237799434893,393.1073605903773 M 81.7546741511536,393.46970725352094 M 81.61481355964712,393.80736059037736 M 81.39232748801008,394.0973100840385 M 81.10237799434891,394.3197961556756 M 80.76472465749244,394.459656747182 M 80.40237799434895,394.50736059037735 M 80.04003133120538,394.459656747182 M 79.70237799434894,394.31979615567553 M 79.41242850068774,394.0973100840385 M 79.18994242905073,393.80736059037736 M 79.05008183754423,393.4697072535209 M 79.00237799434892,393.10736059037737 M 79.05008183754423,392.7450139272338 M 79.1899424290507,392.4073605903774 M 79.41242850068777,392.1174110967162 M 79.70237799434894,391.89492502507915 M 87.4023779943489,325.10736059037737 M 87.50237799434892,325.1073605903774 M 87.50237799434892,337.10736059037737 M 87.4023779943489,337.10736059037737 M 84.40237799434892,337.10736059037737 M 84.3023779943489,337.10736059037737 M 84.3023779943489,325.1073605903774 M 84.40237799434892,325.10736059037737 M 26.727377994348885,408.70736059037733 M 26.727377994348885,408.6073605903773 M 26.727377994348885,405.60736059037737 M 26.727377994348885,405.50736059037735 M 38.727377994348885,405.50736059037735 M 38.727377994348885,405.60736059037737 M 38.727377994348885,408.6073605903773 M 38.727377994348856,408.70736059037733 M 61.1773779943489,316.30736059037736 M 61.1773779943489,316.2073605903772 M 61.1773779943489,313.2073605903774 M 61.1773779943489,313.10736059037725 M 73.17737799434893,313.1073605903775 M 73.17737799434893,313.207360590378 M 73.1773779943489,316.20736059037733 M 73.1773779943489,316.3073605903772 M 26.727377994348885,316.30736059037736 M 26.727377994348885,316.2073605903774 M 26.727377994348885,313.2073605903774 M 26.727377994348885,313.10736059037737 M 38.727377994348885,313.10736059037725 M 38.727377994348885,313.2073605903776 M 38.727377994348885,316.20736059037733 M 38.727377994348885,316.30736059037736 M 84.40237799434892,384.70736059037733 M 87.4023779943489,384.7073605903774 M 87.50237799434892,384.70736059037733 M 87.50237799434892,396.70736059037733 M 87.4023779943489,396.70736059037733 M 84.40237799434892,396.70736059037733 M 84.3023779943489,396.70736059037733 M 84.3023779943489,384.70736059037733 M 61.1773779943489,408.70736059037733 M 61.1773779943489,408.60736059037737 M 61.1773779943489,405.6073605903773 M 61.1773779943489,405.50736059037735 M 73.1773779943489,405.50736059037735 M 73.1773779943489,405.60736059037737 M 73.1773779943489,408.60736059037737 M 73.1773779943489,408.70736059037733 M 15.50237799434889,396.70736059037733 M 12.50237799434889,396.70736059037733 M 12.402377994348882,396.70736059037733 M 12.402377994348882,384.70736059037733 M 12.50237799434889,384.70736059037733 M 15.50237799434889,384.70736059037733 M 15.602377994348885,384.70736059037733 M 15.602377994348885,396.70736059037733 M 19.14003133120535,391.75506443357267 M 19.502377994348876,391.70736059037733 M 19.864724657492403,391.75506443357267 M 20.20237799434888,391.89492502507915 M 20.492327488010048,392.1174110967162 M 20.638080860849215,392.30736059037736 M 20.714813559647098,392.4073605903774 M 20.854674151153574,392.7450139272338 M 20.902377994348868,393.10736059037737 M 20.854674151153574,393.4697072535209 M 20.714813559647098,393.80736059037736 M 20.492327488010048,394.09731008403855 M 20.20237799434888,394.31979615567553 M 19.86472465749243,394.45965674718207 M 19.502377994348876,394.50736059037735 M 19.14003133120535,394.45965674718207 M 18.802377994348873,394.31979615567553 M 18.512428500687705,394.09731008403855 M 18.289942429050683,393.80736059037736 M 18.150081837544192,393.4697072535209 M 18.102377994348885,393.1073605903773 M 18.150081837544178,392.7450139272338 M 18.289942429050654,392.4073605903774 M 18.51242850068772,392.1174110967162 M 18.802377994348873,391.89492502507915 M 79.05008183754423,326.9697072535208 M 79.00237799434892,326.60736059037737 M 79.05008183754423,326.24501392723386 M 79.1899424290507,325.9073605903774 M 79.41242850068774,325.6174110967162 M 79.70237799434894,325.39492502507915 M 80.04003133120538,325.25506443357267 M 80.40237799434892,325.2073605903774 M 80.76472465749244,325.25506443357267 M 81.10237799434891,325.39492502507915 M 81.39232748801008,325.6174110967162 M 81.61481355964715,325.9073605903774 M 81.7546741511536,326.24501392723386 M 81.80237799434893,326.60736059037737 M 81.7546741511536,326.96970725352094 M 81.61481355964715,327.3073605903774 M 81.39232748801008,327.59731008403855 M 81.10237799434891,327.81979615567553 M 80.76472465749244,327.95965674718207 M 80.40237799434892,328.00736059037735 M 80.04003133120538,327.95965674718207 M 79.70237799434894,327.81979615567553 M 79.41242850068774,327.59731008403855 M 79.1899424290507,327.3073605903773 M 15.602377994348885,325.10736059037737 M 15.602377994348885,337.10736059037737 M 15.50237799434889,337.10736059037737 M 12.502377994348876,337.10736059037737 M 12.402377994348896,337.10736059037737 M 12.402377994348896,325.10736059037737 M 12.50237799434889,325.10736059037737 M 15.50237799434889,325.10736059037737 M 19.86472465749243,327.95965674718207 M 19.502377994348876,328.00736059037735 M 19.14003133120535,327.95965674718207 M 18.802377994348873,327.8197961556756 M 18.51242850068772,327.59731008403855 M 18.289942429050654,327.30736059037736 M 18.150081837544192,326.9697072535209 M 18.102377994348885,326.60736059037737 M 18.150081837544192,326.2450139272338 M 18.289942429050654,325.9073605903774 M 18.51242850068772,325.6174110967162 M 18.802377994348873,325.39492502507915 M 19.14003133120535,325.25506443357267 M 19.502377994348876,325.20736059037733 M 19.86472465749243,325.25506443357267 M 20.20237799434888,325.39492502507915 M 20.492327488010048,325.6174110967162 M 20.714813559647098,325.9073605903774 M 20.854674151153574,326.2450139272338 M 20.902377994348896,326.60736059037737 M 20.854674151153574,326.9697072535209 M 20.714813559647098,327.30736059037736 M 20.492327488010048,327.59731008403855 M 20.20237799434888,327.8197961556756 M 70.50237799434892,357.60736059037737 M 70.50237799434892,364.60736059037737 M 63.50237799434892,364.60736059037737 M 63.50237799434892,357.60736059037737 "
  />
  <path id="face4-interior"
 style="fill:none;stroke:#FF0000;stroke-width:1;stroke-miterlimit:4;stroke-dasharray:none;stroke-linejoin:round;stroke-linecap:round"
        d="M 13.000000000000004,481.7848482022612 M 13.000000000000004,493.0098482022612 M 22.000000000000004,493.00984820226114 M 23.000000000000004,493.00984820226114 M 26.400000000000006,493.0098482022612 M 26.400000000000006,496.00984820226114 M 39.80000000000001,496.0098482022612 M 39.80000000000001,493.0098482022612 M 53.199999999999996,493.0098482022612 M 53.2,481.7848482022612 M 56.19999955227709,481.7848482022612 M 56.19999955227709,469.7848482022611 M 53.20000000000001,469.7848482022612 M 53.2,447.3348482022611 M 56.19999955227709,447.3348482022611 M 56.1999995522771,435.3348482022611 M 53.2,435.3348482022611 M 53.2,424.10984820226116 M 39.80000000000001,424.10984820226116 M 39.80000000000001,421.10984820226116 M 26.39999999999999,421.10984820226116 M 26.399999999999995,424.11078989750524 M 13.000000000000007,424.11148404234984 M 13.000000000000007,435.3348482022612 M 10.0,435.3348482022612 M 10.000000000000007,447.3348482022612 M 13.000000000000005,447.3348482022611 M 13.000000000000004,469.7848482022612 M 10.000000000000004,469.7848482022612 M 10.000000000000004,481.7848482022612 "
  />
  <path id="face5-interior"
 style="fill:none;stroke:#FF0000;stroke-width:1;stroke-miterlimit:4;stroke-dasharray:none;stroke-linejoin:round;stroke-linecap:round"
        d="M 53.19914027189057,543.7379617616194 M 53.199999551276136,529.9098481353541 M 56.19999942616695,529.9098481815531 M 56.19999955064466,517.9098481826129 M 53.19999999847357,517.9098481844254 M 53.19999981972577,509.0098226843012 M 53.19999977411442,506.5439782018742 M 53.19999999795248,506.0098482022612 M 39.799999998425946,506.0098482077827 M 39.799999998557325,509.0098482048649 M 26.399999999030793,509.00984821044733 M 26.39999999889943,506.0098482129679 M 12.999999999372902,506.00984821781674 M 12.999999999893998,517.909848206337 M 10.0,517.9098482077949 M 10.000000000525473,529.9098481773618 M 13.000000000419476,529.9098481747527 M 13.000000001198915,547.7098484794051 M 10.000000001304922,547.7098484709105 M 10.000000001830395,559.7098482995747 M 13.000000001724393,559.7098483015884 M 13.000000002503853,577.5098482705677 M 10.000000002609834,577.5098482696845 M 10.000000003135305,589.509848262653 M 13.00000000302932,589.5098482632702 M 13.0000000035504,601.4098482590325 M 26.400000003076926,601.409848261234 M 26.40000000294556,598.4098482622813 M 39.80000000247209,598.4098482648678 M 39.800000002603454,601.4098482636554 M 53.200000002129975,601.4098482662968 M 53.20000000199861,598.4098482676865 M 53.200000001608885,589.5098482728807 M 56.199999553779975,589.509848273698 M 56.1999995532545,577.5098482853729 M 53.20000000108342,577.5098482842186 M 53.200000000303966,559.7098483324146 M 56.199999552475056,559.7098483350018 M 56.19999955194959,547.7098486194831 M 53.19999955205558,547.7098486086826 M 53.19779517941092,547.6434801020828 M 53.19931924902288,545.1948772792982 M 42.390053790482234,576.0090738986488 M 42.52082888597537,576.0667407088697 M 43.4888116949955,576.4935840609418 M 44.42472987411384,577.2459644112046 M 45.13402705060825,578.2149414719626 M 45.56836579406966,579.3344810578578 M 45.69814663690989,580.528288396249 M 45.51452522916234,581.7150074898822 M 45.2007552220837,582.4265658884556 M 45.0300150663163,582.8137653936592 M 44.277634715278815,583.7496835722015 M 43.30865765360577,584.4589807482994 M 42.18911806673989,584.8933194915538 M 40.99531072739941,585.0231003343806 M 39.80859163290053,584.8394789268117 M 38.70983372838727,584.3549687643308 M 37.77391554926892,583.6025884138338 M 37.06461837277451,582.6336113528587 M 36.6302796293131,581.5140717668205 M 36.50396537392959,580.3521523180716 M 36.500498786472875,580.3202644283976 M 36.68412019422042,579.1335453348522 M 37.16863035706646,578.0347874312596 M 37.92101070810395,577.0988692529502 M 38.889987769776994,576.3895720770718 M 40.00952735664288,575.9552333339637 M 41.20333469598334,575.8254524911699 M 35.599999999022415,516.2418990049936 M 35.185786436650034,515.9240617605176 M 34.867949191447345,515.5098481989457 M 34.668148346424026,515.02748628997 M 34.5999999989819,514.5098482005426 M 34.66814834637868,513.9922101110225 M 34.867949191359756,513.5098482017795 M 35.18578643652617,513.0956346397975 M 35.59999999887073,512.7777973948146 M 35.67090442428503,512.7484278202555 M 35.78770158479037,512.7000488523005 M 36.08236190863988,512.5779965498332 M 36.59999999882365,512.5098482022561 M 37.1176380890134,512.5779965493495 M 37.59999999880005,512.7777973938747 M 38.014213561172426,513.0956346384557 M 38.33205080637512,513.5098482001158 M 38.53185165139844,513.9922101091394 M 38.59999999884056,514.5098481985617 M 38.53185165144377,515.0274862880252 M 38.332050806462696,515.509848197175 M 38.01421356129629,515.924061759052 M 37.599999998951745,516.2418990039463 M 37.52909557353744,516.2712685784985 M 37.412298413032104,516.319647546442 M 37.11763808918258,516.4416998488794 M 36.59999999899881,516.5098481964616 M 36.08236190880908,516.4416998494252 "
  />
  <path id="face0-interior"
 style="fill:none;stroke:#00FF00;stroke-width:1;stroke-miterlimit:4;stroke-dasharray:none;stroke-linejoin:round;stroke-linecap:round"
        d="M 26.39999999999999,102.4 M 39.79999999999998,102.4 M 39.79999999999998,105.4 M 53.19999999999999,105.40000000000003 M 53.19999999999999,102.4 M 53.19999999999999,93.5 M 56.19999955227708,93.50000000000001 M 56.19999955227708,81.5 M 53.19999955227709,81.5 M 53.19558295925478,63.793885948051276 M 53.19999955227709,63.70000000000001 M 56.19999955227708,63.7 M 56.19999955227708,51.70000000000001 M 53.19999999999999,51.69999999999999 M 53.19999999999999,33.90000000000002 M 56.19999955227708,33.90000000000002 M 56.19999955227708,21.900000000000006 M 53.19999999999999,21.900000000000006 M 53.19999999999999,13.0 M 53.19999999999999,10.000000000000014 M 39.80000000000001,10.000000000000014 M 39.79999999999998,13.0 M 26.39999999999999,13.0 M 26.400000000000006,10.0 M 13.0,10.0 M 13.0,21.900000000000006 M 10.0,21.900000000000006 M 10.0,33.900000000000006 M 13.0,33.900000000000006 M 13.0,51.70000000000001 M 10.0,51.699999999999996 M 10.0,63.69999999999999 M 13.0,63.7 M 13.0,81.5 M 10.0,81.50000000000001 M 10.0,93.5 M 13.0,93.50000000000001 M 13.0,105.4 M 26.39999999999999,105.4 M 22.5,84.4 M 18.5,84.4 M 18.5,75.40000000000002 M 22.5,75.40000000000002 M 39.86592582628907,63.94118095489749 M 39.89999999999999,64.20000000000002 M 39.86592582628907,64.45881904510253 M 39.766025403784454,64.70000000000002 M 39.607106781186545,64.90710678118657 M 39.400000000000006,65.06602540378444 M 39.15881904510252,65.16592582628908 M 38.89999999999999,65.20000000000002 M 38.64118095489748,65.16592582628908 M 38.39999999999999,65.06602540378444 M 38.19289321881344,64.90710678118657 M 38.03397459621556,64.70000000000002 M 37.934074173710925,64.45881904510253 M 37.89999999999999,64.20000000000002 M 37.934074173710925,63.94118095489749 M 38.03397459621556,63.70000000000002 M 38.19289321881347,63.49289321881346 M 38.39999999999999,63.33397459621558 M 38.64118095489748,63.234074173710944 M 38.89999999999999,63.20000000000002 M 39.15881904510252,63.234074173710944 M 39.39999999999999,63.333974596215576 M 39.607106781186545,63.49289321881346 M 39.766025403784425,63.70000000000001 M 42.60000000000001,62.20000000000001 M 41.435314297038644,62.046666218300814 M 40.349999999999994,61.59711431702999 M 39.41801948466053,60.88198051533948 M 38.702885682970035,59.95000000000001 M 38.2533337816992,58.86468570296136 M 38.099999999999994,57.70000000000001 M 38.2533337816992,56.53531429703867 M 38.702885682970035,55.45000000000001 M 39.41801948466053,54.51801948466054 M 40.349999999999994,53.802885682970036 M 41.435314297038644,53.3533337816992 M 42.60000000000001,53.2 M 43.764685702961344,53.3533337816992 M 44.849999999999994,53.802885682970036 M 45.781980515339455,54.518019484660535 M 46.49711431702998,55.45000000000001 M 46.94666621830082,56.53531429703866 M 47.099999999999994,57.70000000000002 M 46.94666621830082,58.86468570296135 M 46.49711431702998,59.95000000000001 M 45.781980515339455,60.88198051533948 M 44.849999999999994,61.59711431702998 M 43.764685702961344,62.046666218300814 M 49.599999999999994,56.83397459621558 M 49.84118095489748,56.734074173710944 M 50.099999999999994,56.7 M 50.35881904510252,56.73407417371094 M 50.599999999999994,56.83397459621557 M 50.80710678118655,56.99289321881346 M 50.96602540378443,57.20000000000001 M 51.065925826289075,57.44118095489748 M 51.099999999999994,57.70000000000002 M 51.065925826289075,57.95881904510252 M 50.96602540378443,58.20000000000001 M 50.80710678118655,58.40710678118655 M 50.599999999999994,58.56602540378445 M 50.35881904510251,58.66592582628907 M 50.10000000000002,58.70000000000002 M 49.84118095489748,58.665925826289076 M 49.599999999999994,58.56602540378445 M 49.39289321881347,58.407106781186556 M 49.23397459621556,58.20000000000002 M 49.13407417371093,57.95881904510252 M 49.099999999999994,57.70000000000001 M 49.13407417371093,57.44118095489748 M 49.23397459621556,57.20000000000001 M 49.39289321881344,56.992893218813464 M 39.15881904510252,50.234074173710944 M 39.39999999999999,50.33397459621557 M 39.607106781186545,50.492893218813464 M 39.766025403784425,50.70000000000002 M 39.86592582628907,50.94118095489747 M 39.89999999999999,51.200000000000024 M 39.86592582628906,51.45881904510253 M 39.766025403784425,51.70000000000001 M 39.607106781186545,51.907106781186556 M 39.39999999999999,52.06602540378445 M 39.15881904510252,52.16592582628908 M 38.89999999999999,52.20000000000001 M 38.64118095489748,52.165925826289076 M 38.39999999999999,52.06602540378445 M 38.19289321881344,51.907106781186556 M 38.03397459621556,51.7 M 37.934074173710925,51.45881904510253 M 37.89999999999999,51.200000000000024 M 37.934074173710925,50.94118095489747 M 38.03397459621556,50.70000000000002 M 38.19289321881344,50.492893218813464 M 38.39999999999999,50.33397459621557 M 38.64118095489748,50.23407417371095 M 38.89999999999999,50.20000000000003 "
  />
  <path id="face1-interior"
 style="fill:none;stroke:#00FF00;stroke-width:1;stroke-miterlimit:4;stroke-dasharray:none;stroke-linejoin:round;stroke-linecap:round"
        d="M 89.9048462366222,212.30486771832977 M 89.90492957043273,118.89999473546926 M 89.87498697434123,118.4431533370185 M 89.78567069858032,117.99412870584518 M 89.63850897404765,117.56060368540382 M 89.43601978632255,117.14999603158994 M 89.18166779210351,116.76933137660745 M 88.87980503779083,116.42512301808767 M 88.5355964945393,116.12326047442122 M 88.1549316839004,115.86890871315865 M 87.74432390616873,115.6664197767143 M 87.31079879566845,115.51925831748721 M 86.8617741098361,115.42994231651718 M 86.40493280894738,115.40000000000003 M 13.467708463202921,115.40010970861525 M 12.938115831944394,115.47428511561102 M 12.424590187036461,115.62348886257571 M 11.937703711384152,115.84464922501283 M 11.487480155360249,116.13321307529135 M 11.083188473357957,116.48323961992782 M 10.7331519996673,116.88752270536752 M 10.444577092256946,117.33773917430159 M 10.22340477224856,117.82462021824202 M 10.07418841344893,118.33814219864107 M 10.0,118.86773300803674 M 10.00007789965878,212.30486771832977 M 10.074259198962551,212.8668423474842 M 10.22346227696475,213.3803698681566 M 10.44462200489276,213.86725840541618 M 10.733185299496128,214.31748423539526 M 11.083211419593464,214.7217784206402 M 11.487494269935954,215.07181763257444 M 11.93771075530369,215.36039550642465 M 12.424592130623484,215.58157100086174 M 12.938114819470677,215.73079070804482 M 13.46770677251584,215.80498259602845 M 86.40484311399779,215.80486771832835 M 86.8616849363597,215.77492474038758 M 87.31071007734725,215.6856081386384 M 87.74423560101988,215.53844614316648 M 88.15484377388579,215.3359567336591 M 88.53550898423451,215.08160455612355 M 88.87971795216491,214.77974164190056 M 89.18158117348361,214.43553294328586 M 89.43593369064033,214.0548679598648 M 89.63842346648337,213.64425996765576 M 89.78558584873736,213.21073457527802 M 89.87490285109702,212.761709513977 M 84.40246511964892,141.80248972397948 M 84.30246511964893,141.80248972397948 M 84.30246511964891,129.80248972397948 M 84.40246511964892,129.80248972397948 M 87.40246511964894,129.80248972397948 M 87.45399847031334,129.80248977272203 M 87.50246511964893,129.80248972397948 M 87.50246511964893,141.80248972397948 M 87.40247093234471,141.80248977272203 M 84.3721478658182,171.6024897239795 M 84.2721478658182,171.6024897239795 M 84.2721478658182,159.6024897239795 M 84.3721478658182,159.6024897239795 M 84.40563204712234,159.6024897224568 M 87.40246511964892,159.6024897239795 M 87.50246511964892,159.6024897239795 M 87.50246511964892,171.6024897239795 M 87.40246511964892,171.6024897239795 M 84.40488178751212,171.6024897224568 M 81.80246511964893,133.40248972397947 M 81.75476127645364,133.764836387123 M 81.61490068494714,134.1024897239795 M 81.39241461331011,134.39243921764066 M 81.10246511964893,134.6149252892777 M 80.76481178279246,134.7547858807842 M 80.40246511964894,134.80248972397948 M 80.0401184565054,134.75478588078417 M 79.70246511964893,134.6149252892777 M 79.41251562598775,134.39243921764066 M 79.19002955435072,134.10248972397946 M 79.05016896284424,133.764836387123 M 79.00246511964895,133.40248972397947 M 79.05016896284423,133.04014306083596 M 79.19002955435072,132.70248972397948 M 79.41251562598777,132.4125402303183 M 79.70246511964892,132.19005415868128 M 80.04011845650541,132.05019356717477 M 80.40246511964894,132.0024897239795 M 80.76481178279246,132.0501935671748 M 81.10246511964893,132.19005415868128 M 81.3924146133101,132.4125402303183 M 81.61490068494714,132.70248972397948 M 81.75476127645362,133.04014306083596 M 74.25246511964892,132.8524897239795 M 74.25246511964893,197.65248972397947 M 25.652465119648923,197.65248972397947 M 25.652465119648944,132.85248972397946 M 15.502465119648928,129.80248972397948 M 15.602465119648905,129.8024897239795 M 15.602465119648926,141.80248972397948 M 15.502465119648928,141.80248972397948 M 12.502465119648921,141.8024897239795 M 12.402465119648912,141.8024897239795 M 12.402465119648923,129.80248972397948 M 12.502465119648946,129.8024897239795 M 15.502465119648917,201.4024897239795 M 12.50246511964891,201.40248972397956 M 12.402465119648923,201.40248972397958 M 12.402465119648923,189.4024897239795 M 12.502465119648921,189.40248972397944 M 15.502465119648917,189.4024897239795 M 15.602465119648915,189.40248972397947 M 15.602465119648915,201.40248972397941 M 19.864811782792444,134.75478588078417 M 19.502465119648942,134.80248972397945 M 19.140118456505395,134.75478588078417 M 18.802465119648943,134.61492528927766 M 18.512515625987742,134.39243921764063 M 18.290029554350703,134.10248972397946 M 18.150168962844205,133.76483638712304 M 18.10246511964889,133.4024897239795 M 18.150168962844205,133.040143060836 M 18.29002955435068,132.7024897239795 M 18.512515625987753,132.4125402303183 M 18.80246511964891,132.19005415868128 M 19.140118456505384,132.05019356717477 M 19.50246511964892,132.0024897239795 M 19.86481178279247,132.05019356717474 M 20.20246511964893,132.19005415868122 M 20.4924146133101,132.4125402303183 M 20.714900684947136,132.70248972397948 M 20.8547612764536,133.04014306083596 M 20.902465119648905,133.4024897239795 M 20.854761276453612,133.764836387123 M 20.714900684947136,134.1024897239795 M 20.492414613310064,134.39243921764066 M 20.20246511964893,134.61492528927764 M 12.402465119648912,171.60248972397952 M 12.402465119648912,159.60248972397952 M 12.50246511964891,159.6024897239795 M 15.502465119648917,159.6024897239795 M 15.602465119648926,159.60248972397946 M 15.602465119648915,171.6024897239795 M 15.502465119648928,171.6024897239795 M 12.502465119648921,171.6024897239795 M 19.864811782792444,201.2547858807842 M 19.50246511964891,201.3024897239795 M 19.140118456505395,201.25478588078414 M 18.80246511964892,201.11492528927766 M 18.512515625987763,200.8924392176406 M 18.290029554350703,200.60248972397943 M 18.150168962844216,200.26483638712307 M 18.102465119648922,199.9024897239795 M 18.150168962844216,199.54014306083593 M 18.290029554350703,199.20248972397945 M 18.512515625987753,198.91254023031826 M 18.80246511964892,198.69005415868122 M 19.140118456505384,198.55019356717477 M 19.50246511964892,198.50248972397947 M 19.864811782792444,198.55019356717474 M 20.20246511964892,198.69005415868128 M 20.492414613310086,198.9125402303183 M 20.714900684947136,199.20248972397945 M 20.854761276453612,199.54014306083593 M 20.90246511964892,199.9024897239795 M 20.854761276453612,200.26483638712295 M 20.714900684947136,200.60248972397946 M 20.492414613310086,200.89243921764063 M 20.20246511964892,201.1149252892777 M 61.17746511964894,213.30248972397953 M 61.17746511964894,210.30248972397953 M 61.17746511964894,210.2024897239795 M 73.17746511964894,210.20248972397948 M 73.17746511964894,210.30248972397948 M 73.17746511964894,213.30248972397948 M 73.17746511964894,213.40248972397947 M 61.17746511964894,213.40248972397941 M 61.17746511964896,121.0024897239795 M 61.17746511964893,120.90248972397949 M 61.17746511964894,117.90248972397947 M 61.17746511964893,117.80248972397949 M 73.17746511964896,117.80248972397948 M 73.17746511964893,117.90248972397947 M 73.17746511964893,120.90248972397949 M 73.17746511964894,121.00248972397948 M 26.727465119648933,121.00248972397948 M 26.727465119648905,120.9024897239795 M 26.72746511964896,117.90248972397946 M 26.727465119648926,117.8024897239795 M 38.72746511964896,117.80248972397946 M 38.72746511964896,117.90248972397947 M 38.72746511964896,120.90248972397949 M 38.72746511964896,121.00248972397948 M 38.72746511964895,210.20248972397957 M 38.72746511964895,210.30248972397936 M 38.72746511964895,213.30248972397945 M 38.72746511964895,213.40248972397956 M 26.727465119648947,213.40248972397967 M 26.727465119648947,213.30248972397902 M 26.727465119648947,210.30248972397965 M 26.727465119648947,210.20248972397945 M 81.75476127645362,199.54014306083593 M 81.80246511964893,199.90248972397947 M 81.75476127645362,200.264836387123 M 81.61490068494714,200.60248972397946 M 81.3924146133101,200.89243921764063 M 81.10246511964893,201.11492528927766 M 80.76481178279246,201.25478588078414 M 80.40246511964894,201.30248972397948 M 80.04011845650541,201.25478588078414 M 79.70246511964893,201.11492528927766 M 79.41251562598777,200.89243921764063 M 79.19002955435072,200.60248972397946 M 79.05016896284424,200.264836387123 M 79.00246511964893,199.90248972397947 M 79.05016896284424,199.54014306083593 M 79.19002955435072,199.20248972397945 M 79.41251562598777,198.9125402303183 M 79.70246511964893,198.69005415868125 M 80.04011845650541,198.55019356717477 M 80.40246511964894,198.50248972397947 M 80.76481178279246,198.55019356717477 M 81.10246511964893,198.69005415868125 M 81.3924146133101,198.9125402303183 M 81.61490068494714,199.20248972397945 M 84.30246511964893,201.4024897239795 M 84.30246511964893,189.4024897239795 M 84.40246511964892,189.4024897239795 M 87.40246511964892,189.4024897239795 M 87.50246511964892,189.4024897239795 M 87.50246511964892,201.4024897239795 M 87.40246511964892,201.4024897239795 M 84.40246511964892,201.4024897239795 "
  />
  <path id="face2-interior"
 style="fill:none;stroke:#00FF00;stroke-width:1;stroke-miterlimit:4;stroke-dasharray:none;stroke-linejoin:round;stroke-linecap:round"
        d="M 39.8,225.80498259602845 M 26.39999999999999,225.80498259602845 M 26.39999999999999,228.80498259602845 M 23.5,228.80498259602845 M 23.0,228.80498259602845 M 22.0,228.80498259602842 M 13.0,228.80498259602848 M 13.0,240.02998259602845 M 10.0,240.02998259602845 M 10.0,252.02998259602845 M 13.0,252.02998259602845 M 13.0,274.4799825960285 M 10.0,274.47998259602844 M 10.0,286.47998259602844 M 13.0,286.47998259602844 M 13.0,297.70498259602846 M 22.0,297.70498259602846 M 26.400000000000006,297.70498259602846 M 26.40000000000002,300.70498259602846 M 39.8,300.70498259602846 M 39.8,297.70498259602846 M 53.20000000000002,297.70498259602846 M 53.19999999999999,286.4808587963921 M 56.19999955227709,286.47998259602844 M 56.19999955227709,274.4799825960285 M 53.19999999999999,274.4808587963921 M 53.19999999999999,252.02998259602847 M 56.19999955227709,252.02998259602847 M 56.19999955227709,240.02998259602847 M 53.19999999999999,240.02998259602847 M 53.19999999999999,234.80498259602845 M 53.19999999999999,229.02836196817782 M 53.19999999999999,228.80498259602845 M 39.8,228.80498259602845 M 37.849999999999994,272.8552051565375 M 37.849999999999994,253.6552051565375 M 44.349999999999994,253.6552051565375 M 44.349999999999994,272.8552051565375 "
  />
  <path id="face3-interior"
 style="fill:none;stroke:#00FF00;stroke-width:1;stroke-miterlimit:4;stroke-dasharray:none;stroke-linejoin:round;stroke-linecap:round"
        d="M 10.074177505598783,313.6430217750679 M 10.0,314.1726089939493 M 10.0,407.6421121868054 M 10.074177505598797,408.1716994056868 M 10.223383352572199,408.6852191618485 M 10.444545706858023,409.17209916532596 M 10.733111301496791,409.6223155825413 M 11.083139178806391,410.02659940591985 M 11.48742300218494,410.3766272832295 M 11.93763941940027,410.6651928778682 M 12.424519422877708,410.8863552321541 M 12.938039179039436,411.03556107912743 M 13.467626397920867,411.10973858472624 M 86.40475865351938,411.10984820226116 M 86.86160027004739,411.07990589875135 M 87.31062528385804,410.99058993655154 M 87.74415074657357,410.84342853771125 M 88.15475891163625,410.64093967649853 M 88.53542415410608,410.3865879961291 M 88.87963318114375,410.08472552771485 M 89.18149647634236,409.74051722574757 M 89.4358490710636,409.359852594228 M 89.63833891855076,408.94924491554195 M 89.78550135871272,408.51571980630723 M 89.87481839946405,408.06669500703356 M 89.90476180030088,407.6098534624279 M 89.90484577889735,314.2049825960292 M 89.87490279370569,313.74814092326346 M 89.7855861709091,313.2991159381727 M 89.63842414268682,312.8655905827502 M 89.43593469214288,312.45498259602897 M 89.18158246991665,312.07431759449787 M 88.87971951305026,311.73010886187546 M 88.53551078042783,311.4282459050087 M 88.15484577889733,311.173893682783 M 87.74423779217516,310.97140423223897 M 87.31071243675616,310.8242422040168 M 86.86168745166752,310.73492558122024 M 86.40484577889733,310.70498259602846 M 13.467626397920867,310.70498259602846 M 12.938039179039436,310.77916010162727 M 12.424519422877708,310.9283659486007 M 11.93763941940027,311.1495283028865 M 11.48742300218494,311.4380938975253 M 11.083139178806377,311.78812177483485 M 10.733111301496791,312.1924055982134 M 10.444545706858008,312.64262201542874 M 10.223383352572185,313.1295020189062 M 12.402377994348896,366.9073605903774 M 12.402377994348896,354.9073605903774 M 12.50237799434889,354.9073605903774 M 15.50237799434889,354.9073605903774 M 15.602377994348885,354.9073605903774 M 15.602377994348885,366.9073605903774 M 15.50237799434889,366.9073605903774 M 12.502377994348876,366.9073605903774 M 87.50237799434892,366.9073605903774 M 87.4023779943489,366.9073605903774 M 84.40237799434892,366.9073605903774 M 84.3023779943489,366.9073605903773 M 84.3023779943489,354.9073605903773 M 84.40237799434892,354.9073605903773 M 87.4023779943489,354.9073605903774 M 87.50237799434892,354.9073605903773 M 80.04003133120538,391.75506443357267 M 80.40237799434892,391.70736059037733 M 80.76472465749244,391.75506443357267 M 81.10237799434891,391.89492502507915 M 81.39232748801008,392.1174110967162 M 81.61481355964715,392.4073605903774 M 81.7546741511536,392.74501392723386 M 81.80237799434893,393.1073605903773 M 81.7546741511536,393.46970725352094 M 81.61481355964712,393.80736059037736 M 81.39232748801008,394.0973100840385 M 81.10237799434891,394.3197961556756 M 80.76472465749244,394.459656747182 M 80.40237799434895,394.50736059037735 M 80.04003133120538,394.459656747182 M 79.70237799434894,394.31979615567553 M 79.41242850068774,394.0973100840385 M 79.18994242905073,393.80736059037736 M 79.05008183754423,393.4697072535209 M 79.00237799434892,393.10736059037737 M 79.05008183754423,392.7450139272338 M 79.1899424290507,392.4073605903774 M 79.41242850068777,392.1174110967162 M 79.70237799434894,391.89492502507915 M 87.4023779943489,325.10736059037737 M 87.50237799434892,325.1073605903774 M 87.50237799434892,337.10736059037737 M 87.4023779943489,337.10736059037737 M 84.40237799434892,337.10736059037737 M 84.3023779943489,337.10736059037737 M 84.3023779943489,325.1073605903774 M 84.40237799434892,325.10736059037737 M 26.727377994348885,408.70736059037733 M 26.727377994348885,408.6073605903773 M 26.727377994348885,405.60736059037737 M 26.727377994348885,405.50736059037735 M 38.727377994348885,405.50736059037735 M 38.727377994348885,405.60736059037737 M 38.727377994348885,408.6073605903773 M 38.727377994348856,408.70736059037733 M 61.1773779943489,316.30736059037736 M 61.1773779943489,316.2073605903772 M 61.1773779943489,313.2073605903774 M 61.1773779943489,313.10736059037725 M 73.17737799434893,313.1073605903775 M 73.17737799434893,313.207360590378 M 73.1773779943489,316.20736059037733 M 73.1773779943489,316.3073605903772 M 26.727377994348885,316.30736059037736 M 26.727377994348885,316.2073605903774 M 26.727377994348885,313.2073605903774 M 26.727377994348885,313.10736059037737 M 38.727377994348885,313.10736059037725 M 38.727377994348885,313.2073605903776 M 38.727377994348885,316.20736059037733 M 38.727377994348885,316.30736059037736 M 84.40237799434892,384.70736059037733 M 87.4023779943489,384.7073605903774 M 87.50237799434892,384.70736059037733 M 87.50237799434892,396.70736059037733 M 87.4023779943489,396.70736059037733 M 84.40237799434892,396.70736059037733 M 84.3023779943489,396.70736059037733 M 84.3023779943489,384.70736059037733 M 61.1773779943489,408.70736059037733 M 61.1773779943489,408.60736059037737 M 61.1773779943489,405.6073605903773 M 61.1773779943489,405.50736059037735 M 73.1773779943489,405.50736059037735 M 73.1773779943489,405.60736059037737 M 73.1773779943489,408.60736059037737 M 73.1773779943489,408.70736059037733 M 15.50237799434889,396.70736059037733 M 12.50237799434889,396.70736059037733 M 12.402377994348882,396.70736059037733 M 12.402377994348882,384.70736059037733 M 12.50237799434889,384.70736059037733 M 15.50237799434889,384.70736059037733 M 15.602377994348885,384.70736059037733 M 15.602377994348885,396.70736059037733 M 19.14003133120535,391.75506443357267 M 19.502377994348876,391.70736059037733 M 19.864724657492403,391.75506443357267 M 20.20237799434888,391.89492502507915 M 20.492327488010048,392.1174110967162 M 20.638080860849215,392.30736059037736 M 20.714813559647098,392.4073605903774 M 20.854674151153574,392.7450139272338 M 20.902377994348868,393.10736059037737 M 20.854674151153574,393.4697072535209 M 20.714813559647098,393.80736059037736 M 20.492327488010048,394.09731008403855 M 20.20237799434888,394.31979615567553 M 19.86472465749243,394.45965674718207 M 19.502377994348876,394.50736059037735 M 19.14003133120535,394.45965674718207 M 18.802377994348873,394.31979615567553 M 18.512428500687705,394.09731008403855 M 18.289942429050683,393.80736059037736 M 18.150081837544192,393.4697072535209 M 18.102377994348885,393.1073605903773 M 18.150081837544178,392.7450139272338 M 18.289942429050654,392.4073605903774 M 18.51242850068772,392.1174110967162 M 18.802377994348873,391.89492502507915 M 79.05008183754423,326.9697072535208 M 79.00237799434892,326.60736059037737 M 79.05008183754423,326.24501392723386 M 79.1899424290507,325.9073605903774 M 79.41242850068774,325.6174110967162 M 79.70237799434894,325.39492502507915 M 80.04003133120538,325.25506443357267 M 80.40237799434892,325.2073605903774 M 80.76472465749244,325.25506443357267 M 81.10237799434891,325.39492502507915 M 81.39232748801008,325.6174110967162 M 81.61481355964715,325.9073605903774 M 81.7546741511536,326.24501392723386 M 81.80237799434893,326.60736059037737 M 81.7546741511536,326.96970725352094 M 81.61481355964715,327.3073605903774 M 81.39232748801008,327.59731008403855 M 81.10237799434891,327.81979615567553 M 80.76472465749244,327.95965674718207 M 80.40237799434892,328.00736059037735 M 80.04003133120538,327.95965674718207 M 79.70237799434894,327.81979615567553 M 79.41242850068774,327.59731008403855 M 79.1899424290507,327.3073605903773 M 15.602377994348885,325.10736059037737 M 15.602377994348885,337.10736059037737 M 15.50237799434889,337.10736059037737 M 12.502377994348876,337.10736059037737 M 12.402377994348896,337.10736059037737 M 12.402377994348896,325.10736059037737 M 12.50237799434889,325.10736059037737 M 15.50237799434889,325.10736059037737 M 19.86472465749243,327.95965674718207 M 19.502377994348876,328.00736059037735 M 19.14003133120535,327.95965674718207 M 18.802377994348873,327.8197961556756 M 18.51242850068772,327.59731008403855 M 18.289942429050654,327.30736059037736 M 18.150081837544192,326.9697072535209 M 18.102377994348885,326.60736059037737 M 18.150081837544192,326.2450139272338 M 18.289942429050654,325.9073605903774 M 18.51242850068772,325.6174110967162 M 18.802377994348873,325.39492502507915 M 19.14003133120535,325.25506443357267 M 19.502377994348876,325.20736059037733 M 19.86472465749243,325.25506443357267 M 20.20237799434888,325.39492502507915 M 20.492327488010048,325.6174110967162 M 20.714813559647098,325.9073605903774 M 20.854674151153574,326.2450139272338 M 20.902377994348896,326.60736059037737 M 20.854674151153574,326.9697072535209 M 20.714813559647098,327.30736059037736 M 20.492327488010048,327.59731008403855 M 20.20237799434888,327.8197961556756 M 70.50237799434892,357.60736059037737 M 70.50237799434892,364.60736059037737 M 63.50237799434892,364.60736059037737 M 63.50237799434892,357.60736059037737 "
  />
  <path id="face4-interior"
 style="fill:none;stroke:#00FF00;stroke-width:1;stroke-miterlimit:4;stroke-dasharray:none;stroke-linejoin:round;stroke-linecap:round"
        d="M 13.000000000000004,481.7848482022612 M 13.000000000000004,493.0098482022612 M 22.000000000000004,493.00984820226114 M 23.000000000000004,493.00984820226114 M 26.400000000000006,493.0098482022612 M 26.400000000000006,496.00984820226114 M 39.80000000000001,496.0098482022612 M 39.80000000000001,493.0098482022612 M 53.199999999999996,493.0098482022612 M 53.2,481.7848482022612 M 56.19999955227709,481.7848482022612 M 56.19999955227709,469.7848482022611 M 53.20000000000001,469.7848482022612 M 53.2,447.3348482022611 M 56.19999955227709,447.3348482022611 M 56.1999995522771,435.3348482022611 M 53.2,435.3348482022611 M 53.2,424.10984820226116 M 39.80000000000001,424.10984820226116 M 39.80000000000001,421.10984820226116 M 26.39999999999999,421.10984820226116 M 26.399999999999995,424.11078989750524 M 13.000000000000007,424.11148404234984 M 13.000000000000007,435.3348482022612 M 10.0,435.3348482022612 M 10.000000000000007,447.3348482022612 M 13.000000000000005,447.3348482022611 M 13.000000000000004,469.7848482022612 M 10.000000000000004,469.7848482022612 M 10.000000000000004,481.7848482022612 "
  />
  <path id="face5-interior"
 style="fill:none;stroke:#00FF00;stroke-width:1;stroke-miterlimit:4;stroke-dasharray:none;stroke-linejoin:round;stroke-linecap:round"
        d="M 53.19914027189057,543.7379617616194 M 53.199999551276136,529.9098481353541 M 56.19999942616695,529.9098481815531 M 56.19999955064466,517.9098481826129 M 53.19999999847357,517.9098481844254 M 53.19999981972577,509.0098226843012 M 53.19999977411442,506.5439782018742 M 53.19999999795248,506.0098482022612 M 39.799999998425946,506.0098482077827 M 39.799999998557325,509.0098482048649 M 26.399999999030793,509.00984821044733 M 26.39999999889943,506.0098482129679 M 12.999999999372902,506.00984821781674 M 12.999999999893998,517.909848206337 M 10.0,517.9098482077949 M 10.000000000525473,529.9098481773618 M 13.000000000419476,529.9098481747527 M 13.000000001198915,547.7098484794051 M 10.000000001304922,547.7098484709105 M 10.000000001830395,559.7098482995747 M 13.000000001724393,559.7098483015884 M 13.000000002503853,577.5098482705677 M 10.000000002609834,577.5098482696845 M 10.000000003135305,589.509848262653 M 13.00000000302932,589.5098482632702 M 13.0000000035504,601.4098482590325 M 26.400000003076926,601.409848261234 M 26.40000000294556,598.4098482622813 M 39.80000000247209,598.4098482648678 M 39.800000002603454,601.4098482636554 M 53.200000002129975,601.4098482662968 M 53.20000000199861,598.4098482676865 M 53.200000001608885,589.5098482728807 M 56.199999553779975,589.509848273698 M 56.1999995532545,577.5098482853729 M 53.20000000108342,577.5098482842186 M 53.200000000303966,559.7098483324146 M 56.199999552475056,559.7098483350018 M 56.19999955194959,547.7098486194831 M 53.19999955205558,547.7098486086826 M 53.19779517941092,547.6434801020828 M 53.19931924902288,545.1948772792982 M 42.390053790482234,576.0090738986488 M 42.52082888597537,576.0667407088697 M 43.4888116949955,576.4935840609418 M 44.42472987411384,577.2459644112046 M 45.13402705060825,578.2149414719626 M 45.56836579406966,579.3344810578578 M 45.69814663690989,580.528288396249 M 45.51452522916234,581.7150074898822 M 45.2007552220837,582.4265658884556 M 45.0300150663163,582.8137653936592 M 44.277634715278815,583.7496835722015 M 43.30865765360577,584.4589807482994 M 42.18911806673989,584.8933194915538 M 40.99531072739941,585.0231003343806 M 39.80859163290053,584.8394789268117 M 38.70983372838727,584.3549687643308 M 37.77391554926892,583.6025884138338 M 37.06461837277451,582.6336113528587 M 36.6302796293131,581.5140717668205 M 36.50396537392959,580.3521523180716 M 36.500498786472875,580.3202644283976 M 36.68412019422042,579.1335453348522 M 37.16863035706646,578.0347874312596 M 37.92101070810395,577.0988692529502 M 38.889987769776994,576.3895720770718 M 40.00952735664288,575.9552333339637 M 41.20333469598334,575.8254524911699 M 35.599999999022415,516.2418990049936 M 35.185786436650034,515.9240617605176 M 34.867949191447345,515.5098481989457 M 34.668148346424026,515.02748628997 M 34.5999999989819,514.5098482005426 M 34.66814834637868,513.9922101110225 M 34.867949191359756,513.5098482017795 M 35.18578643652617,513.0956346397975 M 35.59999999887073,512.7777973948146 M 35.67090442428503,512.7484278202555 M 35.78770158479037,512.7000488523005 M 36.08236190863988,512.5779965498332 M 36.59999999882365,512.5098482022561 M 37.1176380890134,512.5779965493495 M 37.59999999880005,512.7777973938747 M 38.014213561172426,513.0956346384557 M 38.33205080637512,513.5098482001158 M 38.53185165139844,513.9922101091394 M 38.59999999884056,514.5098481985617 M 38.53185165144377,515.0274862880252 M 38.332050806462696,515.509848197175 M 38.01421356129629,515.924061759052 M 37.599999998951745,516.2418990039463 M 37.52909557353744,516.2712685784985 M 37.412298413032104,516.319647546442 M 37.11763808918258,516.4416998488794 M 36.59999999899881,516.5098481964616 M 36.08236190880908,516.4416998494252 "
  />
</svg>
