<?xml version="1.0" encoding="UTF-8" standalone="no"?>
<svg
   xmlns:dc="http://purl.org/dc/elements/1.1/"
   xmlns:cc="http://creativecommons.org/ns#"
   xmlns:rdf="http://www.w3.org/1999/02/22-rdf-syntax-ns#"
   xmlns:svg="http://www.w3.org/2000/svg"
   xmlns="http://www.w3.org/2000/svg"
   xmlns:sodipodi="http://sodipodi.sourceforge.net/DTD/sodipodi-0.dtd"
   xmlns:inkscape="http://www.inkscape.org/namespaces/inkscape"
   width="99.90492957043273mm"
   height="611.4098482662968mm"
   viewBox="0 0 99.90492957043273 611.4098482662968"
   version="1.1"
   id="svg28"
   sodipodi:docname="V3.0.svg"
   inkscape:version="1.0.2-2 (e86c870879, 2021-01-15)">
  <metadata
     id="metadata34">
    <rdf:RDF>
      <cc:Work
         rdf:about="">
        <dc:format>image/svg+xml</dc:format>
        <dc:type
           rdf:resource="http://purl.org/dc/dcmitype/StillImage" />
      </cc:Work>
    </rdf:RDF>
  </metadata>
  <defs
     id="defs32" />
  <sodipodi:namedview
     pagecolor="#ffffff"
     bordercolor="#666666"
     borderopacity="1"
     objecttolerance="10"
     gridtolerance="10"
     guidetolerance="10"
     inkscape:pageopacity="0"
     inkscape:pageshadow="2"
     inkscape:window-width="1920"
     inkscape:window-height="1017"
     id="namedview30"
     showgrid="false"
     inkscape:zoom="0.36783155"
     inkscape:cx="188.79672"
     inkscape:cy="1155.4202"
     inkscape:window-x="-8"
     inkscape:window-y="-8"
     inkscape:window-maximized="1"
     inkscape:current-layer="svg28" />
  <desc
     id="desc2">Output from Flights of Ideas SVG Sketchup Plugin</desc>
  <path
     id="face0-cut"
     style="fill:none;stroke:#0000FF;stroke-width:1;stroke-miterlimit:4;stroke-dasharray:none;stroke-linejoin:round;stroke-linecap:round"
     d="M 89.9048462366222,106.90486771832973 L 89.90492957043273,13.499994735469224 L 89.87498697434123,13.043153337018467 L 89.78567069858032,12.594128705845149 L 89.63850897404765,12.160603685403784 L 89.43601978632255,11.749996031589903 L 89.18166779210351,11.369331376607423 L 88.87980503779083,11.025123018087635 L 88.5355964945393,10.723260474421183 L 88.1549316839004,10.468908713158605 L 87.74432390616873,10.266419776714276 L 87.31079879566845,10.119258317487176 L 86.8617741098361,10.02994231651715 L 86.40493280894738,10.0 L 13.467708463202921,10.00010970861521 L 12.938115831944394,10.074285115610984 L 12.424590187036461,10.223488862575678 L 11.937703711384152,10.4446492250128 L 11.487480155360249,10.733213075291317 L 11.083188473357957,11.083239619927774 L 10.7331519996673,11.487522705367484 L 10.444577092256946,11.93773917430156 L 10.22340477224856,12.424620218241982 L 10.07418841344893,12.938142198641032 L 10.0,13.467733008036706 L 10.00007789965878,106.90486771832974 L 10.074259198962551,107.46684234748417 L 10.22346227696475,107.98036986815656 L 10.44462200489276,108.46725840541613 L 10.733185299496128,108.91748423539522 L 11.083211419593464,109.32177842064017 L 11.487494269935954,109.67181763257442 L 11.93771075530369,109.96039550642462 L 12.424592130623484,110.18157100086171 L 12.938114819470677,110.33079070804479 L 13.46770677251584,110.40498259602842 L 86.40484311399779,110.40486771832833 L 86.8616849363597,110.37492474038756 L 87.31071007734725,110.28560813863837 L 87.74423560101988,110.13844614316645 L 88.15484377388579,109.93595673365907 L 88.53550898423451,109.68160455612352 L 88.87971795216491,109.37974164190051 L 89.18158117348361,109.03553294328583 L 89.43593369064033,108.65486795986477 L 89.63842346648337,108.24425996765572 L 89.78558584873736,107.810734575278 L 89.87490285109702,107.36170951397698 L 89.9048462366222,106.90486771832973 M 84.40246511964892,36.40248972397944 L 84.30246511964893,36.40248972397944 L 84.30246511964891,24.402489723979457 L 84.40246511964892,24.402489723979443 L 87.40246511964894,24.402489723979457 L 87.45399847031334,24.40248977272199 L 87.50246511964893,24.402489723979457 L 87.50246511964893,36.40248972397944 L 87.40247093234471,36.40248977272199 L 84.40246511964892,36.40248972397944 M 84.3721478658182,66.20248972397944 L 84.2721478658182,66.20248972397944 L 84.2721478658182,54.20248972397945 L 84.3721478658182,54.20248972397945 L 84.40563204712234,54.202489722456754 L 87.40246511964892,54.20248972397945 L 87.50246511964892,54.202489723979454 L 87.50246511964892,66.20248972397945 L 87.40246511964892,66.20248972397945 L 84.40488178751212,66.20248972245676 L 84.3721478658182,66.20248972397944 M 81.80246511964893,28.002489723979448 L 81.75476127645364,28.364836387122974 L 81.61490068494714,28.702489723979447 L 81.39241461331011,28.992439217640626 L 81.10246511964893,29.214925289277666 L 80.76481178279246,29.354785880784153 L 80.40246511964894,29.402489723979457 L 80.0401184565054,29.354785880784142 L 79.70246511964893,29.214925289277666 L 79.41251562598775,28.992439217640626 L 79.19002955435072,28.702489723979436 L 79.05016896284424,28.364836387122985 L 79.00246511964895,28.002489723979437 L 79.05016896284423,27.640143060835925 L 79.19002955435072,27.30248972397945 L 79.41251562598777,27.012540230318272 L 79.70246511964892,26.790054158681233 L 80.04011845650541,26.650193567174746 L 80.40246511964894,26.602489723979453 L 80.76481178279246,26.650193567174757 L 81.10246511964893,26.790054158681233 L 81.3924146133101,27.012540230318283 L 81.61490068494714,27.30248972397945 L 81.75476127645362,27.640143060835925 L 81.80246511964893,28.002489723979448 M 74.25246511964892,27.45248972397944 L 74.25246511964893,92.25248972397944 L 25.652465119648923,92.25248972397944 L 25.652465119648944,27.452489723979426 L 74.25246511964892,27.45248972397944 M 15.502465119648928,24.402489723979443 L 15.602465119648905,24.40248972397948 L 15.602465119648926,36.40248972397944 L 15.502465119648928,36.40248972397944 L 12.502465119648921,36.40248972397947 L 12.402465119648912,36.40248972397948 L 12.402465119648923,24.402489723979443 L 12.502465119648946,24.402489723979468 L 15.502465119648928,24.402489723979443 M 15.502465119648917,96.00248972397948 L 12.50246511964891,96.00248972397952 L 12.402465119648923,96.00248972397955 L 12.402465119648923,84.00248972397947 L 12.502465119648921,84.00248972397942 L 15.502465119648917,84.00248972397948 L 15.602465119648915,84.00248972397944 L 15.602465119648915,96.00248972397938 L 15.502465119648917,96.00248972397948 M 19.864811782792444,29.354785880784142 L 19.502465119648942,29.402489723979425 L 19.140118456505395,29.354785880784128 L 18.802465119648943,29.21492528927763 L 18.512515625987742,28.992439217640595 L 18.290029554350703,28.702489723979436 L 18.150168962844205,28.364836387122995 L 18.10246511964889,28.00248972397946 L 18.150168962844205,27.640143060835946 L 18.29002955435068,27.302489723979463 L 18.512515625987753,27.012540230318272 L 18.80246511964891,26.790054158681244 L 19.140118456505384,26.650193567174746 L 19.50246511964892,26.602489723979453 L 19.86481178279247,26.650193567174725 L 20.20246511964893,26.790054158681198 L 20.4924146133101,27.012540230318272 L 20.714900684947136,27.30248972397945 L 20.8547612764536,27.640143060835925 L 20.902465119648905,28.002489723979473 L 20.854761276453612,28.364836387122985 L 20.714900684947136,28.702489723979458 L 20.492414613310064,28.992439217640616 L 20.20246511964893,29.21492528927761 L 19.864811782792444,29.354785880784142 M 12.402465119648912,66.20248972397948 L 12.402465119648912,54.20248972397948 L 12.50246511964891,54.20248972397947 L 15.502465119648917,54.20248972397945 L 15.602465119648926,54.202489723979426 L 15.602465119648915,66.20248972397945 L 15.502465119648928,66.20248972397944 L 12.502465119648921,66.20248972397944 L 12.402465119648912,66.20248972397948 M 19.864811782792444,95.85478588078415 L 19.50246511964891,95.90248972397947 L 19.140118456505395,95.85478588078409 L 18.80246511964892,95.71492528927764 L 18.512515625987763,95.49243921764057 L 18.290029554350703,95.2024897239794 L 18.150168962844216,94.86483638712302 L 18.102465119648922,94.50248972397948 L 18.150168962844216,94.14014306083588 L 18.290029554350703,93.8024897239794 L 18.512515625987753,93.51254023031824 L 18.80246511964892,93.2900541586812 L 19.140118456505384,93.15019356717474 L 19.50246511964892,93.10248972397945 L 19.864811782792444,93.15019356717472 L 20.20246511964892,93.29005415868124 L 20.492414613310086,93.51254023031828 L 20.714900684947136,93.8024897239794 L 20.854761276453612,94.1401430608359 L 20.90246511964892,94.50248972397948 L 20.854761276453612,94.8648363871229 L 20.714900684947136,95.20248972397943 L 20.492414613310086,95.49243921764061 L 20.20246511964892,95.71492528927766 L 19.864811782792444,95.85478588078415 M 61.17746511964894,107.90248972397949 L 61.17746511964894,104.90248972397949 L 61.17746511964894,104.80248972397946 L 73.17746511964894,104.80248972397945 L 73.17746511964894,104.90248972397944 L 73.17746511964894,107.90248972397944 L 73.17746511964894,108.00248972397944 L 61.17746511964894,108.00248972397938 L 61.17746511964894,107.90248972397949 M 61.17746511964896,15.60248972397946 L 61.17746511964893,15.50248972397945 L 61.17746511964894,12.502489723979432 L 61.17746511964893,12.402489723979455 L 73.17746511964896,12.402489723979443 L 73.17746511964893,12.502489723979444 L 73.17746511964893,15.50248972397945 L 73.17746511964894,15.602489723979449 L 61.17746511964896,15.60248972397946 M 26.727465119648933,15.602489723979449 L 26.727465119648905,15.50248972397946 L 26.72746511964896,12.502489723979421 L 26.727465119648926,12.402489723979478 L 38.72746511964896,12.402489723979432 L 38.72746511964896,12.502489723979444 L 38.72746511964896,15.50248972397945 L 38.72746511964896,15.602489723979449 L 26.727465119648933,15.602489723979449 M 38.72746511964895,104.80248972397955 L 38.72746511964895,104.90248972397934 L 38.72746511964895,107.90248972397941 L 38.72746511964895,108.00248972397952 L 26.727465119648947,108.00248972397965 L 26.727465119648947,107.90248972397897 L 26.727465119648947,104.9024897239796 L 26.727465119648947,104.80248972397943 L 38.72746511964895,104.80248972397955 M 81.75476127645362,94.14014306083591 L 81.80246511964893,94.50248972397944 L 81.75476127645362,94.86483638712296 L 81.61490068494714,95.20248972397943 L 81.3924146133101,95.4924392176406 L 81.10246511964893,95.71492528927764 L 80.76481178279246,95.85478588078412 L 80.40246511964894,95.90248972397943 L 80.04011845650541,95.85478588078412 L 79.70246511964893,95.71492528927764 L 79.41251562598777,95.4924392176406 L 79.19002955435072,95.20248972397943 L 79.05016896284424,94.86483638712296 L 79.00246511964893,94.50248972397944 L 79.05016896284424,94.14014306083591 L 79.19002955435072,93.80248972397943 L 79.41251562598777,93.51254023031827 L 79.70246511964893,93.29005415868122 L 80.04011845650541,93.15019356717474 L 80.40246511964894,93.10248972397943 L 80.76481178279246,93.15019356717474 L 81.10246511964893,93.29005415868122 L 81.3924146133101,93.51254023031827 L 81.61490068494714,93.80248972397943 L 81.75476127645362,94.14014306083591 M 84.30246511964893,96.00248972397945 L 84.30246511964893,84.00248972397945 L 84.40246511964892,84.00248972397945 L 87.40246511964892,84.00248972397945 L 87.50246511964892,84.00248972397945 L 87.50246511964892,96.00248972397945 L 87.40246511964892,96.00248972397945 L 84.40246511964892,96.00248972397945 L 84.30246511964893,96.00248972397945 " />
  <path
     id="face1-cut"
     style="fill:none;stroke:#0000FF;stroke-width:1;stroke-miterlimit:4;stroke-dasharray:none;stroke-linejoin:round;stroke-linecap:round"
     d="M 10.074177505598783,123.34302177506785 L 10.0,123.87260899394931 L 10.0,217.3421121868053 L 10.074177505598797,217.87169940568677 L 10.223383352572199,218.3852191618485 L 10.444545706858023,218.87209916532595 L 10.733111301496791,219.32231558254125 L 11.083139178806391,219.72659940591984 L 11.48742300218494,220.0766272832294 L 11.93763941940027,220.3651928778682 L 12.424519422877708,220.586355232154 L 12.938039179039436,220.73556107912742 L 13.467626397920867,220.80973858472618 L 86.40475865351938,220.80984820226115 L 86.86160027004739,220.77990589875134 L 87.31062528385804,220.69058993655153 L 87.74415074657357,220.5434285377112 L 88.15475891163625,220.3409396764985 L 88.53542415410608,220.08658799612908 L 88.87963318114375,219.78472552771478 L 89.18149647634236,219.44051722574756 L 89.4358490710636,219.05985259422798 L 89.63833891855076,218.64924491554189 L 89.78550135871272,218.2157198063072 L 89.87481839946405,217.76669500703352 L 89.90476180030088,217.30985346242784 L 89.90484577889735,123.90498259602919 L 89.87490279370569,123.44814092326344 L 89.7855861709091,122.99911593817264 L 89.63842414268682,122.56559058275019 L 89.43593469214288,122.15498259602892 L 89.18158246991665,121.77431759449786 L 88.87971951305026,121.43010886187541 L 88.53551078042783,121.12824590500865 L 88.15484577889733,120.87389368278298 L 87.74423779217516,120.67140423223891 L 87.31071243675616,120.52424220401674 L 86.86168745166752,120.4349255812202 L 86.40484577889733,120.40498259602842 L 13.467626397920867,120.40498259602843 L 12.938039179039436,120.4791601016272 L 12.424519422877708,120.62836594860063 L 11.93763941940027,120.84952830288644 L 11.48742300218494,121.13809389752521 L 11.083139178806377,121.48812177483481 L 10.733111301496791,121.89240559821336 L 10.444545706858008,122.3426220154287 L 10.223383352572185,122.82950201890614 L 10.074177505598783,123.34302177506785 M 12.402377994348896,176.6073605903773 L 12.402377994348896,164.6073605903773 L 12.50237799434889,164.6073605903773 L 15.50237799434889,164.6073605903773 L 15.602377994348885,164.6073605903773 L 15.602377994348885,176.6073605903773 L 15.50237799434889,176.6073605903773 L 12.502377994348876,176.6073605903773 L 12.402377994348896,176.6073605903773 M 87.50237799434892,176.6073605903773 L 87.4023779943489,176.6073605903773 L 84.40237799434892,176.6073605903773 L 84.3023779943489,176.6073605903773 L 84.3023779943489,164.6073605903773 L 84.40237799434892,164.6073605903773 L 87.4023779943489,164.6073605903773 L 87.50237799434892,164.6073605903773 L 87.50237799434892,176.6073605903773 M 80.04003133120538,201.4550644335726 L 80.40237799434892,201.40736059037732 L 80.76472465749244,201.45506443357266 L 81.10237799434891,201.5949250250791 L 81.39232748801008,201.8174110967161 L 81.61481355964715,202.10736059037734 L 81.7546741511536,202.4450139272338 L 81.80237799434893,202.8073605903773 L 81.7546741511536,203.16970725352087 L 81.61481355964712,203.5073605903773 L 81.39232748801008,203.7973100840385 L 81.10237799434891,204.01979615567552 L 80.76472465749244,204.159656747182 L 80.40237799434895,204.20736059037728 L 80.04003133120538,204.159656747182 L 79.70237799434894,204.01979615567552 L 79.41242850068774,203.7973100840385 L 79.18994242905073,203.50736059037732 L 79.05008183754423,203.16970725352084 L 79.00237799434892,202.8073605903773 L 79.05008183754423,202.4450139272338 L 79.1899424290507,202.1073605903773 L 79.41242850068777,201.81741109671614 L 79.70237799434894,201.59492502507914 L 80.04003133120538,201.4550644335726 M 87.4023779943489,134.80736059037733 L 87.50237799434892,134.80736059037736 L 87.50237799434892,146.8073605903773 L 87.4023779943489,146.80736059037733 L 84.40237799434892,146.80736059037733 L 84.3023779943489,146.80736059037733 L 84.3023779943489,134.80736059037736 L 84.40237799434892,134.8073605903773 L 87.4023779943489,134.80736059037733 M 26.727377994348885,218.40736059037732 L 26.727377994348885,218.3073605903773 L 26.727377994348885,215.3073605903773 L 26.727377994348885,215.2073605903773 L 38.727377994348885,215.2073605903773 L 38.727377994348885,215.3073605903773 L 38.727377994348885,218.3073605903773 L 38.727377994348856,218.40736059037732 L 26.727377994348885,218.40736059037732 M 61.1773779943489,126.00736059037735 L 61.1773779943489,125.90736059037718 L 61.1773779943489,122.90736059037737 L 61.1773779943489,122.80736059037719 L 73.17737799434893,122.80736059037744 L 73.17737799434893,122.90736059037796 L 73.1773779943489,125.9073605903773 L 73.1773779943489,126.00736059037716 L 61.1773779943489,126.00736059037735 M 26.727377994348885,126.00736059037732 L 26.727377994348885,125.90736059037732 L 26.727377994348885,122.90736059037738 L 26.727377994348885,122.80736059037733 L 38.727377994348885,122.80736059037721 L 38.727377994348885,122.90736059037756 L 38.727377994348885,125.9073605903773 L 38.727377994348885,126.0073605903773 L 26.727377994348885,126.00736059037732 M 84.40237799434892,194.40736059037732 L 87.4023779943489,194.40736059037732 L 87.50237799434892,194.40736059037732 L 87.50237799434892,206.40736059037732 L 87.4023779943489,206.40736059037732 L 84.40237799434892,206.40736059037732 L 84.3023779943489,206.40736059037732 L 84.3023779943489,194.40736059037732 L 84.40237799434892,194.40736059037732 M 61.1773779943489,218.40736059037732 L 61.1773779943489,218.30736059037733 L 61.1773779943489,215.3073605903773 L 61.1773779943489,215.2073605903773 L 73.1773779943489,215.2073605903773 L 73.1773779943489,215.3073605903773 L 73.1773779943489,218.3073605903773 L 73.1773779943489,218.40736059037732 L 61.1773779943489,218.40736059037732 M 15.50237799434889,206.40736059037732 L 12.50237799434889,206.40736059037732 L 12.402377994348882,206.40736059037732 L 12.402377994348882,194.40736059037732 L 12.50237799434889,194.40736059037732 L 15.50237799434889,194.40736059037732 L 15.602377994348885,194.40736059037732 L 15.602377994348885,206.40736059037732 L 15.50237799434889,206.40736059037732 M 19.14003133120535,201.4550644335726 L 19.502377994348876,201.40736059037732 L 19.864724657492403,201.4550644335726 L 20.20237799434888,201.59492502507908 L 20.492327488010048,201.81741109671614 L 20.638080860849215,202.00736059037732 L 20.714813559647098,202.1073605903773 L 20.854674151153574,202.4450139272338 L 20.902377994348868,202.8073605903773 L 20.854674151153574,203.16970725352084 L 20.714813559647098,203.5073605903773 L 20.492327488010048,203.7973100840385 L 20.20237799434888,204.01979615567552 L 19.86472465749243,204.159656747182 L 19.502377994348876,204.2073605903773 L 19.14003133120535,204.159656747182 L 18.802377994348873,204.01979615567552 L 18.512428500687705,203.7973100840385 L 18.289942429050683,203.5073605903773 L 18.150081837544192,203.16970725352084 L 18.102377994348885,202.8073605903773 L 18.150081837544178,202.4450139272338 L 18.289942429050654,202.1073605903773 L 18.51242850068772,201.8174110967161 L 18.802377994348873,201.5949250250791 L 19.14003133120535,201.4550644335726 M 79.05008183754423,136.6697072535208 L 79.00237799434892,136.3073605903773 L 79.05008183754423,135.9450139272338 L 79.1899424290507,135.60736059037734 L 79.41242850068774,135.31741109671614 L 79.70237799434894,135.09492502507908 L 80.04003133120538,134.9550644335726 L 80.40237799434892,134.90736059037732 L 80.76472465749244,134.95506443357263 L 81.10237799434891,135.09492502507908 L 81.39232748801008,135.31741109671614 L 81.61481355964715,135.60736059037734 L 81.7546741511536,135.94501392723382 L 81.80237799434893,136.3073605903773 L 81.7546741511536,136.6697072535209 L 81.61481355964715,137.00736059037735 L 81.39232748801008,137.29731008403851 L 81.10237799434891,137.5197961556755 L 80.76472465749244,137.659656747182 L 80.40237799434892,137.70736059037728 L 80.04003133120538,137.65965674718203 L 79.70237799434894,137.51979615567552 L 79.41242850068774,137.2973100840385 L 79.1899424290507,137.00736059037726 L 79.05008183754423,136.6697072535208 M 15.602377994348885,134.8073605903773 L 15.602377994348885,146.8073605903773 L 15.50237799434889,146.8073605903773 L 12.502377994348876,146.80736059037733 L 12.402377994348896,146.80736059037733 L 12.402377994348896,134.8073605903773 L 12.50237799434889,134.8073605903773 L 15.50237799434889,134.8073605903773 L 15.602377994348885,134.8073605903773 M 19.86472465749243,137.65965674718203 L 19.502377994348876,137.7073605903773 L 19.14003133120535,137.65965674718203 L 18.802377994348873,137.51979615567552 L 18.51242850068772,137.2973100840385 L 18.289942429050654,137.00736059037732 L 18.150081837544192,136.66970725352084 L 18.102377994348885,136.3073605903773 L 18.150081837544192,135.9450139272338 L 18.289942429050654,135.6073605903773 L 18.51242850068772,135.31741109671617 L 18.802377994348873,135.0949250250791 L 19.14003133120535,134.95506443357263 L 19.502377994348876,134.90736059037732 L 19.86472465749243,134.95506443357263 L 20.20237799434888,135.0949250250791 L 20.492327488010048,135.31741109671617 L 20.714813559647098,135.6073605903773 L 20.854674151153574,135.9450139272338 L 20.902377994348896,136.3073605903773 L 20.854674151153574,136.66970725352084 L 20.714813559647098,137.00736059037732 L 20.492327488010048,137.2973100840385 L 20.20237799434888,137.51979615567552 L 19.86472465749243,137.65965674718203 M 69.50237799434892,167.3073605903773 L 69.50237799434892,174.3073605903773 L 63.50237799434892,174.3073605903773 L 63.50237799434892,167.30736059037733 L 69.50237799434892,167.3073605903773 " />
  <path
     id="face3-cut"
     style="fill:none;stroke:#0000FF;stroke-width:1;stroke-miterlimit:4;stroke-dasharray:none;stroke-linejoin:round;stroke-linecap:round"
     d="M 26.39999999999999,408.1098482022611 L 39.79999999999998,408.1098482022611 L 39.79999999999998,411.1098482022611 L 53.19999999999999,411.10984820226116 L 53.19999999999999,408.1098482022611 L 53.19999999999999,399.2098482022611 L 56.19999955227708,399.2098482022611 L 56.19999955227708,387.2098482022611 L 53.19999955227709,387.2098482022611 L 53.19558295925478,369.5037341503124 L 53.19999955227709,369.4098482022611 L 56.19999955227708,369.4098482022611 L 56.19999955227708,357.4098482022611 L 53.19999999999999,357.4098482022611 L 53.19999999999999,339.60984820226116 L 56.19999955227708,339.60984820226116 L 56.19999955227708,327.6098482022611 L 53.19999999999999,327.6098482022611 L 53.19999999999999,318.7098482022611 L 53.19999999999999,315.7098482022611 L 39.80000000000001,315.7098482022611 L 39.79999999999998,318.7098482022611 L 26.39999999999999,318.7098482022611 L 26.400000000000006,315.7098482022611 L 13.0,315.7098482022611 L 13.0,327.6098482022611 L 10.0,327.6098482022611 L 10.0,339.6098482022611 L 13.0,339.6098482022611 L 13.0,357.4098482022611 L 10.0,357.4098482022611 L 10.0,369.4098482022611 L 13.0,369.4098482022611 L 13.0,387.2098482022611 L 10.0,387.2098482022611 L 10.0,399.2098482022611 L 13.0,399.2098482022611 L 13.0,411.1098482022611 L 26.39999999999999,411.1098482022611 L 26.39999999999999,408.1098482022611 M 22.0,389.6098482022611 L 19.0,389.6098482022611 L 19.0,387.2098482022611 L 19.0,381.60984820226116 L 22.0,381.60984820226116 L 22.0,387.2098482022611 L 22.0,389.6098482022611 M 39.86592582628907,369.65102915715863 L 39.89999999999999,369.9098482022612 L 39.86592582628907,370.16866724736366 L 39.766025403784454,370.4098482022612 L 39.607106781186545,370.6169549834477 L 39.400000000000006,370.7758736060456 L 39.15881904510252,370.8757740285502 L 38.89999999999999,370.9098482022612 L 38.64118095489748,370.8757740285502 L 38.39999999999999,370.7758736060456 L 38.19289321881344,370.6169549834477 L 38.03397459621556,370.4098482022612 L 37.934074173710925,370.16866724736366 L 37.89999999999999,369.9098482022612 L 37.934074173710925,369.65102915715863 L 38.03397459621556,369.4098482022612 L 38.19289321881347,369.20274142107456 L 38.39999999999999,369.0438227984767 L 38.64118095489748,368.9439223759721 L 38.89999999999999,368.9098482022612 L 39.15881904510252,368.9439223759721 L 39.39999999999999,369.0438227984767 L 39.607106781186545,369.20274142107456 L 39.766025403784425,369.4098482022611 L 39.86592582628907,369.65102915715863 M 42.60000000000001,367.9098482022611 L 41.435314297038644,367.7565144205619 L 40.349999999999994,367.3069625192911 L 39.41801948466053,366.5918287176006 L 38.702885682970035,365.6598482022611 L 38.2533337816992,364.5745339052225 L 38.099999999999994,363.4098482022611 L 38.2533337816992,362.2451624992998 L 38.702885682970035,361.1598482022611 L 39.41801948466053,360.2278676869217 L 40.349999999999994,359.51273388523117 L 41.435314297038644,359.0631819839603 L 42.60000000000001,358.9098482022611 L 43.764685702961344,359.0631819839603 L 44.849999999999994,359.51273388523117 L 45.781980515339455,360.2278676869217 L 46.49711431702998,361.1598482022611 L 46.94666621830082,362.2451624992998 L 47.099999999999994,363.4098482022612 L 46.94666621830082,364.5745339052225 L 46.49711431702998,365.6598482022611 L 45.781980515339455,366.5918287176006 L 44.849999999999994,367.3069625192911 L 43.764685702961344,367.7565144205619 L 42.60000000000001,367.9098482022611 M 49.599999999999994,362.5438227984767 L 49.84118095489748,362.4439223759721 L 50.099999999999994,362.4098482022611 L 50.35881904510252,362.4439223759721 L 50.599999999999994,362.5438227984767 L 50.80710678118655,362.70274142107456 L 50.96602540378443,362.9098482022611 L 51.065925826289075,363.15102915715863 L 51.099999999999994,363.4098482022612 L 51.065925826289075,363.66866724736366 L 50.96602540378443,363.9098482022611 L 50.80710678118655,364.11695498344767 L 50.599999999999994,364.2758736060456 L 50.35881904510251,364.3757740285502 L 50.10000000000002,364.4098482022612 L 49.84118095489748,364.3757740285502 L 49.599999999999994,364.2758736060456 L 49.39289321881347,364.11695498344767 L 49.23397459621556,363.9098482022612 L 49.13407417371093,363.66866724736366 L 49.099999999999994,363.4098482022611 L 49.13407417371093,363.15102915715863 L 49.23397459621556,362.9098482022611 L 49.39289321881344,362.7027414210746 L 49.599999999999994,362.5438227984767 M 39.15881904510252,355.9439223759721 L 39.39999999999999,356.0438227984767 L 39.607106781186545,356.2027414210746 L 39.766025403784425,356.4098482022612 L 39.86592582628907,356.6510291571586 L 39.89999999999999,356.9098482022612 L 39.86592582628906,357.16866724736366 L 39.766025403784425,357.4098482022611 L 39.607106781186545,357.61695498344767 L 39.39999999999999,357.7758736060456 L 39.15881904510252,357.8757740285502 L 38.89999999999999,357.9098482022611 L 38.64118095489748,357.8757740285502 L 38.39999999999999,357.7758736060456 L 38.19289321881344,357.61695498344767 L 38.03397459621556,357.4098482022611 L 37.934074173710925,357.16866724736366 L 37.89999999999999,356.9098482022612 L 37.934074173710925,356.6510291571586 L 38.03397459621556,356.4098482022612 L 38.19289321881344,356.2027414210746 L 38.39999999999999,356.0438227984767 L 38.64118095489748,355.9439223759721 L 38.89999999999999,355.9098482022612 L 39.15881904510252,355.9439223759721 " />
  <path
     id="face4-cut"
     style="fill:none;stroke:#0000FF;stroke-width:1;stroke-miterlimit:4;stroke-dasharray:none;stroke-linejoin:round;stroke-linecap:round"
     d="M 53.19914027189057,458.83796176161945 L 53.199999551276136,445.00984813535405 L 56.19999942616695,445.009848181553 L 56.19999955064466,433.0098481826129 L 53.19999999847357,433.0098481844254 L 53.19999981972577,424.10982268430115 L 53.19999977411442,421.64397820187423 L 53.19999999795248,421.10984820226116 L 39.799999998425946,421.10984820778265 L 39.799999998557325,424.1098482048649 L 26.399999999030793,424.1098482104473 L 26.39999999889943,421.10984821296785 L 12.999999999372902,421.1098482178167 L 12.999999999893998,433.0098482063369 L 10.0,433.0098482077948 L 10.000000000525473,445.00984817736173 L 13.000000000419476,445.00984817475273 L 13.000000001198915,462.80984847940505 L 10.000000001304922,462.8098484709104 L 10.000000001830395,474.8098482995747 L 13.000000001724393,474.80984830158843 L 13.000000002503853,492.6098482705676 L 10.000000002609834,492.60984826968445 L 10.000000003135305,504.609848262653 L 13.00000000302932,504.6098482632702 L 13.0000000035504,516.5098482590324 L 26.400000003076926,516.5098482612339 L 26.40000000294556,513.5098482622814 L 39.80000000247209,513.5098482648677 L 39.800000002603454,516.5098482636554 L 53.200000002129975,516.5098482662968 L 53.20000000199861,513.5098482676864 L 53.200000001608885,504.60984827288075 L 56.199999553779975,504.609848273698 L 56.1999995532545,492.6098482853729 L 53.20000000108342,492.6098482842185 L 53.200000000303966,474.80984833241456 L 56.199999552475056,474.8098483350017 L 56.19999955194959,462.80984861948303 L 53.19999955205558,462.80984860868256 L 53.19779517941092,462.7434801020827 L 53.19931924902288,460.2948772792982 L 53.19914027189057,458.83796176161945 M 42.390053790482234,491.1090738986488 L 42.52082888597537,491.1667407088696 L 43.4888116949955,491.5935840609418 L 44.42472987411384,492.3459644112046 L 45.13402705060825,493.31494147196247 L 45.56836579406966,494.43448105785774 L 45.69814663690989,495.628288396249 L 45.51452522916234,496.81500748988213 L 45.2007552220837,497.5265658884556 L 45.0300150663163,497.9137653936591 L 44.277634715278815,498.84968357220146 L 43.30865765360577,499.55898074829935 L 42.18911806673989,499.99331949155385 L 40.99531072739941,500.1231003343805 L 39.80859163290053,499.93947892681166 L 38.70983372838727,499.4549687643307 L 37.77391554926892,498.70258841383384 L 37.06461837277451,497.73361135285865 L 36.6302796293131,496.6140717668205 L 36.50396537392959,495.4521523180716 L 36.500498786472875,495.4202644283977 L 36.68412019422042,494.2335453348522 L 37.16863035706646,493.1347874312596 L 37.92101070810395,492.1988692529501 L 38.889987769776994,491.4895720770717 L 40.00952735664288,491.0552333339637 L 41.20333469598334,490.9254524911699 L 42.390053790482234,491.1090738986488 M 35.599999999022415,431.3418990049936 L 35.185786436650034,431.0240617605176 L 34.867949191447345,430.60984819894577 L 34.668148346424026,430.12748628997 L 34.5999999989819,429.60984820054256 L 34.66814834637868,429.0922101110224 L 34.867949191359756,428.6098482017795 L 35.18578643652617,428.19563463979745 L 35.59999999887073,427.8777973948146 L 35.67090442428503,427.8484278202555 L 35.78770158479037,427.80004885230045 L 36.08236190863988,427.67799654983315 L 36.59999999882365,427.609848202256 L 37.1176380890134,427.6779965493494 L 37.59999999880005,427.87779739387463 L 38.014213561172426,428.19563463845566 L 38.33205080637512,428.6098482001158 L 38.53185165139844,429.0922101091394 L 38.59999999884056,429.60984819856174 L 38.53185165144377,430.12748628802524 L 38.332050806462696,430.60984819717487 L 38.01421356129629,431.024061759052 L 37.599999998951745,431.34189900394625 L 37.52909557353744,431.3712685784984 L 37.412298413032104,431.419647546442 L 37.11763808918258,431.5416998488794 L 36.59999999899881,431.6098481964615 L 36.08236190880908,431.54169984942513 L 35.599999999022415,431.3418990049936 " />
  <path
     id="face5-cut"
     style="fill:none;stroke:#0000FF;stroke-width:1;stroke-miterlimit:4;stroke-dasharray:none;stroke-linejoin:round;stroke-linecap:round"
     d="M 13.000000000000004,587.1848482662967 L 13.000000000000004,598.4098482662968 L 22.000000000000004,598.4098482662968 L 23.000000000000004,598.4098482662968 L 26.400000000000006,598.4098482662968 L 26.400000000000006,601.4098482662968 L 39.80000000000001,601.4098482662968 L 39.80000000000001,598.4098482662968 L 53.199999999999996,598.4098482662968 L 53.2,587.1848482662967 L 56.19999955227709,587.1848482662967 L 56.19999955227709,575.1848482662967 L 53.20000000000001,575.1848482662967 L 53.2,552.7348482662967 L 56.19999955227709,552.7348482662968 L 56.1999995522771,540.7348482662968 L 53.2,540.7348482662968 L 53.2,529.5098482662968 L 39.80000000000001,529.5098482662968 L 39.80000000000001,526.5098482662968 L 26.39999999999999,526.5098482662968 L 26.399999999999995,529.5107899615409 L 13.000000000000007,529.5114841063854 L 13.000000000000007,540.7348482662968 L 10.0,540.7348482662968 L 10.000000000000007,552.7348482662968 L 13.000000000000005,552.7348482662968 L 13.000000000000004,575.1848482662967 L 10.000000000000004,575.1848482662967 L 10.000000000000004,587.1848482662967 L 13.000000000000004,587.1848482662967 " />
  <path
     id="face0-interior"
     style="fill:none;stroke:#FF0000;stroke-width:1;stroke-miterlimit:4;stroke-dasharray:none;stroke-linejoin:round;stroke-linecap:round"
     d="M 89.9048462366222,106.90486771832973 M 89.90492957043273,13.499994735469224 M 89.87498697434123,13.043153337018467 M 89.78567069858032,12.594128705845149 M 89.63850897404765,12.160603685403784 M 89.43601978632255,11.749996031589903 M 89.18166779210351,11.369331376607423 M 88.87980503779083,11.025123018087635 M 88.5355964945393,10.723260474421183 M 88.1549316839004,10.468908713158605 M 87.74432390616873,10.266419776714276 M 87.31079879566845,10.119258317487176 M 86.8617741098361,10.02994231651715 M 86.40493280894738,10.0 M 13.467708463202921,10.00010970861521 M 12.938115831944394,10.074285115610984 M 12.424590187036461,10.223488862575678 M 11.937703711384152,10.4446492250128 M 11.487480155360249,10.733213075291317 M 11.083188473357957,11.083239619927774 M 10.7331519996673,11.487522705367484 M 10.444577092256946,11.93773917430156 M 10.22340477224856,12.424620218241982 M 10.07418841344893,12.938142198641032 M 10.0,13.467733008036706 M 10.00007789965878,106.90486771832974 M 10.074259198962551,107.46684234748417 M 10.22346227696475,107.98036986815656 M 10.44462200489276,108.46725840541613 M 10.733185299496128,108.91748423539522 M 11.083211419593464,109.32177842064017 M 11.487494269935954,109.67181763257442 M 11.93771075530369,109.96039550642462 M 12.424592130623484,110.18157100086171 M 12.938114819470677,110.33079070804479 M 13.46770677251584,110.40498259602842 M 86.40484311399779,110.40486771832833 M 86.8616849363597,110.37492474038756 M 87.31071007734725,110.28560813863837 M 87.74423560101988,110.13844614316645 M 88.15484377388579,109.93595673365907 M 88.53550898423451,109.68160455612352 M 88.87971795216491,109.37974164190051 M 89.18158117348361,109.03553294328583 M 89.43593369064033,108.65486795986477 M 89.63842346648337,108.24425996765572 M 89.78558584873736,107.810734575278 M 89.87490285109702,107.36170951397698 M 84.40246511964892,36.40248972397944 M 84.30246511964893,36.40248972397944 M 84.30246511964891,24.402489723979457 M 84.40246511964892,24.402489723979443 M 87.40246511964894,24.402489723979457 M 87.45399847031334,24.40248977272199 M 87.50246511964893,24.402489723979457 M 87.50246511964893,36.40248972397944 M 87.40247093234471,36.40248977272199 M 84.3721478658182,66.20248972397944 M 84.2721478658182,66.20248972397944 M 84.2721478658182,54.20248972397945 M 84.3721478658182,54.20248972397945 M 84.40563204712234,54.202489722456754 M 87.40246511964892,54.20248972397945 M 87.50246511964892,54.202489723979454 M 87.50246511964892,66.20248972397945 M 87.40246511964892,66.20248972397945 M 84.40488178751212,66.20248972245676 M 81.80246511964893,28.002489723979448 M 81.75476127645364,28.364836387122974 M 81.61490068494714,28.702489723979447 M 81.39241461331011,28.992439217640626 M 81.10246511964893,29.214925289277666 M 80.76481178279246,29.354785880784153 M 80.40246511964894,29.402489723979457 M 80.0401184565054,29.354785880784142 M 79.70246511964893,29.214925289277666 M 79.41251562598775,28.992439217640626 M 79.19002955435072,28.702489723979436 M 79.05016896284424,28.364836387122985 M 79.00246511964895,28.002489723979437 M 79.05016896284423,27.640143060835925 M 79.19002955435072,27.30248972397945 M 79.41251562598777,27.012540230318272 M 79.70246511964892,26.790054158681233 M 80.04011845650541,26.650193567174746 M 80.40246511964894,26.602489723979453 M 80.76481178279246,26.650193567174757 M 81.10246511964893,26.790054158681233 M 81.3924146133101,27.012540230318283 M 81.61490068494714,27.30248972397945 M 81.75476127645362,27.640143060835925 M 74.25246511964892,27.45248972397944 M 74.25246511964893,92.25248972397944 M 25.652465119648923,92.25248972397944 M 25.652465119648944,27.452489723979426 M 15.502465119648928,24.402489723979443 M 15.602465119648905,24.40248972397948 M 15.602465119648926,36.40248972397944 M 15.502465119648928,36.40248972397944 M 12.502465119648921,36.40248972397947 M 12.402465119648912,36.40248972397948 M 12.402465119648923,24.402489723979443 M 12.502465119648946,24.402489723979468 M 15.502465119648917,96.00248972397948 M 12.50246511964891,96.00248972397952 M 12.402465119648923,96.00248972397955 M 12.402465119648923,84.00248972397947 M 12.502465119648921,84.00248972397942 M 15.502465119648917,84.00248972397948 M 15.602465119648915,84.00248972397944 M 15.602465119648915,96.00248972397938 M 19.864811782792444,29.354785880784142 M 19.502465119648942,29.402489723979425 M 19.140118456505395,29.354785880784128 M 18.802465119648943,29.21492528927763 M 18.512515625987742,28.992439217640595 M 18.290029554350703,28.702489723979436 M 18.150168962844205,28.364836387122995 M 18.10246511964889,28.00248972397946 M 18.150168962844205,27.640143060835946 M 18.29002955435068,27.302489723979463 M 18.512515625987753,27.012540230318272 M 18.80246511964891,26.790054158681244 M 19.140118456505384,26.650193567174746 M 19.50246511964892,26.602489723979453 M 19.86481178279247,26.650193567174725 M 20.20246511964893,26.790054158681198 M 20.4924146133101,27.012540230318272 M 20.714900684947136,27.30248972397945 M 20.8547612764536,27.640143060835925 M 20.902465119648905,28.002489723979473 M 20.854761276453612,28.364836387122985 M 20.714900684947136,28.702489723979458 M 20.492414613310064,28.992439217640616 M 20.20246511964893,29.21492528927761 M 12.402465119648912,66.20248972397948 M 12.402465119648912,54.20248972397948 M 12.50246511964891,54.20248972397947 M 15.502465119648917,54.20248972397945 M 15.602465119648926,54.202489723979426 M 15.602465119648915,66.20248972397945 M 15.502465119648928,66.20248972397944 M 12.502465119648921,66.20248972397944 M 19.864811782792444,95.85478588078415 M 19.50246511964891,95.90248972397947 M 19.140118456505395,95.85478588078409 M 18.80246511964892,95.71492528927764 M 18.512515625987763,95.49243921764057 M 18.290029554350703,95.2024897239794 M 18.150168962844216,94.86483638712302 M 18.102465119648922,94.50248972397948 M 18.150168962844216,94.14014306083588 M 18.290029554350703,93.8024897239794 M 18.512515625987753,93.51254023031824 M 18.80246511964892,93.2900541586812 M 19.140118456505384,93.15019356717474 M 19.50246511964892,93.10248972397945 M 19.864811782792444,93.15019356717472 M 20.20246511964892,93.29005415868124 M 20.492414613310086,93.51254023031828 M 20.714900684947136,93.8024897239794 M 20.854761276453612,94.1401430608359 M 20.90246511964892,94.50248972397948 M 20.854761276453612,94.8648363871229 M 20.714900684947136,95.20248972397943 M 20.492414613310086,95.49243921764061 M 20.20246511964892,95.71492528927766 M 61.17746511964894,107.90248972397949 M 61.17746511964894,104.90248972397949 M 61.17746511964894,104.80248972397946 M 73.17746511964894,104.80248972397945 M 73.17746511964894,104.90248972397944 M 73.17746511964894,107.90248972397944 M 73.17746511964894,108.00248972397944 M 61.17746511964894,108.00248972397938 M 61.17746511964896,15.60248972397946 M 61.17746511964893,15.50248972397945 M 61.17746511964894,12.502489723979432 M 61.17746511964893,12.402489723979455 M 73.17746511964896,12.402489723979443 M 73.17746511964893,12.502489723979444 M 73.17746511964893,15.50248972397945 M 73.17746511964894,15.602489723979449 M 26.727465119648933,15.602489723979449 M 26.727465119648905,15.50248972397946 M 26.72746511964896,12.502489723979421 M 26.727465119648926,12.402489723979478 M 38.72746511964896,12.402489723979432 M 38.72746511964896,12.502489723979444 M 38.72746511964896,15.50248972397945 M 38.72746511964896,15.602489723979449 M 38.72746511964895,104.80248972397955 M 38.72746511964895,104.90248972397934 M 38.72746511964895,107.90248972397941 M 38.72746511964895,108.00248972397952 M 26.727465119648947,108.00248972397965 M 26.727465119648947,107.90248972397897 M 26.727465119648947,104.9024897239796 M 26.727465119648947,104.80248972397943 M 81.75476127645362,94.14014306083591 M 81.80246511964893,94.50248972397944 M 81.75476127645362,94.86483638712296 M 81.61490068494714,95.20248972397943 M 81.3924146133101,95.4924392176406 M 81.10246511964893,95.71492528927764 M 80.76481178279246,95.85478588078412 M 80.40246511964894,95.90248972397943 M 80.04011845650541,95.85478588078412 M 79.70246511964893,95.71492528927764 M 79.41251562598777,95.4924392176406 M 79.19002955435072,95.20248972397943 M 79.05016896284424,94.86483638712296 M 79.00246511964893,94.50248972397944 M 79.05016896284424,94.14014306083591 M 79.19002955435072,93.80248972397943 M 79.41251562598777,93.51254023031827 M 79.70246511964893,93.29005415868122 M 80.04011845650541,93.15019356717474 M 80.40246511964894,93.10248972397943 M 80.76481178279246,93.15019356717474 M 81.10246511964893,93.29005415868122 M 81.3924146133101,93.51254023031827 M 81.61490068494714,93.80248972397943 M 84.30246511964893,96.00248972397945 M 84.30246511964893,84.00248972397945 M 84.40246511964892,84.00248972397945 M 87.40246511964892,84.00248972397945 M 87.50246511964892,84.00248972397945 M 87.50246511964892,96.00248972397945 M 87.40246511964892,96.00248972397945 M 84.40246511964892,96.00248972397945 " />
  <path
     id="face1-interior"
     style="fill:none;stroke:#FF0000;stroke-width:1;stroke-miterlimit:4;stroke-dasharray:none;stroke-linejoin:round;stroke-linecap:round"
     d="M 10.074177505598783,123.34302177506785 M 10.0,123.87260899394931 M 10.0,217.3421121868053 M 10.074177505598797,217.87169940568677 M 10.223383352572199,218.3852191618485 M 10.444545706858023,218.87209916532595 M 10.733111301496791,219.32231558254125 M 11.083139178806391,219.72659940591984 M 11.48742300218494,220.0766272832294 M 11.93763941940027,220.3651928778682 M 12.424519422877708,220.586355232154 M 12.938039179039436,220.73556107912742 M 13.467626397920867,220.80973858472618 M 86.40475865351938,220.80984820226115 M 86.86160027004739,220.77990589875134 M 87.31062528385804,220.69058993655153 M 87.74415074657357,220.5434285377112 M 88.15475891163625,220.3409396764985 M 88.53542415410608,220.08658799612908 M 88.87963318114375,219.78472552771478 M 89.18149647634236,219.44051722574756 M 89.4358490710636,219.05985259422798 M 89.63833891855076,218.64924491554189 M 89.78550135871272,218.2157198063072 M 89.87481839946405,217.76669500703352 M 89.90476180030088,217.30985346242784 M 89.90484577889735,123.90498259602919 M 89.87490279370569,123.44814092326344 M 89.7855861709091,122.99911593817264 M 89.63842414268682,122.56559058275019 M 89.43593469214288,122.15498259602892 M 89.18158246991665,121.77431759449786 M 88.87971951305026,121.43010886187541 M 88.53551078042783,121.12824590500865 M 88.15484577889733,120.87389368278298 M 87.74423779217516,120.67140423223891 M 87.31071243675616,120.52424220401674 M 86.86168745166752,120.4349255812202 M 86.40484577889733,120.40498259602842 M 13.467626397920867,120.40498259602843 M 12.938039179039436,120.4791601016272 M 12.424519422877708,120.62836594860063 M 11.93763941940027,120.84952830288644 M 11.48742300218494,121.13809389752521 M 11.083139178806377,121.48812177483481 M 10.733111301496791,121.89240559821336 M 10.444545706858008,122.3426220154287 M 10.223383352572185,122.82950201890614 M 12.402377994348896,176.6073605903773 M 12.402377994348896,164.6073605903773 M 12.50237799434889,164.6073605903773 M 15.50237799434889,164.6073605903773 M 15.602377994348885,164.6073605903773 M 15.602377994348885,176.6073605903773 M 15.50237799434889,176.6073605903773 M 12.502377994348876,176.6073605903773 M 87.50237799434892,176.6073605903773 M 87.4023779943489,176.6073605903773 M 84.40237799434892,176.6073605903773 M 84.3023779943489,176.6073605903773 M 84.3023779943489,164.6073605903773 M 84.40237799434892,164.6073605903773 M 87.4023779943489,164.6073605903773 M 87.50237799434892,164.6073605903773 M 80.04003133120538,201.4550644335726 M 80.40237799434892,201.40736059037732 M 80.76472465749244,201.45506443357266 M 81.10237799434891,201.5949250250791 M 81.39232748801008,201.8174110967161 M 81.61481355964715,202.10736059037734 M 81.7546741511536,202.4450139272338 M 81.80237799434893,202.8073605903773 M 81.7546741511536,203.16970725352087 M 81.61481355964712,203.5073605903773 M 81.39232748801008,203.7973100840385 M 81.10237799434891,204.01979615567552 M 80.76472465749244,204.159656747182 M 80.40237799434895,204.20736059037728 M 80.04003133120538,204.159656747182 M 79.70237799434894,204.01979615567552 M 79.41242850068774,203.7973100840385 M 79.18994242905073,203.50736059037732 M 79.05008183754423,203.16970725352084 M 79.00237799434892,202.8073605903773 M 79.05008183754423,202.4450139272338 M 79.1899424290507,202.1073605903773 M 79.41242850068777,201.81741109671614 M 79.70237799434894,201.59492502507914 M 87.4023779943489,134.80736059037733 M 87.50237799434892,134.80736059037736 M 87.50237799434892,146.8073605903773 M 87.4023779943489,146.80736059037733 M 84.40237799434892,146.80736059037733 M 84.3023779943489,146.80736059037733 M 84.3023779943489,134.80736059037736 M 84.40237799434892,134.8073605903773 M 26.727377994348885,218.40736059037732 M 26.727377994348885,218.3073605903773 M 26.727377994348885,215.3073605903773 M 26.727377994348885,215.2073605903773 M 38.727377994348885,215.2073605903773 M 38.727377994348885,215.3073605903773 M 38.727377994348885,218.3073605903773 M 38.727377994348856,218.40736059037732 M 61.1773779943489,126.00736059037735 M 61.1773779943489,125.90736059037718 M 61.1773779943489,122.90736059037737 M 61.1773779943489,122.80736059037719 M 73.17737799434893,122.80736059037744 M 73.17737799434893,122.90736059037796 M 73.1773779943489,125.9073605903773 M 73.1773779943489,126.00736059037716 M 26.727377994348885,126.00736059037732 M 26.727377994348885,125.90736059037732 M 26.727377994348885,122.90736059037738 M 26.727377994348885,122.80736059037733 M 38.727377994348885,122.80736059037721 M 38.727377994348885,122.90736059037756 M 38.727377994348885,125.9073605903773 M 38.727377994348885,126.0073605903773 M 84.40237799434892,194.40736059037732 M 87.4023779943489,194.40736059037732 M 87.50237799434892,194.40736059037732 M 87.50237799434892,206.40736059037732 M 87.4023779943489,206.40736059037732 M 84.40237799434892,206.40736059037732 M 84.3023779943489,206.40736059037732 M 84.3023779943489,194.40736059037732 M 61.1773779943489,218.40736059037732 M 61.1773779943489,218.30736059037733 M 61.1773779943489,215.3073605903773 M 61.1773779943489,215.2073605903773 M 73.1773779943489,215.2073605903773 M 73.1773779943489,215.3073605903773 M 73.1773779943489,218.3073605903773 M 73.1773779943489,218.40736059037732 M 15.50237799434889,206.40736059037732 M 12.50237799434889,206.40736059037732 M 12.402377994348882,206.40736059037732 M 12.402377994348882,194.40736059037732 M 12.50237799434889,194.40736059037732 M 15.50237799434889,194.40736059037732 M 15.602377994348885,194.40736059037732 M 15.602377994348885,206.40736059037732 M 19.14003133120535,201.4550644335726 M 19.502377994348876,201.40736059037732 M 19.864724657492403,201.4550644335726 M 20.20237799434888,201.59492502507908 M 20.492327488010048,201.81741109671614 M 20.638080860849215,202.00736059037732 M 20.714813559647098,202.1073605903773 M 20.854674151153574,202.4450139272338 M 20.902377994348868,202.8073605903773 M 20.854674151153574,203.16970725352084 M 20.714813559647098,203.5073605903773 M 20.492327488010048,203.7973100840385 M 20.20237799434888,204.01979615567552 M 19.86472465749243,204.159656747182 M 19.502377994348876,204.2073605903773 M 19.14003133120535,204.159656747182 M 18.802377994348873,204.01979615567552 M 18.512428500687705,203.7973100840385 M 18.289942429050683,203.5073605903773 M 18.150081837544192,203.16970725352084 M 18.102377994348885,202.8073605903773 M 18.150081837544178,202.4450139272338 M 18.289942429050654,202.1073605903773 M 18.51242850068772,201.8174110967161 M 18.802377994348873,201.5949250250791 M 79.05008183754423,136.6697072535208 M 79.00237799434892,136.3073605903773 M 79.05008183754423,135.9450139272338 M 79.1899424290507,135.60736059037734 M 79.41242850068774,135.31741109671614 M 79.70237799434894,135.09492502507908 M 80.04003133120538,134.9550644335726 M 80.40237799434892,134.90736059037732 M 80.76472465749244,134.95506443357263 M 81.10237799434891,135.09492502507908 M 81.39232748801008,135.31741109671614 M 81.61481355964715,135.60736059037734 M 81.7546741511536,135.94501392723382 M 81.80237799434893,136.3073605903773 M 81.7546741511536,136.6697072535209 M 81.61481355964715,137.00736059037735 M 81.39232748801008,137.29731008403851 M 81.10237799434891,137.5197961556755 M 80.76472465749244,137.659656747182 M 80.40237799434892,137.70736059037728 M 80.04003133120538,137.65965674718203 M 79.70237799434894,137.51979615567552 M 79.41242850068774,137.2973100840385 M 79.1899424290507,137.00736059037726 M 15.602377994348885,134.8073605903773 M 15.602377994348885,146.8073605903773 M 15.50237799434889,146.8073605903773 M 12.502377994348876,146.80736059037733 M 12.402377994348896,146.80736059037733 M 12.402377994348896,134.8073605903773 M 12.50237799434889,134.8073605903773 M 15.50237799434889,134.8073605903773 M 19.86472465749243,137.65965674718203 M 19.502377994348876,137.7073605903773 M 19.14003133120535,137.65965674718203 M 18.802377994348873,137.51979615567552 M 18.51242850068772,137.2973100840385 M 18.289942429050654,137.00736059037732 M 18.150081837544192,136.66970725352084 M 18.102377994348885,136.3073605903773 M 18.150081837544192,135.9450139272338 M 18.289942429050654,135.6073605903773 M 18.51242850068772,135.31741109671617 M 18.802377994348873,135.0949250250791 M 19.14003133120535,134.95506443357263 M 19.502377994348876,134.90736059037732 M 19.86472465749243,134.95506443357263 M 20.20237799434888,135.0949250250791 M 20.492327488010048,135.31741109671617 M 20.714813559647098,135.6073605903773 M 20.854674151153574,135.9450139272338 M 20.902377994348896,136.3073605903773 M 20.854674151153574,136.66970725352084 M 20.714813559647098,137.00736059037732 M 20.492327488010048,137.2973100840385 M 20.20237799434888,137.51979615567552 M 69.50237799434892,167.3073605903773 M 69.50237799434892,174.3073605903773 M 63.50237799434892,174.3073605903773 M 63.50237799434892,167.30736059037733 " />
  <path
     id="face2-interior"
     style="fill:none;stroke:#FF0000;stroke-width:1;stroke-miterlimit:4;stroke-dasharray:none;stroke-linejoin:round;stroke-linecap:round"
     d="M 39.8,230.80984820226115 M 26.39999999999999,230.80984820226115 M 26.39999999999999,233.80984820226115 M 23.5,233.80984820226115 M 23.0,233.80984820226115 M 22.0,233.80984820226112 M 13.0,233.80984820226118 M 13.0,245.03484820226112 M 10.0,245.03484820226112 M 10.0,257.0348482022611 M 13.0,257.0348482022611 M 13.0,279.48484820226116 M 10.0,279.4848482022611 M 10.0,291.48484820226116 M 13.0,291.48484820226116 M 13.0,302.7098482022611 M 22.0,302.7098482022611 M 26.400000000000006,302.7098482022611 M 26.40000000000002,305.7098482022611 M 39.8,305.7098482022611 M 39.8,302.7098482022611 M 53.20000000000002,302.7098482022611 M 53.19999999999999,291.48572440262484 M 56.19999955227709,291.48484820226116 M 56.19999955227709,279.48484820226116 M 53.19999999999999,279.48572440262484 M 53.19999999999999,257.0348482022612 M 56.19999955227709,257.0348482022612 M 56.19999955227709,245.03484820226117 M 53.19999999999999,245.03484820226117 M 53.19999999999999,239.80984820226115 M 53.19999999999999,234.03322757441052 M 53.19999999999999,233.80984820226115 M 39.8,233.80984820226115 M 44.349999999999994,258.8600707627702 M 44.349999999999994,277.6600707627702 M 37.849999999999994,277.6600707627702 M 37.849999999999994,258.8600707627702 " />
  <path
     id="face3-interior"
     style="fill:none;stroke:#FF0000;stroke-width:1;stroke-miterlimit:4;stroke-dasharray:none;stroke-linejoin:round;stroke-linecap:round"
     d="M 26.39999999999999,408.1098482022611 M 39.79999999999998,408.1098482022611 M 39.79999999999998,411.1098482022611 M 53.19999999999999,411.10984820226116 M 53.19999999999999,408.1098482022611 M 53.19999999999999,399.2098482022611 M 56.19999955227708,399.2098482022611 M 56.19999955227708,387.2098482022611 M 53.19999955227709,387.2098482022611 M 53.19558295925478,369.5037341503124 M 53.19999955227709,369.4098482022611 M 56.19999955227708,369.4098482022611 M 56.19999955227708,357.4098482022611 M 53.19999999999999,357.4098482022611 M 53.19999999999999,339.60984820226116 M 56.19999955227708,339.60984820226116 M 56.19999955227708,327.6098482022611 M 53.19999999999999,327.6098482022611 M 53.19999999999999,318.7098482022611 M 53.19999999999999,315.7098482022611 M 39.80000000000001,315.7098482022611 M 39.79999999999998,318.7098482022611 M 26.39999999999999,318.7098482022611 M 26.400000000000006,315.7098482022611 M 13.0,315.7098482022611 M 13.0,327.6098482022611 M 10.0,327.6098482022611 M 10.0,339.6098482022611 M 13.0,339.6098482022611 M 13.0,357.4098482022611 M 10.0,357.4098482022611 M 10.0,369.4098482022611 M 13.0,369.4098482022611 M 13.0,387.2098482022611 M 10.0,387.2098482022611 M 10.0,399.2098482022611 M 13.0,399.2098482022611 M 13.0,411.1098482022611 M 26.39999999999999,411.1098482022611 M 22.0,389.6098482022611 M 19.0,389.6098482022611 M 19.0,387.2098482022611 M 19.0,381.60984820226116 M 22.0,381.60984820226116 M 22.0,387.2098482022611 M 39.86592582628907,369.65102915715863 M 39.89999999999999,369.9098482022612 M 39.86592582628907,370.16866724736366 M 39.766025403784454,370.4098482022612 M 39.607106781186545,370.6169549834477 M 39.400000000000006,370.7758736060456 M 39.15881904510252,370.8757740285502 M 38.89999999999999,370.9098482022612 M 38.64118095489748,370.8757740285502 M 38.39999999999999,370.7758736060456 M 38.19289321881344,370.6169549834477 M 38.03397459621556,370.4098482022612 M 37.934074173710925,370.16866724736366 M 37.89999999999999,369.9098482022612 M 37.934074173710925,369.65102915715863 M 38.03397459621556,369.4098482022612 M 38.19289321881347,369.20274142107456 M 38.39999999999999,369.0438227984767 M 38.64118095489748,368.9439223759721 M 38.89999999999999,368.9098482022612 M 39.15881904510252,368.9439223759721 M 39.39999999999999,369.0438227984767 M 39.607106781186545,369.20274142107456 M 39.766025403784425,369.4098482022611 M 42.60000000000001,367.9098482022611 M 41.435314297038644,367.7565144205619 M 40.349999999999994,367.3069625192911 M 39.41801948466053,366.5918287176006 M 38.702885682970035,365.6598482022611 M 38.2533337816992,364.5745339052225 M 38.099999999999994,363.4098482022611 M 38.2533337816992,362.2451624992998 M 38.702885682970035,361.1598482022611 M 39.41801948466053,360.2278676869217 M 40.349999999999994,359.51273388523117 M 41.435314297038644,359.0631819839603 M 42.60000000000001,358.9098482022611 M 43.764685702961344,359.0631819839603 M 44.849999999999994,359.51273388523117 M 45.781980515339455,360.2278676869217 M 46.49711431702998,361.1598482022611 M 46.94666621830082,362.2451624992998 M 47.099999999999994,363.4098482022612 M 46.94666621830082,364.5745339052225 M 46.49711431702998,365.6598482022611 M 45.781980515339455,366.5918287176006 M 44.849999999999994,367.3069625192911 M 43.764685702961344,367.7565144205619 M 49.599999999999994,362.5438227984767 M 49.84118095489748,362.4439223759721 M 50.099999999999994,362.4098482022611 M 50.35881904510252,362.4439223759721 M 50.599999999999994,362.5438227984767 M 50.80710678118655,362.70274142107456 M 50.96602540378443,362.9098482022611 M 51.065925826289075,363.15102915715863 M 51.099999999999994,363.4098482022612 M 51.065925826289075,363.66866724736366 M 50.96602540378443,363.9098482022611 M 50.80710678118655,364.11695498344767 M 50.599999999999994,364.2758736060456 M 50.35881904510251,364.3757740285502 M 50.10000000000002,364.4098482022612 M 49.84118095489748,364.3757740285502 M 49.599999999999994,364.2758736060456 M 49.39289321881347,364.11695498344767 M 49.23397459621556,363.9098482022612 M 49.13407417371093,363.66866724736366 M 49.099999999999994,363.4098482022611 M 49.13407417371093,363.15102915715863 M 49.23397459621556,362.9098482022611 M 49.39289321881344,362.7027414210746 M 39.15881904510252,355.9439223759721 M 39.39999999999999,356.0438227984767 M 39.607106781186545,356.2027414210746 M 39.766025403784425,356.4098482022612 M 39.86592582628907,356.6510291571586 M 39.89999999999999,356.9098482022612 M 39.86592582628906,357.16866724736366 M 39.766025403784425,357.4098482022611 M 39.607106781186545,357.61695498344767 M 39.39999999999999,357.7758736060456 M 39.15881904510252,357.8757740285502 M 38.89999999999999,357.9098482022611 M 38.64118095489748,357.8757740285502 M 38.39999999999999,357.7758736060456 M 38.19289321881344,357.61695498344767 M 38.03397459621556,357.4098482022611 M 37.934074173710925,357.16866724736366 M 37.89999999999999,356.9098482022612 M 37.934074173710925,356.6510291571586 M 38.03397459621556,356.4098482022612 M 38.19289321881344,356.2027414210746 M 38.39999999999999,356.0438227984767 M 38.64118095489748,355.9439223759721 M 38.89999999999999,355.9098482022612 " />
  <path
     id="face4-interior"
     style="fill:none;stroke:#FF0000;stroke-width:1;stroke-miterlimit:4;stroke-dasharray:none;stroke-linejoin:round;stroke-linecap:round"
     d="M 53.19914027189057,458.83796176161945 M 53.199999551276136,445.00984813535405 M 56.19999942616695,445.009848181553 M 56.19999955064466,433.0098481826129 M 53.19999999847357,433.0098481844254 M 53.19999981972577,424.10982268430115 M 53.19999977411442,421.64397820187423 M 53.19999999795248,421.10984820226116 M 39.799999998425946,421.10984820778265 M 39.799999998557325,424.1098482048649 M 26.399999999030793,424.1098482104473 M 26.39999999889943,421.10984821296785 M 12.999999999372902,421.1098482178167 M 12.999999999893998,433.0098482063369 M 10.0,433.0098482077948 M 10.000000000525473,445.00984817736173 M 13.000000000419476,445.00984817475273 M 13.000000001198915,462.80984847940505 M 10.000000001304922,462.8098484709104 M 10.000000001830395,474.8098482995747 M 13.000000001724393,474.80984830158843 M 13.000000002503853,492.6098482705676 M 10.000000002609834,492.60984826968445 M 10.000000003135305,504.609848262653 M 13.00000000302932,504.6098482632702 M 13.0000000035504,516.5098482590324 M 26.400000003076926,516.5098482612339 M 26.40000000294556,513.5098482622814 M 39.80000000247209,513.5098482648677 M 39.800000002603454,516.5098482636554 M 53.200000002129975,516.5098482662968 M 53.20000000199861,513.5098482676864 M 53.200000001608885,504.60984827288075 M 56.199999553779975,504.609848273698 M 56.1999995532545,492.6098482853729 M 53.20000000108342,492.6098482842185 M 53.200000000303966,474.80984833241456 M 56.199999552475056,474.8098483350017 M 56.19999955194959,462.80984861948303 M 53.19999955205558,462.80984860868256 M 53.19779517941092,462.7434801020827 M 53.19931924902288,460.2948772792982 M 42.390053790482234,491.1090738986488 M 42.52082888597537,491.1667407088696 M 43.4888116949955,491.5935840609418 M 44.42472987411384,492.3459644112046 M 45.13402705060825,493.31494147196247 M 45.56836579406966,494.43448105785774 M 45.69814663690989,495.628288396249 M 45.51452522916234,496.81500748988213 M 45.2007552220837,497.5265658884556 M 45.0300150663163,497.9137653936591 M 44.277634715278815,498.84968357220146 M 43.30865765360577,499.55898074829935 M 42.18911806673989,499.99331949155385 M 40.99531072739941,500.1231003343805 M 39.80859163290053,499.93947892681166 M 38.70983372838727,499.4549687643307 M 37.77391554926892,498.70258841383384 M 37.06461837277451,497.73361135285865 M 36.6302796293131,496.6140717668205 M 36.50396537392959,495.4521523180716 M 36.500498786472875,495.4202644283977 M 36.68412019422042,494.2335453348522 M 37.16863035706646,493.1347874312596 M 37.92101070810395,492.1988692529501 M 38.889987769776994,491.4895720770717 M 40.00952735664288,491.0552333339637 M 41.20333469598334,490.9254524911699 M 35.599999999022415,431.3418990049936 M 35.185786436650034,431.0240617605176 M 34.867949191447345,430.60984819894577 M 34.668148346424026,430.12748628997 M 34.5999999989819,429.60984820054256 M 34.66814834637868,429.0922101110224 M 34.867949191359756,428.6098482017795 M 35.18578643652617,428.19563463979745 M 35.59999999887073,427.8777973948146 M 35.67090442428503,427.8484278202555 M 35.78770158479037,427.80004885230045 M 36.08236190863988,427.67799654983315 M 36.59999999882365,427.609848202256 M 37.1176380890134,427.6779965493494 M 37.59999999880005,427.87779739387463 M 38.014213561172426,428.19563463845566 M 38.33205080637512,428.6098482001158 M 38.53185165139844,429.0922101091394 M 38.59999999884056,429.60984819856174 M 38.53185165144377,430.12748628802524 M 38.332050806462696,430.60984819717487 M 38.01421356129629,431.024061759052 M 37.599999998951745,431.34189900394625 M 37.52909557353744,431.3712685784984 M 37.412298413032104,431.419647546442 M 37.11763808918258,431.5416998488794 M 36.59999999899881,431.6098481964615 M 36.08236190880908,431.54169984942513 " />
  <path
     id="face5-interior"
     style="fill:none;stroke:#FF0000;stroke-width:1;stroke-miterlimit:4;stroke-dasharray:none;stroke-linejoin:round;stroke-linecap:round"
     d="M 13.000000000000004,587.1848482662967 M 13.000000000000004,598.4098482662968 M 22.000000000000004,598.4098482662968 M 23.000000000000004,598.4098482662968 M 26.400000000000006,598.4098482662968 M 26.400000000000006,601.4098482662968 M 39.80000000000001,601.4098482662968 M 39.80000000000001,598.4098482662968 M 53.199999999999996,598.4098482662968 M 53.2,587.1848482662967 M 56.19999955227709,587.1848482662967 M 56.19999955227709,575.1848482662967 M 53.20000000000001,575.1848482662967 M 53.2,552.7348482662967 M 56.19999955227709,552.7348482662968 M 56.1999995522771,540.7348482662968 M 53.2,540.7348482662968 M 53.2,529.5098482662968 M 39.80000000000001,529.5098482662968 M 39.80000000000001,526.5098482662968 M 26.39999999999999,526.5098482662968 M 26.399999999999995,529.5107899615409 M 13.000000000000007,529.5114841063854 M 13.000000000000007,540.7348482662968 M 10.0,540.7348482662968 M 10.000000000000007,552.7348482662968 M 13.000000000000005,552.7348482662968 M 13.000000000000004,575.1848482662967 M 10.000000000000004,575.1848482662967 M 10.000000000000004,587.1848482662967 " />
  <path
     id="path16"
     style="fill:none;stroke:#00FF00;stroke-width:1;stroke-miterlimit:4;stroke-dasharray:none;stroke-linejoin:round;stroke-linecap:round"
     d="M 89.9048462366222,106.90486771832973 M 89.90492957043273,13.499994735469224 M 89.87498697434123,13.043153337018467 M 89.78567069858032,12.594128705845149 M 89.63850897404765,12.160603685403784 M 89.43601978632255,11.749996031589903 M 89.18166779210351,11.369331376607423 M 88.87980503779083,11.025123018087635 M 88.5355964945393,10.723260474421183 M 88.1549316839004,10.468908713158605 M 87.74432390616873,10.266419776714276 M 87.31079879566845,10.119258317487176 M 86.8617741098361,10.02994231651715 M 86.40493280894738,10.0 M 13.467708463202921,10.00010970861521 M 12.938115831944394,10.074285115610984 M 12.424590187036461,10.223488862575678 M 11.937703711384152,10.4446492250128 M 11.487480155360249,10.733213075291317 M 11.083188473357957,11.083239619927774 M 10.7331519996673,11.487522705367484 M 10.444577092256946,11.93773917430156 M 10.22340477224856,12.424620218241982 M 10.07418841344893,12.938142198641032 M 10.0,13.467733008036706 M 10.00007789965878,106.90486771832974 M 10.074259198962551,107.46684234748417 M 10.22346227696475,107.98036986815656 M 10.44462200489276,108.46725840541613 M 10.733185299496128,108.91748423539522 M 11.083211419593464,109.32177842064017 M 11.487494269935954,109.67181763257442 M 11.93771075530369,109.96039550642462 M 12.424592130623484,110.18157100086171 M 12.938114819470677,110.33079070804479 M 13.46770677251584,110.40498259602842 M 86.40484311399779,110.40486771832833 M 86.8616849363597,110.37492474038756 M 87.31071007734725,110.28560813863837 M 87.74423560101988,110.13844614316645 M 88.15484377388579,109.93595673365907 M 88.53550898423451,109.68160455612352 M 88.87971795216491,109.37974164190051 M 89.18158117348361,109.03553294328583 M 89.43593369064033,108.65486795986477 M 89.63842346648337,108.24425996765572 M 89.78558584873736,107.810734575278 M 89.87490285109702,107.36170951397698 M 84.40246511964892,36.40248972397944 M 84.30246511964893,36.40248972397944 M 84.30246511964891,24.402489723979457 M 84.40246511964892,24.402489723979443 M 87.40246511964894,24.402489723979457 M 87.45399847031334,24.40248977272199 M 87.50246511964893,24.402489723979457 M 87.50246511964893,36.40248972397944 M 87.40247093234471,36.40248977272199 M 84.3721478658182,66.20248972397944 M 84.2721478658182,66.20248972397944 M 84.2721478658182,54.20248972397945 M 84.3721478658182,54.20248972397945 M 84.40563204712234,54.202489722456754 M 87.40246511964892,54.20248972397945 M 87.50246511964892,54.202489723979454 M 87.50246511964892,66.20248972397945 M 87.40246511964892,66.20248972397945 M 84.40488178751212,66.20248972245676 M 81.80246511964893,28.002489723979448 M 81.75476127645364,28.364836387122974 M 81.61490068494714,28.702489723979447 M 81.39241461331011,28.992439217640626 M 81.10246511964893,29.214925289277666 M 80.76481178279246,29.354785880784153 M 80.40246511964894,29.402489723979457 M 80.0401184565054,29.354785880784142 M 79.70246511964893,29.214925289277666 M 79.41251562598775,28.992439217640626 M 79.19002955435072,28.702489723979436 M 79.05016896284424,28.364836387122985 M 79.00246511964895,28.002489723979437 M 79.05016896284423,27.640143060835925 M 79.19002955435072,27.30248972397945 M 79.41251562598777,27.012540230318272 M 79.70246511964892,26.790054158681233 M 80.04011845650541,26.650193567174746 M 80.40246511964894,26.602489723979453 M 80.76481178279246,26.650193567174757 M 81.10246511964893,26.790054158681233 M 81.3924146133101,27.012540230318283 M 81.61490068494714,27.30248972397945 M 81.75476127645362,27.640143060835925 M 74.25246511964892,27.45248972397944 M 74.25246511964893,92.25248972397944 M 25.652465119648923,92.25248972397944 M 25.652465119648944,27.452489723979426 M 15.502465119648928,24.402489723979443 M 15.602465119648905,24.40248972397948 M 15.602465119648926,36.40248972397944 M 15.502465119648928,36.40248972397944 M 12.502465119648921,36.40248972397947 M 12.402465119648912,36.40248972397948 M 12.402465119648923,24.402489723979443 M 12.502465119648946,24.402489723979468 M 15.502465119648917,96.00248972397948 M 12.50246511964891,96.00248972397952 M 12.402465119648923,96.00248972397955 M 12.402465119648923,84.00248972397947 M 12.502465119648921,84.00248972397942 M 15.502465119648917,84.00248972397948 M 15.602465119648915,84.00248972397944 M 15.602465119648915,96.00248972397938 M 19.864811782792444,29.354785880784142 M 19.502465119648942,29.402489723979425 M 19.140118456505395,29.354785880784128 M 18.802465119648943,29.21492528927763 M 18.512515625987742,28.992439217640595 M 18.290029554350703,28.702489723979436 M 18.150168962844205,28.364836387122995 M 18.10246511964889,28.00248972397946 M 18.150168962844205,27.640143060835946 M 18.29002955435068,27.302489723979463 M 18.512515625987753,27.012540230318272 M 18.80246511964891,26.790054158681244 M 19.140118456505384,26.650193567174746 M 19.50246511964892,26.602489723979453 M 19.86481178279247,26.650193567174725 M 20.20246511964893,26.790054158681198 M 20.4924146133101,27.012540230318272 M 20.714900684947136,27.30248972397945 M 20.8547612764536,27.640143060835925 M 20.902465119648905,28.002489723979473 M 20.854761276453612,28.364836387122985 M 20.714900684947136,28.702489723979458 M 20.492414613310064,28.992439217640616 M 20.20246511964893,29.21492528927761 M 12.402465119648912,66.20248972397948 M 12.402465119648912,54.20248972397948 M 12.50246511964891,54.20248972397947 M 15.502465119648917,54.20248972397945 M 15.602465119648926,54.202489723979426 M 15.602465119648915,66.20248972397945 M 15.502465119648928,66.20248972397944 M 12.502465119648921,66.20248972397944 M 19.864811782792444,95.85478588078415 M 19.50246511964891,95.90248972397947 M 19.140118456505395,95.85478588078409 M 18.80246511964892,95.71492528927764 M 18.512515625987763,95.49243921764057 M 18.290029554350703,95.2024897239794 M 18.150168962844216,94.86483638712302 M 18.102465119648922,94.50248972397948 M 18.150168962844216,94.14014306083588 M 18.290029554350703,93.8024897239794 M 18.512515625987753,93.51254023031824 M 18.80246511964892,93.2900541586812 M 19.140118456505384,93.15019356717474 M 19.50246511964892,93.10248972397945 M 19.864811782792444,93.15019356717472 M 20.20246511964892,93.29005415868124 M 20.492414613310086,93.51254023031828 M 20.714900684947136,93.8024897239794 M 20.854761276453612,94.1401430608359 M 20.90246511964892,94.50248972397948 M 20.854761276453612,94.8648363871229 M 20.714900684947136,95.20248972397943 M 20.492414613310086,95.49243921764061 M 20.20246511964892,95.71492528927766 M 61.17746511964894,107.90248972397949 M 61.17746511964894,104.90248972397949 M 61.17746511964894,104.80248972397946 M 73.17746511964894,104.80248972397945 M 73.17746511964894,104.90248972397944 M 73.17746511964894,107.90248972397944 M 73.17746511964894,108.00248972397944 M 61.17746511964894,108.00248972397938 M 61.17746511964896,15.60248972397946 M 61.17746511964893,15.50248972397945 M 61.17746511964894,12.502489723979432 M 61.17746511964893,12.402489723979455 M 73.17746511964896,12.402489723979443 M 73.17746511964893,12.502489723979444 M 73.17746511964893,15.50248972397945 M 73.17746511964894,15.602489723979449 M 26.727465119648933,15.602489723979449 M 26.727465119648905,15.50248972397946 M 26.72746511964896,12.502489723979421 M 26.727465119648926,12.402489723979478 M 38.72746511964896,12.402489723979432 M 38.72746511964896,12.502489723979444 M 38.72746511964896,15.50248972397945 M 38.72746511964896,15.602489723979449 M 38.72746511964895,104.80248972397955 M 38.72746511964895,104.90248972397934 M 38.72746511964895,107.90248972397941 M 38.72746511964895,108.00248972397952 M 26.727465119648947,108.00248972397965 M 26.727465119648947,107.90248972397897 M 26.727465119648947,104.9024897239796 M 26.727465119648947,104.80248972397943 M 81.75476127645362,94.14014306083591 M 81.80246511964893,94.50248972397944 M 81.75476127645362,94.86483638712296 M 81.61490068494714,95.20248972397943 M 81.3924146133101,95.4924392176406 M 81.10246511964893,95.71492528927764 M 80.76481178279246,95.85478588078412 M 80.40246511964894,95.90248972397943 M 80.04011845650541,95.85478588078412 M 79.70246511964893,95.71492528927764 M 79.41251562598777,95.4924392176406 M 79.19002955435072,95.20248972397943 M 79.05016896284424,94.86483638712296 M 79.00246511964893,94.50248972397944 M 79.05016896284424,94.14014306083591 M 79.19002955435072,93.80248972397943 M 79.41251562598777,93.51254023031827 M 79.70246511964893,93.29005415868122 M 80.04011845650541,93.15019356717474 M 80.40246511964894,93.10248972397943 M 80.76481178279246,93.15019356717474 M 81.10246511964893,93.29005415868122 M 81.3924146133101,93.51254023031827 M 81.61490068494714,93.80248972397943 M 84.30246511964893,96.00248972397945 M 84.30246511964893,84.00248972397945 M 84.40246511964892,84.00248972397945 M 87.40246511964892,84.00248972397945 M 87.50246511964892,84.00248972397945 M 87.50246511964892,96.00248972397945 M 87.40246511964892,96.00248972397945 M 84.40246511964892,96.00248972397945 " />
  <path
     id="path18"
     style="fill:none;stroke:#00FF00;stroke-width:1;stroke-miterlimit:4;stroke-dasharray:none;stroke-linejoin:round;stroke-linecap:round"
     d="M 10.074177505598783,123.34302177506785 M 10.0,123.87260899394931 M 10.0,217.3421121868053 M 10.074177505598797,217.87169940568677 M 10.223383352572199,218.3852191618485 M 10.444545706858023,218.87209916532595 M 10.733111301496791,219.32231558254125 M 11.083139178806391,219.72659940591984 M 11.48742300218494,220.0766272832294 M 11.93763941940027,220.3651928778682 M 12.424519422877708,220.586355232154 M 12.938039179039436,220.73556107912742 M 13.467626397920867,220.80973858472618 M 86.40475865351938,220.80984820226115 M 86.86160027004739,220.77990589875134 M 87.31062528385804,220.69058993655153 M 87.74415074657357,220.5434285377112 M 88.15475891163625,220.3409396764985 M 88.53542415410608,220.08658799612908 M 88.87963318114375,219.78472552771478 M 89.18149647634236,219.44051722574756 M 89.4358490710636,219.05985259422798 M 89.63833891855076,218.64924491554189 M 89.78550135871272,218.2157198063072 M 89.87481839946405,217.76669500703352 M 89.90476180030088,217.30985346242784 M 89.90484577889735,123.90498259602919 M 89.87490279370569,123.44814092326344 M 89.7855861709091,122.99911593817264 M 89.63842414268682,122.56559058275019 M 89.43593469214288,122.15498259602892 M 89.18158246991665,121.77431759449786 M 88.87971951305026,121.43010886187541 M 88.53551078042783,121.12824590500865 M 88.15484577889733,120.87389368278298 M 87.74423779217516,120.67140423223891 M 87.31071243675616,120.52424220401674 M 86.86168745166752,120.4349255812202 M 86.40484577889733,120.40498259602842 M 13.467626397920867,120.40498259602843 M 12.938039179039436,120.4791601016272 M 12.424519422877708,120.62836594860063 M 11.93763941940027,120.84952830288644 M 11.48742300218494,121.13809389752521 M 11.083139178806377,121.48812177483481 M 10.733111301496791,121.89240559821336 M 10.444545706858008,122.3426220154287 M 10.223383352572185,122.82950201890614 M 12.402377994348896,176.6073605903773 M 12.402377994348896,164.6073605903773 M 12.50237799434889,164.6073605903773 M 15.50237799434889,164.6073605903773 M 15.602377994348885,164.6073605903773 M 15.602377994348885,176.6073605903773 M 15.50237799434889,176.6073605903773 M 12.502377994348876,176.6073605903773 M 87.50237799434892,176.6073605903773 M 87.4023779943489,176.6073605903773 M 84.40237799434892,176.6073605903773 M 84.3023779943489,176.6073605903773 M 84.3023779943489,164.6073605903773 M 84.40237799434892,164.6073605903773 M 87.4023779943489,164.6073605903773 M 87.50237799434892,164.6073605903773 M 80.04003133120538,201.4550644335726 M 80.40237799434892,201.40736059037732 M 80.76472465749244,201.45506443357266 M 81.10237799434891,201.5949250250791 M 81.39232748801008,201.8174110967161 M 81.61481355964715,202.10736059037734 M 81.7546741511536,202.4450139272338 M 81.80237799434893,202.8073605903773 M 81.7546741511536,203.16970725352087 M 81.61481355964712,203.5073605903773 M 81.39232748801008,203.7973100840385 M 81.10237799434891,204.01979615567552 M 80.76472465749244,204.159656747182 M 80.40237799434895,204.20736059037728 M 80.04003133120538,204.159656747182 M 79.70237799434894,204.01979615567552 M 79.41242850068774,203.7973100840385 M 79.18994242905073,203.50736059037732 M 79.05008183754423,203.16970725352084 M 79.00237799434892,202.8073605903773 M 79.05008183754423,202.4450139272338 M 79.1899424290507,202.1073605903773 M 79.41242850068777,201.81741109671614 M 79.70237799434894,201.59492502507914 M 87.4023779943489,134.80736059037733 M 87.50237799434892,134.80736059037736 M 87.50237799434892,146.8073605903773 M 87.4023779943489,146.80736059037733 M 84.40237799434892,146.80736059037733 M 84.3023779943489,146.80736059037733 M 84.3023779943489,134.80736059037736 M 84.40237799434892,134.8073605903773 M 26.727377994348885,218.40736059037732 M 26.727377994348885,218.3073605903773 M 26.727377994348885,215.3073605903773 M 26.727377994348885,215.2073605903773 M 38.727377994348885,215.2073605903773 M 38.727377994348885,215.3073605903773 M 38.727377994348885,218.3073605903773 M 38.727377994348856,218.40736059037732 M 61.1773779943489,126.00736059037735 M 61.1773779943489,125.90736059037718 M 61.1773779943489,122.90736059037737 M 61.1773779943489,122.80736059037719 M 73.17737799434893,122.80736059037744 M 73.17737799434893,122.90736059037796 M 73.1773779943489,125.9073605903773 M 73.1773779943489,126.00736059037716 M 26.727377994348885,126.00736059037732 M 26.727377994348885,125.90736059037732 M 26.727377994348885,122.90736059037738 M 26.727377994348885,122.80736059037733 M 38.727377994348885,122.80736059037721 M 38.727377994348885,122.90736059037756 M 38.727377994348885,125.9073605903773 M 38.727377994348885,126.0073605903773 M 84.40237799434892,194.40736059037732 M 87.4023779943489,194.40736059037732 M 87.50237799434892,194.40736059037732 M 87.50237799434892,206.40736059037732 M 87.4023779943489,206.40736059037732 M 84.40237799434892,206.40736059037732 M 84.3023779943489,206.40736059037732 M 84.3023779943489,194.40736059037732 M 61.1773779943489,218.40736059037732 M 61.1773779943489,218.30736059037733 M 61.1773779943489,215.3073605903773 M 61.1773779943489,215.2073605903773 M 73.1773779943489,215.2073605903773 M 73.1773779943489,215.3073605903773 M 73.1773779943489,218.3073605903773 M 73.1773779943489,218.40736059037732 M 15.50237799434889,206.40736059037732 M 12.50237799434889,206.40736059037732 M 12.402377994348882,206.40736059037732 M 12.402377994348882,194.40736059037732 M 12.50237799434889,194.40736059037732 M 15.50237799434889,194.40736059037732 M 15.602377994348885,194.40736059037732 M 15.602377994348885,206.40736059037732 M 19.14003133120535,201.4550644335726 M 19.502377994348876,201.40736059037732 M 19.864724657492403,201.4550644335726 M 20.20237799434888,201.59492502507908 M 20.492327488010048,201.81741109671614 M 20.638080860849215,202.00736059037732 M 20.714813559647098,202.1073605903773 M 20.854674151153574,202.4450139272338 M 20.902377994348868,202.8073605903773 M 20.854674151153574,203.16970725352084 M 20.714813559647098,203.5073605903773 M 20.492327488010048,203.7973100840385 M 20.20237799434888,204.01979615567552 M 19.86472465749243,204.159656747182 M 19.502377994348876,204.2073605903773 M 19.14003133120535,204.159656747182 M 18.802377994348873,204.01979615567552 M 18.512428500687705,203.7973100840385 M 18.289942429050683,203.5073605903773 M 18.150081837544192,203.16970725352084 M 18.102377994348885,202.8073605903773 M 18.150081837544178,202.4450139272338 M 18.289942429050654,202.1073605903773 M 18.51242850068772,201.8174110967161 M 18.802377994348873,201.5949250250791 M 79.05008183754423,136.6697072535208 M 79.00237799434892,136.3073605903773 M 79.05008183754423,135.9450139272338 M 79.1899424290507,135.60736059037734 M 79.41242850068774,135.31741109671614 M 79.70237799434894,135.09492502507908 M 80.04003133120538,134.9550644335726 M 80.40237799434892,134.90736059037732 M 80.76472465749244,134.95506443357263 M 81.10237799434891,135.09492502507908 M 81.39232748801008,135.31741109671614 M 81.61481355964715,135.60736059037734 M 81.7546741511536,135.94501392723382 M 81.80237799434893,136.3073605903773 M 81.7546741511536,136.6697072535209 M 81.61481355964715,137.00736059037735 M 81.39232748801008,137.29731008403851 M 81.10237799434891,137.5197961556755 M 80.76472465749244,137.659656747182 M 80.40237799434892,137.70736059037728 M 80.04003133120538,137.65965674718203 M 79.70237799434894,137.51979615567552 M 79.41242850068774,137.2973100840385 M 79.1899424290507,137.00736059037726 M 15.602377994348885,134.8073605903773 M 15.602377994348885,146.8073605903773 M 15.50237799434889,146.8073605903773 M 12.502377994348876,146.80736059037733 M 12.402377994348896,146.80736059037733 M 12.402377994348896,134.8073605903773 M 12.50237799434889,134.8073605903773 M 15.50237799434889,134.8073605903773 M 19.86472465749243,137.65965674718203 M 19.502377994348876,137.7073605903773 M 19.14003133120535,137.65965674718203 M 18.802377994348873,137.51979615567552 M 18.51242850068772,137.2973100840385 M 18.289942429050654,137.00736059037732 M 18.150081837544192,136.66970725352084 M 18.102377994348885,136.3073605903773 M 18.150081837544192,135.9450139272338 M 18.289942429050654,135.6073605903773 M 18.51242850068772,135.31741109671617 M 18.802377994348873,135.0949250250791 M 19.14003133120535,134.95506443357263 M 19.502377994348876,134.90736059037732 M 19.86472465749243,134.95506443357263 M 20.20237799434888,135.0949250250791 M 20.492327488010048,135.31741109671617 M 20.714813559647098,135.6073605903773 M 20.854674151153574,135.9450139272338 M 20.902377994348896,136.3073605903773 M 20.854674151153574,136.66970725352084 M 20.714813559647098,137.00736059037732 M 20.492327488010048,137.2973100840385 M 20.20237799434888,137.51979615567552 M 69.50237799434892,167.3073605903773 M 69.50237799434892,174.3073605903773 M 63.50237799434892,174.3073605903773 M 63.50237799434892,167.30736059037733 " />
  <path
     id="path20"
     style="fill:none;stroke:#00FF00;stroke-width:1;stroke-miterlimit:4;stroke-dasharray:none;stroke-linejoin:round;stroke-linecap:round"
     d="M 39.8,230.80984820226115 M 26.39999999999999,230.80984820226115 M 26.39999999999999,233.80984820226115 M 23.5,233.80984820226115 M 23.0,233.80984820226115 M 22.0,233.80984820226112 M 13.0,233.80984820226118 M 13.0,245.03484820226112 M 10.0,245.03484820226112 M 10.0,257.0348482022611 M 13.0,257.0348482022611 M 13.0,279.48484820226116 M 10.0,279.4848482022611 M 10.0,291.48484820226116 M 13.0,291.48484820226116 M 13.0,302.7098482022611 M 22.0,302.7098482022611 M 26.400000000000006,302.7098482022611 M 26.40000000000002,305.7098482022611 M 39.8,305.7098482022611 M 39.8,302.7098482022611 M 53.20000000000002,302.7098482022611 M 53.19999999999999,291.48572440262484 M 56.19999955227709,291.48484820226116 M 56.19999955227709,279.48484820226116 M 53.19999999999999,279.48572440262484 M 53.19999999999999,257.0348482022612 M 56.19999955227709,257.0348482022612 M 56.19999955227709,245.03484820226117 M 53.19999999999999,245.03484820226117 M 53.19999999999999,239.80984820226115 M 53.19999999999999,234.03322757441052 M 53.19999999999999,233.80984820226115 M 39.8,233.80984820226115 M 44.349999999999994,258.8600707627702 M 44.349999999999994,277.6600707627702 M 37.849999999999994,277.6600707627702 M 37.849999999999994,258.8600707627702 " />
  <path
     id="path22"
     style="fill:none;stroke:#00FF00;stroke-width:1;stroke-miterlimit:4;stroke-dasharray:none;stroke-linejoin:round;stroke-linecap:round"
     d="M 26.39999999999999,408.1098482022611 M 39.79999999999998,408.1098482022611 M 39.79999999999998,411.1098482022611 M 53.19999999999999,411.10984820226116 M 53.19999999999999,408.1098482022611 M 53.19999999999999,399.2098482022611 M 56.19999955227708,399.2098482022611 M 56.19999955227708,387.2098482022611 M 53.19999955227709,387.2098482022611 M 53.19558295925478,369.5037341503124 M 53.19999955227709,369.4098482022611 M 56.19999955227708,369.4098482022611 M 56.19999955227708,357.4098482022611 M 53.19999999999999,357.4098482022611 M 53.19999999999999,339.60984820226116 M 56.19999955227708,339.60984820226116 M 56.19999955227708,327.6098482022611 M 53.19999999999999,327.6098482022611 M 53.19999999999999,318.7098482022611 M 53.19999999999999,315.7098482022611 M 39.80000000000001,315.7098482022611 M 39.79999999999998,318.7098482022611 M 26.39999999999999,318.7098482022611 M 26.400000000000006,315.7098482022611 M 13.0,315.7098482022611 M 13.0,327.6098482022611 M 10.0,327.6098482022611 M 10.0,339.6098482022611 M 13.0,339.6098482022611 M 13.0,357.4098482022611 M 10.0,357.4098482022611 M 10.0,369.4098482022611 M 13.0,369.4098482022611 M 13.0,387.2098482022611 M 10.0,387.2098482022611 M 10.0,399.2098482022611 M 13.0,399.2098482022611 M 13.0,411.1098482022611 M 26.39999999999999,411.1098482022611 M 22.0,389.6098482022611 M 19.0,389.6098482022611 M 19.0,387.2098482022611 M 19.0,381.60984820226116 M 22.0,381.60984820226116 M 22.0,387.2098482022611 M 39.86592582628907,369.65102915715863 M 39.89999999999999,369.9098482022612 M 39.86592582628907,370.16866724736366 M 39.766025403784454,370.4098482022612 M 39.607106781186545,370.6169549834477 M 39.400000000000006,370.7758736060456 M 39.15881904510252,370.8757740285502 M 38.89999999999999,370.9098482022612 M 38.64118095489748,370.8757740285502 M 38.39999999999999,370.7758736060456 M 38.19289321881344,370.6169549834477 M 38.03397459621556,370.4098482022612 M 37.934074173710925,370.16866724736366 M 37.89999999999999,369.9098482022612 M 37.934074173710925,369.65102915715863 M 38.03397459621556,369.4098482022612 M 38.19289321881347,369.20274142107456 M 38.39999999999999,369.0438227984767 M 38.64118095489748,368.9439223759721 M 38.89999999999999,368.9098482022612 M 39.15881904510252,368.9439223759721 M 39.39999999999999,369.0438227984767 M 39.607106781186545,369.20274142107456 M 39.766025403784425,369.4098482022611 M 42.60000000000001,367.9098482022611 M 41.435314297038644,367.7565144205619 M 40.349999999999994,367.3069625192911 M 39.41801948466053,366.5918287176006 M 38.702885682970035,365.6598482022611 M 38.2533337816992,364.5745339052225 M 38.099999999999994,363.4098482022611 M 38.2533337816992,362.2451624992998 M 38.702885682970035,361.1598482022611 M 39.41801948466053,360.2278676869217 M 40.349999999999994,359.51273388523117 M 41.435314297038644,359.0631819839603 M 42.60000000000001,358.9098482022611 M 43.764685702961344,359.0631819839603 M 44.849999999999994,359.51273388523117 M 45.781980515339455,360.2278676869217 M 46.49711431702998,361.1598482022611 M 46.94666621830082,362.2451624992998 M 47.099999999999994,363.4098482022612 M 46.94666621830082,364.5745339052225 M 46.49711431702998,365.6598482022611 M 45.781980515339455,366.5918287176006 M 44.849999999999994,367.3069625192911 M 43.764685702961344,367.7565144205619 M 49.599999999999994,362.5438227984767 M 49.84118095489748,362.4439223759721 M 50.099999999999994,362.4098482022611 M 50.35881904510252,362.4439223759721 M 50.599999999999994,362.5438227984767 M 50.80710678118655,362.70274142107456 M 50.96602540378443,362.9098482022611 M 51.065925826289075,363.15102915715863 M 51.099999999999994,363.4098482022612 M 51.065925826289075,363.66866724736366 M 50.96602540378443,363.9098482022611 M 50.80710678118655,364.11695498344767 M 50.599999999999994,364.2758736060456 M 50.35881904510251,364.3757740285502 M 50.10000000000002,364.4098482022612 M 49.84118095489748,364.3757740285502 M 49.599999999999994,364.2758736060456 M 49.39289321881347,364.11695498344767 M 49.23397459621556,363.9098482022612 M 49.13407417371093,363.66866724736366 M 49.099999999999994,363.4098482022611 M 49.13407417371093,363.15102915715863 M 49.23397459621556,362.9098482022611 M 49.39289321881344,362.7027414210746 M 39.15881904510252,355.9439223759721 M 39.39999999999999,356.0438227984767 M 39.607106781186545,356.2027414210746 M 39.766025403784425,356.4098482022612 M 39.86592582628907,356.6510291571586 M 39.89999999999999,356.9098482022612 M 39.86592582628906,357.16866724736366 M 39.766025403784425,357.4098482022611 M 39.607106781186545,357.61695498344767 M 39.39999999999999,357.7758736060456 M 39.15881904510252,357.8757740285502 M 38.89999999999999,357.9098482022611 M 38.64118095489748,357.8757740285502 M 38.39999999999999,357.7758736060456 M 38.19289321881344,357.61695498344767 M 38.03397459621556,357.4098482022611 M 37.934074173710925,357.16866724736366 M 37.89999999999999,356.9098482022612 M 37.934074173710925,356.6510291571586 M 38.03397459621556,356.4098482022612 M 38.19289321881344,356.2027414210746 M 38.39999999999999,356.0438227984767 M 38.64118095489748,355.9439223759721 M 38.89999999999999,355.9098482022612 " />
  <path
     id="path24"
     style="fill:none;stroke:#00FF00;stroke-width:1;stroke-miterlimit:4;stroke-dasharray:none;stroke-linejoin:round;stroke-linecap:round"
     d="M 53.19914027189057,458.83796176161945 M 53.199999551276136,445.00984813535405 M 56.19999942616695,445.009848181553 M 56.19999955064466,433.0098481826129 M 53.19999999847357,433.0098481844254 M 53.19999981972577,424.10982268430115 M 53.19999977411442,421.64397820187423 M 53.19999999795248,421.10984820226116 M 39.799999998425946,421.10984820778265 M 39.799999998557325,424.1098482048649 M 26.399999999030793,424.1098482104473 M 26.39999999889943,421.10984821296785 M 12.999999999372902,421.1098482178167 M 12.999999999893998,433.0098482063369 M 10.0,433.0098482077948 M 10.000000000525473,445.00984817736173 M 13.000000000419476,445.00984817475273 M 13.000000001198915,462.80984847940505 M 10.000000001304922,462.8098484709104 M 10.000000001830395,474.8098482995747 M 13.000000001724393,474.80984830158843 M 13.000000002503853,492.6098482705676 M 10.000000002609834,492.60984826968445 M 10.000000003135305,504.609848262653 M 13.00000000302932,504.6098482632702 M 13.0000000035504,516.5098482590324 M 26.400000003076926,516.5098482612339 M 26.40000000294556,513.5098482622814 M 39.80000000247209,513.5098482648677 M 39.800000002603454,516.5098482636554 M 53.200000002129975,516.5098482662968 M 53.20000000199861,513.5098482676864 M 53.200000001608885,504.60984827288075 M 56.199999553779975,504.609848273698 M 56.1999995532545,492.6098482853729 M 53.20000000108342,492.6098482842185 M 53.200000000303966,474.80984833241456 M 56.199999552475056,474.8098483350017 M 56.19999955194959,462.80984861948303 M 53.19999955205558,462.80984860868256 M 53.19779517941092,462.7434801020827 M 53.19931924902288,460.2948772792982 M 42.390053790482234,491.1090738986488 M 42.52082888597537,491.1667407088696 M 43.4888116949955,491.5935840609418 M 44.42472987411384,492.3459644112046 M 45.13402705060825,493.31494147196247 M 45.56836579406966,494.43448105785774 M 45.69814663690989,495.628288396249 M 45.51452522916234,496.81500748988213 M 45.2007552220837,497.5265658884556 M 45.0300150663163,497.9137653936591 M 44.277634715278815,498.84968357220146 M 43.30865765360577,499.55898074829935 M 42.18911806673989,499.99331949155385 M 40.99531072739941,500.1231003343805 M 39.80859163290053,499.93947892681166 M 38.70983372838727,499.4549687643307 M 37.77391554926892,498.70258841383384 M 37.06461837277451,497.73361135285865 M 36.6302796293131,496.6140717668205 M 36.50396537392959,495.4521523180716 M 36.500498786472875,495.4202644283977 M 36.68412019422042,494.2335453348522 M 37.16863035706646,493.1347874312596 M 37.92101070810395,492.1988692529501 M 38.889987769776994,491.4895720770717 M 40.00952735664288,491.0552333339637 M 41.20333469598334,490.9254524911699 M 35.599999999022415,431.3418990049936 M 35.185786436650034,431.0240617605176 M 34.867949191447345,430.60984819894577 M 34.668148346424026,430.12748628997 M 34.5999999989819,429.60984820054256 M 34.66814834637868,429.0922101110224 M 34.867949191359756,428.6098482017795 M 35.18578643652617,428.19563463979745 M 35.59999999887073,427.8777973948146 M 35.67090442428503,427.8484278202555 M 35.78770158479037,427.80004885230045 M 36.08236190863988,427.67799654983315 M 36.59999999882365,427.609848202256 M 37.1176380890134,427.6779965493494 M 37.59999999880005,427.87779739387463 M 38.014213561172426,428.19563463845566 M 38.33205080637512,428.6098482001158 M 38.53185165139844,429.0922101091394 M 38.59999999884056,429.60984819856174 M 38.53185165144377,430.12748628802524 M 38.332050806462696,430.60984819717487 M 38.01421356129629,431.024061759052 M 37.599999998951745,431.34189900394625 M 37.52909557353744,431.3712685784984 M 37.412298413032104,431.419647546442 M 37.11763808918258,431.5416998488794 M 36.59999999899881,431.6098481964615 M 36.08236190880908,431.54169984942513 " />
  <path
     id="path26"
     style="fill:none;stroke:#00FF00;stroke-width:1;stroke-miterlimit:4;stroke-dasharray:none;stroke-linejoin:round;stroke-linecap:round"
     d="M 13.000000000000004,587.1848482662967 M 13.000000000000004,598.4098482662968 M 22.000000000000004,598.4098482662968 M 23.000000000000004,598.4098482662968 M 26.400000000000006,598.4098482662968 M 26.400000000000006,601.4098482662968 M 39.80000000000001,601.4098482662968 M 39.80000000000001,598.4098482662968 M 53.199999999999996,598.4098482662968 M 53.2,587.1848482662967 M 56.19999955227709,587.1848482662967 M 56.19999955227709,575.1848482662967 M 53.20000000000001,575.1848482662967 M 53.2,552.7348482662967 M 56.19999955227709,552.7348482662968 M 56.1999995522771,540.7348482662968 M 53.2,540.7348482662968 M 53.2,529.5098482662968 M 39.80000000000001,529.5098482662968 M 39.80000000000001,526.5098482662968 M 26.39999999999999,526.5098482662968 M 26.399999999999995,529.5107899615409 M 13.000000000000007,529.5114841063854 M 13.000000000000007,540.7348482662968 M 10.0,540.7348482662968 M 10.000000000000007,552.7348482662968 M 13.000000000000005,552.7348482662968 M 13.000000000000004,575.1848482662967 M 10.000000000000004,575.1848482662967 M 10.000000000000004,587.1848482662967 " />
  <path
     id="face0-cut-1"
     style="fill:none;stroke:#0000ff;stroke-width:1;stroke-linecap:round;stroke-linejoin:round;stroke-miterlimit:4;stroke-dasharray:none"
     d="M 39.8,230.80985 H 26.4 v 3 H 23.5 23 22 13 v 11.225 h -3 v 12 h 3 v 22.45 h -3 v 12 h 3 v 11.225 h 9 4.4 v 3 h 13.4 v -3 h 13.399997 v -11.22412 l 3,-8.8e-4 v -12 l -3,8.8e-4 v -22.45088 h 3 v -12 h -3 v -5.225 -5.77662 -0.22338 H 39.8 v -3 m -1.95,47.05022 v -19.2 h 6.499997 v 19.2 H 37.85" />
</svg>
